<svg xmlns="http://www.w3.org/2000/svg" xmlns:xlink="http://www.w3.org/1999/xlink" contentStyleType="text/css" data-diagram-type="DESCRIPTION" height="380px" preserveAspectRatio="none" style="width:1354px;height:380px;background:#FAFAFA;" version="1.1" viewBox="0 0 1354 380" width="1354px" zoomAndPan="magnify"><?plantuml 1.2026.3?><defs/><g><rect fill="#FAFAFA" height="380" style="stroke:none;stroke-width:1;" width="1354" x="0" y="0"/><g class="title" data-source-line="70"><text fill="#000000" font-family="sans-serif" font-size="14" font-weight="700" lengthAdjust="spacing" textLength="205.6045" x="570.6978" y="22.9951">Resource Investment Map</text></g><!--cluster GRPT_1--><g class="cluster" data-qualified-name="GRPT_1" data-source-line="72" id="ent0002"><rect fill="#FAF0D9" height="204" rx="2" ry="2" style="stroke:#8B6914;stroke-width:1;" width="1326" x="7" y="44.2969"/><text fill="#000000" font-family="sans-serif" font-size="12" font-weight="700" lengthAdjust="spacing" textLength="79.6523" x="630.1738" y="57.4355">Capabilities</text></g><!--cluster GRPT_2--><g class="cluster" data-qualified-name="GRPT_2" data-source-line="84" id="ent0012"><rect fill="#FAF0D9" height="86" rx="2" ry="2" style="stroke:#8B6914;stroke-width:1;" width="1254" x="86" y="280.2969"/><text fill="#000000" font-family="sans-serif" font-size="12" font-weight="700" lengthAdjust="spacing" textLength="69.6211" x="678.1895" y="293.4355">Resources</text></g><!--entity CAP_0kQIHh--><g class="entity" data-qualified-name="GRPT_1.CAP_0kQIHh" data-source-line="73" id="ent0003"><rect fill="#F5DEB3" height="37.7231" rx="2" ry="2" style="stroke:#8B6914;stroke-width:0.5;" width="261.8325" x="441" y="76.2969"/><path d="M454.4338,98.7584 L465.2892,98.7584 L465.2892,100.1984 L454.4338,100.1984" fill="#252327"/><path d="M455.4308,96.0446 L457.5354,96.0446 L457.5354,99.4784 L455.4308,99.4784" fill="#252327"/><path d="M458.5323,93.8292 L460.6369,93.8292 L460.6369,99.4784 L458.5323,99.4784" fill="#252327"/><path d="M461.6338,91.503 L463.7385,91.503 L463.7385,99.4784 L461.6338,99.4784" fill="#252327"/><text fill="#000000" font-family="sans-serif" font-size="12" lengthAdjust="spacing" textLength="220.2949" x="472.5375" y="101.1899">Architecture Analysis &amp; Visualization</text></g><!--entity CAP_FMvdNM--><g class="entity" data-qualified-name="GRPT_1.CAP_FMvdNM" data-source-line="74" id="ent0004"><rect fill="#F5DEB3" height="37.7231" rx="2" ry="2" style="stroke:#8B6914;stroke-width:0.5;" width="225.7153" x="763" y="76.2969"/><path d="M776.4338,98.7584 L787.2892,98.7584 L787.2892,100.1984 L776.4338,100.1984" fill="#252327"/><path d="M777.4308,96.0446 L779.5354,96.0446 L779.5354,99.4784 L777.4308,99.4784" fill="#252327"/><path d="M780.5323,93.8292 L782.6369,93.8292 L782.6369,99.4784 L780.5323,99.4784" fill="#252327"/><path d="M783.6338,91.503 L785.7385,91.503 L785.7385,99.4784 L783.6338,99.4784" fill="#252327"/><text fill="#000000" font-family="sans-serif" font-size="12" lengthAdjust="spacing" textLength="184.1777" x="794.5375" y="101.1899">Tiered Knowledge Governance</text></g><!--entity CAP_pLMHKe--><g class="entity" data-qualified-name="GRPT_1.CAP_pLMHKe" data-source-line="75" id="ent0005"><rect fill="#F5DEB3" height="37.7231" rx="2" ry="2" style="stroke:#8B6914;stroke-width:0.5;" width="268.1723" x="1049" y="76.2969"/><path d="M1062.4338,98.7584 L1073.2892,98.7584 L1073.2892,100.1984 L1062.4338,100.1984" fill="#252327"/><path d="M1063.4308,96.0446 L1065.5354,96.0446 L1065.5354,99.4784 L1063.4308,99.4784" fill="#252327"/><path d="M1066.5323,93.8292 L1068.6369,93.8292 L1068.6369,99.4784 L1066.5323,99.4784" fill="#252327"/><path d="M1069.6338,91.503 L1071.7385,91.503 L1071.7385,99.4784 L1069.6338,99.4784" fill="#252327"/><text fill="#000000" font-family="sans-serif" font-size="12" lengthAdjust="spacing" textLength="226.6348" x="1080.5375" y="101.1899">Architecture Knowledge Management</text></g><!--entity CAP_Eb_x83--><g class="entity" data-qualified-name="GRPT_1.CAP_Eb_x83" data-source-line="76" id="ent0006"><rect fill="#F5DEB3" height="37.7231" rx="2" ry="2" style="stroke:#8B6914;stroke-width:0.5;" width="357.1117" x="23.5" y="76.2969"/><path d="M36.9338,98.7584 L47.7892,98.7584 L47.7892,100.1984 L36.9338,100.1984" fill="#252327"/><path d="M37.9308,96.0446 L40.0354,96.0446 L40.0354,99.4784 L37.9308,99.4784" fill="#252327"/><path d="M41.0323,93.8292 L43.1369,93.8292 L43.1369,99.4784 L41.0323,99.4784" fill="#252327"/><path d="M44.1338,91.503 L46.2385,91.503 L46.2385,99.4784 L44.1338,99.4784" fill="#252327"/><text fill="#000000" font-family="sans-serif" font-size="12" lengthAdjust="spacing" textLength="315.5742" x="55.0375" y="101.1899">Integrated Safety, Security &amp; Compliance Assurance</text></g><!--entity CAP_db4AQh--><g class="entity" data-qualified-name="GRPT_1.CAP_db4AQh" data-source-line="77" id="ent0007"><rect fill="#F5DEB3" height="37.7231" rx="2" ry="2" style="stroke:#8B6914;stroke-width:0.5;" width="281.8364" x="27" y="194.2969"/><path d="M40.4338,216.7584 L51.2892,216.7584 L51.2892,218.1984 L40.4338,218.1984" fill="#252327"/><path d="M41.4308,214.0446 L43.5354,214.0446 L43.5354,217.4784 L41.4308,217.4784" fill="#252327"/><path d="M44.5323,211.8292 L46.6369,211.8292 L46.6369,217.4784 L44.5323,217.4784" fill="#252327"/><path d="M47.6338,209.503 L49.7385,209.503 L49.7385,217.4784 L47.6338,217.4784" fill="#252327"/><text fill="#000000" font-family="sans-serif" font-size="12" lengthAdjust="spacing" textLength="240.2988" x="58.5375" y="219.1899">Agent-Native Architecture Collaboration</text></g><!--entity RES_JnWnY1--><g class="entity" data-qualified-name="GRPT_2.RES_JnWnY1" data-source-line="85" id="ent0013"><rect fill="#F5DEB3" height="37.7231" rx="2" ry="2" style="stroke:#8B6914;stroke-width:0.5;" width="281.4438" x="1042.5" y="312.2969"/><path d="M1055.8231,326.7276 L1066.9,326.7276 L1066.9,335.5892 L1055.8231,335.5892" fill="#252327" style="stroke:none;stroke-width:0.5;"/><path d="M1055.8231,328.7769 L1066.9,328.7769 L1066.9,330.2169 L1055.8231,330.2169" fill="#252327"/><path d="M1058.4262,326.7276 L1058.4262,335.5892 L1059.8662,335.5892 L1059.8662,326.7276" fill="#252327"/><text fill="#000000" font-family="sans-serif" font-size="12" lengthAdjust="spacing" textLength="239.9063" x="1074.0375" y="337.1899">Recursive Self-Model (ENG-ARCH-REPO)</text></g><!--entity RES_dz41en--><g class="entity" data-qualified-name="GRPT_2.RES_dz41en" data-source-line="86" id="ent0014"><rect fill="#F5DEB3" height="37.7231" rx="2" ry="2" style="stroke:#8B6914;stroke-width:0.5;" width="283.8871" x="698" y="312.2969"/><path d="M711.3231,326.7276 L722.4,326.7276 L722.4,335.5892 L711.3231,335.5892" fill="#252327" style="stroke:none;stroke-width:0.5;"/><path d="M711.3231,328.7769 L722.4,328.7769 L722.4,330.2169 L711.3231,330.2169" fill="#252327"/><path d="M713.9262,326.7276 L713.9262,335.5892 L715.3662,335.5892 L715.3662,326.7276" fill="#252327"/><text fill="#000000" font-family="sans-serif" font-size="12" lengthAdjust="spacing" textLength="242.3496" x="729.5375" y="337.1899">Enterprise Architecture Knowledge Base</text></g><!--entity RES_0mpHI_--><g class="entity" data-qualified-name="GRPT_2.RES_0mpHI_" data-source-line="87" id="ent0015"><rect fill="#F5DEB3" height="37.7231" rx="2" ry="2" style="stroke:#8B6914;stroke-width:0.5;" width="206.5434" x="430.5" y="312.2969"/><path d="M443.8231,326.7276 L454.9,326.7276 L454.9,335.5892 L443.8231,335.5892" fill="#252327" style="stroke:none;stroke-width:0.5;"/><path d="M443.8231,328.7769 L454.9,328.7769 L454.9,330.2169 L443.8231,330.2169" fill="#252327"/><path d="M446.4262,326.7276 L446.4262,335.5892 L447.8662,335.5892 L447.8662,326.7276" fill="#252327"/><text fill="#000000" font-family="sans-serif" font-size="12" lengthAdjust="spacing" textLength="165.0059" x="462.0375" y="337.1899">Assurance Knowledge Base</text></g><!--entity RES_H7YRYJ--><g class="entity" data-qualified-name="GRPT_2.RES_H7YRYJ" data-source-line="88" id="ent0016"><rect fill="#F5DEB3" height="37.7231" rx="2" ry="2" style="stroke:#8B6914;stroke-width:0.5;" width="268.0024" x="102" y="312.2969"/><path d="M115.3231,326.7276 L126.4,326.7276 L126.4,335.5892 L115.3231,335.5892" fill="#252327" style="stroke:none;stroke-width:0.5;"/><path d="M115.3231,328.7769 L126.4,328.7769 L126.4,330.2169 L115.3231,330.2169" fill="#252327"/><path d="M117.9262,326.7276 L117.9262,335.5892 L119.3662,335.5892 L119.3662,326.7276" fill="#252327"/><text fill="#000000" font-family="sans-serif" font-size="12" lengthAdjust="spacing" textLength="226.4648" x="133.5375" y="337.1899">Modelling &amp; Method Guidance Corpus</text></g><!--link CAP_0kQIHh to CAP_FMvdNM--><!--link CAP_FMvdNM to CAP_pLMHKe--><!--link CAP_pLMHKe to CAP_Eb_x83--><!--link CAP_0kQIHh to CAP_db4AQh--><!--link RES_JnWnY1 to RES_dz41en--><!--link RES_dz41en to RES_0mpHI_--><!--link RES_0mpHI_ to RES_H7YRYJ--><!--reverse link CAP_pLMHKe to RES_JnWnY1--><g class="link" data-entity-1="ent0005" data-entity-2="ent0013" data-link-type="dependency" data-source-line="95" id="lnk21"><path d="M1227.67,120.6069 C1227.67,164.9769 1227.67,267.7469 1227.67,312.0469" fill="none" id="CAP_pLMHKe-backto-RES_JnWnY1" style="stroke:#181818;stroke-width:1;"/><polygon fill="#181818" points="1227.67,114.6069,1223.67,123.6069,1227.67,119.6069,1231.67,123.6069,1227.67,114.6069" style="stroke:#181818;stroke-width:1;"/></g><!--reverse link CAP_pLMHKe to RES_dz41en--><g class="link" data-entity-1="ent0005" data-entity-2="ent0014" data-link-type="dependency" data-source-line="96" id="lnk23"><path d="M1042.79,102.2969 C1023.35,102.2969 1015.75,102.2969 1015.75,102.2969 C1015.75,102.2969 1015.75,325.2969 1015.75,325.2969 C1015.75,325.2969 1002.04,325.2969 982.28,325.2969" fill="none" id="CAP_pLMHKe-backto-RES_dz41en" style="stroke:#181818;stroke-width:1;"/><polygon fill="#181818" points="1048.79,102.2969,1039.79,98.2969,1043.79,102.2969,1039.79,106.2969,1048.79,102.2969" style="stroke:#181818;stroke-width:1;"/></g><!--reverse link CAP_db4AQh to RES_H7YRYJ--><g class="link" data-entity-1="ent0007" data-entity-2="ent0016" data-link-type="dependency" data-source-line="97" id="lnk25"><path d="M205.5,238.5169 C205.5,260.4569 205.5,290.1469 205.5,312.0869" fill="none" id="CAP_db4AQh-backto-RES_H7YRYJ" style="stroke:#181818;stroke-width:1;"/><polygon fill="#181818" points="205.5,232.5169,201.5,241.5169,205.5,237.5169,209.5,241.5169,205.5,232.5169" style="stroke:#181818;stroke-width:1;"/></g><!--reverse link CAP_FMvdNM to RES_dz41en--><g class="link" data-entity-1="ent0004" data-entity-2="ent0014" data-link-type="dependency" data-source-line="98" id="lnk27"><path d="M872.5,120.6069 C872.5,164.9769 872.5,267.7469 872.5,312.0469" fill="none" id="CAP_FMvdNM-backto-RES_dz41en" style="stroke:#181818;stroke-width:1;"/><polygon fill="#181818" points="872.5,114.6069,868.5,123.6069,872.5,119.6069,876.5,123.6069,872.5,114.6069" style="stroke:#181818;stroke-width:1;"/></g><!--reverse link CAP_Eb_x83 to RES_0mpHI_--><g class="link" data-entity-1="ent0006" data-entity-2="ent0015" data-link-type="dependency" data-source-line="99" id="lnk29"><path d="M377,120.5069 C377,175.7869 377,325.2969 377,325.2969 C377,325.2969 400.96,325.2969 430.15,325.2969" fill="none" id="CAP_Eb_x83-backto-RES_0mpHI_" style="stroke:#181818;stroke-width:1;"/><polygon fill="#181818" points="377,114.5069,373,123.5069,377,119.5069,381,123.5069,377,114.5069" style="stroke:#181818;stroke-width:1;"/></g><!--reverse link CAP_Eb_x83 to RES_H7YRYJ--><g class="link" data-entity-1="ent0006" data-entity-2="ent0016" data-link-type="dependency" data-source-line="100" id="lnk31"><path d="M339.5,120.6069 C339.5,164.9769 339.5,267.7469 339.5,312.0469" fill="none" id="CAP_Eb_x83-backto-RES_H7YRYJ" style="stroke:#181818;stroke-width:1;"/><polygon fill="#181818" points="339.5,114.6069,335.5,123.6069,339.5,119.6069,343.5,123.6069,339.5,114.6069" style="stroke:#181818;stroke-width:1;"/></g><!--reverse link CAP_0kQIHh to RES_dz41en--><g class="link" data-entity-1="ent0003" data-entity-2="ent0014" data-link-type="dependency" data-source-line="101" id="lnk33"><path d="M709.09,102.2969 C726.79,102.2969 733,102.2969 733,102.2969 C733,102.2969 733,257.1269 733,312.1669" fill="none" id="CAP_0kQIHh-backto-RES_dz41en" style="stroke:#181818;stroke-width:1;"/><polygon fill="#181818" points="703.09,102.2969,712.09,106.2969,708.09,102.2969,712.09,98.2969,703.09,102.2969" style="stroke:#181818;stroke-width:1;"/></g><?plantuml-src xLPjRnf74FxEhvXUgZIHVEVZrRWoI9XWuoIu3hYfhAf2ozrmj_AnUzhT0zjf_djdRMoE-Y0bxQVA0g5bPfvzPcPdPZVc8O8sg52QsnHB9NtDHSeKcq68KvObvaGASyvc22Ccz0WLdnRRZFWTGhcIK-gOXNB1HGHJbcZCQPJCH1X89L11BIUViE0wkbTsPI8Ll3hfs4_UguGBj9w2L2QMEOMG8MfCeU7dYPYujiAcN_g1V2Ki334PNoeUHHIAYDvCbPpjWP5xaB099c_12i1rsoHRmmoH9VoE6Ix51f3d_RaDDVurtG58cPxlv5z7QndmRVwvxXRC-2DEpNS1XpoATq060MgzCH7FmZeJqoH34U1sIEx8CJ1CH0aU7OsCOWQZsrCggPIIsMx3bnB0SK6L-UyEhKQg4DLIsZnk79PhfQ_5UmSiPHEUS7ExSTVwkzvnTRTT5MgPgG2_Sy_ufPjVklcbc_ydtQnJnGt2Zqm5CPzHxEELct2avn7Sp1AXMqviJFhp_lvYiV0MLK-gQB_Y-_u-MJWmvxWubZSjnmSVoWtwEksZb9aOmfOpg7fbafQzIZq-z9h-lEnL_RuLtZamvKdISbvLwfLgvS3Ppw5gdkz3a-pZidVepwrztygsWXfa3uqdKDs2xD-je4EluKFDErY23hoAtxUo8f2DjrsGjCTJ-AzI1hMuxC-R_IevyJSlQFOgUOqjHqY1Qu5KRShgNhDEM5e-9leREQjxrJhOpCwRz1DRqETDYNu8lsHaIXq44saCzLF8RJbINvE2cyGsuJ8PPsAEsinG61Ymj5HwAbjmkezLnb4xKDXuJCFfyE9oNBulx1psgB1Ql-Y09TYYEllQXeurC0J95497iEHMSmsluJFNsTDujRnhJKcCtSx5sB_-TDQFT-Qyv7GdXl11o4M2OOHmAkUe1AD9j8dfP30FpmV_BheLtu095g5DzoQ-zEEW_m5tvZiJT3JsV4AwqgTqcUx128DCsHdn6hfobYRSXWaqv3ErBU3UP7pJhEuUS4H1kUTqQdDSZvxc6SrsgROUQ3YfTJx5DErMfmlkx_IG2L7yeUnbvEQFOxKij5ecSRKij5f6MiH8JnpXvXtBDyPZytohAohRkk9n7AqbSMYFJDiCZZ2PkWDw_IJmfdT-wdQ6tRuxx5tyyjQIvcuK8XlsHkFtuZTnLTwHhaT5esXGQjnKhyTCOp5XU5ShezYHyAdu_X65FqlxP-CTAUvpbjZtwMiO8BqcGpZDU7XFsfKgpNGnMV_WQdZrdWfmbSrdHPEBUxKij5gwlbeMMYqvIp-HPq8yJ6Yzva2MqfimLz5vsYBTmuuvtR9y2t7BNiex-QHRzaRXdZdTipsNW_al?></g></svg>