<svg xmlns="http://www.w3.org/2000/svg" xmlns:xlink="http://www.w3.org/1999/xlink" contentStyleType="text/css" data-diagram-type="DESCRIPTION" height="854px" preserveAspectRatio="none" style="width:2459px;height:854px;background:#FAFAFA;" version="1.1" viewBox="0 0 2459 854" width="2459px" zoomAndPan="magnify"><?plantuml 1.2026.3?><defs/><g><rect fill="#FAFAFA" height="854" style="stroke:none;stroke-width:1;" width="2459" x="0" y="0"/><g class="title" data-source-line="103"><text fill="#000000" font-family="sans-serif" font-size="14" font-weight="700" lengthAdjust="spacing" textLength="147.1162" x="1152.4419" y="22.9951">Strategy Overview</text></g><!--cluster DOM_motivation--><g class="cluster" data-qualified-name="DOM_motivation" data-source-line="105" id="ent0002"><rect fill="#F7EEF9" height="268" rx="2" ry="2" style="stroke:#7B3F9A;stroke-width:1;" width="412" x="459" y="44.2969"/><text fill="#000000" font-family="sans-serif" font-size="12" font-weight="700" lengthAdjust="spacing" textLength="72.5918" x="628.7041" y="57.4355">Motivation</text></g><!--cluster GRPT_motivation_1--><g class="cluster" data-qualified-name="DOM_motivation.GRPT_motivation_1" data-source-line="106" id="ent0003"><rect fill="#F7EEF9" height="204" rx="2" ry="2" style="stroke:#7B3F9A;stroke-width:1;" width="364" x="483" y="84.2969"/><text fill="#000000" font-family="sans-serif" font-size="12" font-weight="700" lengthAdjust="spacing" textLength="67.623" x="631.1885" y="97.4355">Outcomes</text></g><!--cluster DOM_strategy--><g class="cluster" data-qualified-name="DOM_strategy" data-source-line="114" id="ent0007"><rect fill="#FAF0D9" height="504" rx="2" ry="2" style="stroke:#8B6914;stroke-width:1;" width="2438" x="7" y="336.2969"/><text fill="#000000" font-family="sans-serif" font-size="12" font-weight="700" lengthAdjust="spacing" textLength="58.6816" x="1196.6592" y="349.4355">Strategy</text></g><!--cluster GRPT_strategy_1--><g class="cluster" data-qualified-name="DOM_strategy.GRPT_strategy_1" data-source-line="115" id="ent0008"><rect fill="#FAF0D9" height="86" rx="2" ry="2" style="stroke:#8B6914;stroke-width:1;" width="1070" x="630" y="376.2969"/><text fill="#000000" font-family="sans-serif" font-size="12" font-weight="700" lengthAdjust="spacing" textLength="120.75" x="1104.625" y="389.4355">Course Of Actions</text></g><!--cluster GRPT_strategy_2--><g class="cluster" data-qualified-name="DOM_strategy.GRPT_strategy_2" data-source-line="123" id="ent0014"><rect fill="#FAF0D9" height="204" rx="2" ry="2" style="stroke:#8B6914;stroke-width:1;" width="1340" x="573" y="494.2969"/><text fill="#000000" font-family="sans-serif" font-size="12" font-weight="700" lengthAdjust="spacing" textLength="79.6523" x="1203.1738" y="507.4355">Capabilities</text></g><!--cluster GRPT_strategy_3--><g class="cluster" data-qualified-name="DOM_strategy.GRPT_strategy_3" data-source-line="135" id="ent0024"><rect fill="#FAF0D9" height="86" rx="2" ry="2" style="stroke:#8B6914;stroke-width:1;" width="1254" x="31" y="730.2969"/><text fill="#000000" font-family="sans-serif" font-size="12" font-weight="700" lengthAdjust="spacing" textLength="69.6211" x="623.1895" y="743.4355">Resources</text></g><!--cluster GRPT_strategy_4--><g class="cluster" data-qualified-name="DOM_strategy.GRPT_strategy_4" data-source-line="145" id="ent0032"><rect fill="#FAF0D9" height="86" rx="2" ry="2" style="stroke:#8B6914;stroke-width:1;" width="1108" x="1313" y="730.2969"/><text fill="#000000" font-family="sans-serif" font-size="12" font-weight="700" lengthAdjust="spacing" textLength="98.5371" x="1817.7314" y="743.4355">Value Streams</text></g><!--entity OUT_LrpdG0--><g class="entity" data-qualified-name="DOM_motivation.GRPT_motivation_1.OUT_LrpdG0" data-source-line="107" id="ent0004"><rect fill="#EDD6F0" height="37.7231" rx="2" ry="2" style="stroke:#7B3F9A;stroke-width:0.5;" width="330.8676" x="499.5" y="116.2969"/><ellipse cx="517.6969" cy="135.823" fill="none" rx="4.7631" ry="4.7631" style="stroke:#252327;stroke-width:1.44;"/><ellipse cx="517.6969" cy="135.823" fill="none" rx="2.4369" ry="2.4369" style="stroke:#252327;stroke-width:1.44;"/><path d="M520.7763,133.9732 L519.9345,132.799 L523.3683,130.3621 L524.2102,131.5363" fill="#252327"/><path d="M520.7985,134.3276 L523.5677,134.3276 L523.5677,135.7676 L520.7985,135.7676" fill="#252327"/><ellipse cx="517.6969" cy="135.823" fill="#252327" rx="0.9969" ry="0.9969" style="stroke:none;stroke-width:1.44;"/><text fill="#000000" font-family="sans-serif" font-size="12" lengthAdjust="spacing" textLength="289.3301" x="531.0375" y="141.1899">Increased Architectural Coherence and Integrity</text></g><!--entity OUT_Vhhne7--><g class="entity" data-qualified-name="DOM_motivation.GRPT_motivation_1.OUT_Vhhne7" data-source-line="108" id="ent0005"><rect fill="#EDD6F0" height="37.7231" rx="2" ry="2" style="stroke:#7B3F9A;stroke-width:0.5;" width="305.5024" x="505" y="234.2969"/><ellipse cx="523.1969" cy="253.823" fill="none" rx="4.7631" ry="4.7631" style="stroke:#252327;stroke-width:1.44;"/><ellipse cx="523.1969" cy="253.823" fill="none" rx="2.4369" ry="2.4369" style="stroke:#252327;stroke-width:1.44;"/><path d="M526.2763,251.9732 L525.4345,250.799 L528.8683,248.3621 L529.7102,249.5363" fill="#252327"/><path d="M526.2985,252.3276 L529.0677,252.3276 L529.0677,253.7676 L526.2985,253.7676" fill="#252327"/><ellipse cx="523.1969" cy="253.823" fill="#252327" rx="0.9969" ry="0.9969" style="stroke:none;stroke-width:1.44;"/><text fill="#000000" font-family="sans-serif" font-size="12" lengthAdjust="spacing" textLength="263.9648" x="536.5375" y="259.1899">Assurance Analysis Surfaces Modeling Gaps</text></g><!--entity COA_F9mwVZ--><g class="entity" data-qualified-name="DOM_strategy.GRPT_strategy_1.COA_F9mwVZ" data-source-line="116" id="ent0009"><rect fill="#F5DEB3" height="37.7231" rx="2" ry="2" style="stroke:#8B6914;stroke-width:0.5;" width="348.311" x="974" y="408.2969"/><ellipse cx="995.8523" cy="424.2784" fill="none" rx="2.2154" ry="2.2154" style="stroke:#252327;stroke-width:1.44;"/><ellipse cx="995.8523" cy="424.2784" fill="#252327" rx="0.7754" ry="0.7754" style="stroke:none;stroke-width:1.44;"/><path d="M988.0542,432.3203 L987.0351,431.3012 L992.2412,426.095 L993.2603,427.1141" fill="#252327"/><path d="M990.6462,425.8846 L992.7508,425.8846 L992.7508,427.3246 L990.6462,427.3246" fill="#252327"/><path d="M992.0308,426.6046 L992.0308,428.7092 L993.4708,428.7092 L993.4708,426.6046" fill="#252327"/><text fill="#000000" font-family="sans-serif" font-size="12" lengthAdjust="spacing" textLength="306.7734" x="1005.5375" y="433.1899">Guidance-First, License-Separated Method Content</text></g><!--entity COA_FI0Xbj--><g class="entity" data-qualified-name="DOM_strategy.GRPT_strategy_1.COA_FI0Xbj" data-source-line="117" id="ent0010"><rect fill="#F5DEB3" height="37.7231" rx="2" ry="2" style="stroke:#8B6914;stroke-width:0.5;" width="266.8481" x="646.5" y="408.2969"/><ellipse cx="668.3523" cy="424.2784" fill="none" rx="2.2154" ry="2.2154" style="stroke:#252327;stroke-width:1.44;"/><ellipse cx="668.3523" cy="424.2784" fill="#252327" rx="0.7754" ry="0.7754" style="stroke:none;stroke-width:1.44;"/><path d="M660.5542,432.3203 L659.5351,431.3012 L664.7412,426.095 L665.7603,427.1141" fill="#252327"/><path d="M663.1462,425.8846 L665.2508,425.8846 L665.2508,427.3246 L663.1462,427.3246" fill="#252327"/><path d="M664.5308,426.6046 L664.5308,428.7092 L665.9708,428.7092 L665.9708,426.6046" fill="#252327"/><text fill="#000000" font-family="sans-serif" font-size="12" lengthAdjust="spacing" textLength="225.3105" x="678.0375" y="433.1899">Dogfood via the Recursive Self-Model</text></g><!--entity COA_jckOJG--><g class="entity" data-qualified-name="DOM_strategy.GRPT_strategy_1.COA_jckOJG" data-source-line="118" id="ent0011"><rect fill="#F5DEB3" height="37.7231" rx="2" ry="2" style="stroke:#8B6914;stroke-width:0.5;" width="300.8676" x="1382.5" y="408.2969"/><ellipse cx="1404.3523" cy="424.2784" fill="none" rx="2.2154" ry="2.2154" style="stroke:#252327;stroke-width:1.44;"/><ellipse cx="1404.3523" cy="424.2784" fill="#252327" rx="0.7754" ry="0.7754" style="stroke:none;stroke-width:1.44;"/><path d="M1396.5542,432.3203 L1395.5351,431.3012 L1400.7412,426.095 L1401.7603,427.1141" fill="#252327"/><path d="M1399.1462,425.8846 L1401.2508,425.8846 L1401.2508,427.3246 L1399.1462,427.3246" fill="#252327"/><path d="M1400.5308,426.6046 L1400.5308,428.7092 L1401.9708,428.7092 L1401.9708,426.6046" fill="#252327"/><text fill="#000000" font-family="sans-serif" font-size="12" lengthAdjust="spacing" textLength="259.3301" x="1414.0375" y="433.1899">Develop Privately, Release as Open Source</text></g><!--entity CAP_0kQIHh--><g class="entity" data-qualified-name="DOM_strategy.GRPT_strategy_2.CAP_0kQIHh" data-source-line="124" id="ent0015"><rect fill="#F5DEB3" height="37.7231" rx="2" ry="2" style="stroke:#8B6914;stroke-width:0.5;" width="261.8325" x="1635" y="526.2969"/><path d="M1648.4338,548.7584 L1659.2892,548.7584 L1659.2892,550.1984 L1648.4338,550.1984" fill="#252327"/><path d="M1649.4308,546.0446 L1651.5354,546.0446 L1651.5354,549.4784 L1649.4308,549.4784" fill="#252327"/><path d="M1652.5323,543.8292 L1654.6369,543.8292 L1654.6369,549.4784 L1652.5323,549.4784" fill="#252327"/><path d="M1655.6338,541.503 L1657.7385,541.503 L1657.7385,549.4784 L1655.6338,549.4784" fill="#252327"/><text fill="#000000" font-family="sans-serif" font-size="12" lengthAdjust="spacing" textLength="220.2949" x="1666.5375" y="551.1899">Architecture Analysis &amp; Visualization</text></g><!--entity CAP_Eb_x83--><g class="entity" data-qualified-name="DOM_strategy.GRPT_strategy_2.CAP_Eb_x83" data-source-line="125" id="ent0016"><rect fill="#F5DEB3" height="37.7231" rx="2" ry="2" style="stroke:#8B6914;stroke-width:0.5;" width="357.1117" x="589.5" y="526.2969"/><path d="M602.9338,548.7584 L613.7892,548.7584 L613.7892,550.1984 L602.9338,550.1984" fill="#252327"/><path d="M603.9308,546.0446 L606.0354,546.0446 L606.0354,549.4784 L603.9308,549.4784" fill="#252327"/><path d="M607.0323,543.8292 L609.1369,543.8292 L609.1369,549.4784 L607.0323,549.4784" fill="#252327"/><path d="M610.1338,541.503 L612.2385,541.503 L612.2385,549.4784 L610.1338,549.4784" fill="#252327"/><text fill="#000000" font-family="sans-serif" font-size="12" lengthAdjust="spacing" textLength="315.5742" x="621.0375" y="551.1899">Integrated Safety, Security &amp; Compliance Assurance</text></g><!--entity CAP_FMvdNM--><g class="entity" data-qualified-name="DOM_strategy.GRPT_strategy_2.CAP_FMvdNM" data-source-line="126" id="ent0017"><rect fill="#F5DEB3" height="37.7231" rx="2" ry="2" style="stroke:#8B6914;stroke-width:0.5;" width="225.7153" x="1349" y="526.2969"/><path d="M1362.4338,548.7584 L1373.2892,548.7584 L1373.2892,550.1984 L1362.4338,550.1984" fill="#252327"/><path d="M1363.4308,546.0446 L1365.5354,546.0446 L1365.5354,549.4784 L1363.4308,549.4784" fill="#252327"/><path d="M1366.5323,543.8292 L1368.6369,543.8292 L1368.6369,549.4784 L1366.5323,549.4784" fill="#252327"/><path d="M1369.6338,541.503 L1371.7385,541.503 L1371.7385,549.4784 L1369.6338,549.4784" fill="#252327"/><text fill="#000000" font-family="sans-serif" font-size="12" lengthAdjust="spacing" textLength="184.1777" x="1380.5375" y="551.1899">Tiered Knowledge Governance</text></g><!--entity CAP_db4AQh--><g class="entity" data-qualified-name="DOM_strategy.GRPT_strategy_2.CAP_db4AQh" data-source-line="127" id="ent0018"><rect fill="#F5DEB3" height="37.7231" rx="2" ry="2" style="stroke:#8B6914;stroke-width:0.5;" width="281.8364" x="1007" y="526.2969"/><path d="M1020.4338,548.7584 L1031.2892,548.7584 L1031.2892,550.1984 L1020.4338,550.1984" fill="#252327"/><path d="M1021.4308,546.0446 L1023.5354,546.0446 L1023.5354,549.4784 L1021.4308,549.4784" fill="#252327"/><path d="M1024.5323,543.8292 L1026.6369,543.8292 L1026.6369,549.4784 L1024.5323,549.4784" fill="#252327"/><path d="M1027.6338,541.503 L1029.7385,541.503 L1029.7385,549.4784 L1027.6338,549.4784" fill="#252327"/><text fill="#000000" font-family="sans-serif" font-size="12" lengthAdjust="spacing" textLength="240.2988" x="1038.5375" y="551.1899">Agent-Native Architecture Collaboration</text></g><!--entity CAP_pLMHKe--><g class="entity" data-qualified-name="DOM_strategy.GRPT_strategy_2.CAP_pLMHKe" data-source-line="128" id="ent0019"><rect fill="#F5DEB3" height="37.7231" rx="2" ry="2" style="stroke:#8B6914;stroke-width:0.5;" width="268.1723" x="1188" y="644.2969"/><path d="M1201.4338,666.7584 L1212.2892,666.7584 L1212.2892,668.1984 L1201.4338,668.1984" fill="#252327"/><path d="M1202.4308,664.0446 L1204.5354,664.0446 L1204.5354,667.4784 L1202.4308,667.4784" fill="#252327"/><path d="M1205.5323,661.8292 L1207.6369,661.8292 L1207.6369,667.4784 L1205.5323,667.4784" fill="#252327"/><path d="M1208.6338,659.503 L1210.7385,659.503 L1210.7385,667.4784 L1208.6338,667.4784" fill="#252327"/><text fill="#000000" font-family="sans-serif" font-size="12" lengthAdjust="spacing" textLength="226.6348" x="1219.5375" y="669.1899">Architecture Knowledge Management</text></g><!--entity RES_0mpHI_--><g class="entity" data-qualified-name="DOM_strategy.GRPT_strategy_3.RES_0mpHI_" data-source-line="136" id="ent0025"><rect fill="#F5DEB3" height="37.7231" rx="2" ry="2" style="stroke:#8B6914;stroke-width:0.5;" width="206.5434" x="47.5" y="762.2969"/><path d="M60.8231,776.7276 L71.9,776.7276 L71.9,785.5892 L60.8231,785.5892" fill="#252327" style="stroke:none;stroke-width:0.5;"/><path d="M60.8231,778.7769 L71.9,778.7769 L71.9,780.2169 L60.8231,780.2169" fill="#252327"/><path d="M63.4262,776.7276 L63.4262,785.5892 L64.8662,785.5892 L64.8662,776.7276" fill="#252327"/><text fill="#000000" font-family="sans-serif" font-size="12" lengthAdjust="spacing" textLength="165.0059" x="79.0375" y="787.1899">Assurance Knowledge Base</text></g><!--entity RES_H7YRYJ--><g class="entity" data-qualified-name="DOM_strategy.GRPT_strategy_3.RES_H7YRYJ" data-source-line="137" id="ent0026"><rect fill="#F5DEB3" height="37.7231" rx="2" ry="2" style="stroke:#8B6914;stroke-width:0.5;" width="268.0024" x="315" y="762.2969"/><path d="M328.3231,776.7276 L339.4,776.7276 L339.4,785.5892 L328.3231,785.5892" fill="#252327" style="stroke:none;stroke-width:0.5;"/><path d="M328.3231,778.7769 L339.4,778.7769 L339.4,780.2169 L328.3231,780.2169" fill="#252327"/><path d="M330.9262,776.7276 L330.9262,785.5892 L332.3662,785.5892 L332.3662,776.7276" fill="#252327"/><text fill="#000000" font-family="sans-serif" font-size="12" lengthAdjust="spacing" textLength="226.4648" x="346.5375" y="787.1899">Modelling &amp; Method Guidance Corpus</text></g><!--entity RES_JnWnY1--><g class="entity" data-qualified-name="DOM_strategy.GRPT_strategy_3.RES_JnWnY1" data-source-line="138" id="ent0027"><rect fill="#F5DEB3" height="37.7231" rx="2" ry="2" style="stroke:#8B6914;stroke-width:0.5;" width="281.4438" x="643.5" y="762.2969"/><path d="M656.8231,776.7276 L667.9,776.7276 L667.9,785.5892 L656.8231,785.5892" fill="#252327" style="stroke:none;stroke-width:0.5;"/><path d="M656.8231,778.7769 L667.9,778.7769 L667.9,780.2169 L656.8231,780.2169" fill="#252327"/><path d="M659.4262,776.7276 L659.4262,785.5892 L660.8662,785.5892 L660.8662,776.7276" fill="#252327"/><text fill="#000000" font-family="sans-serif" font-size="12" lengthAdjust="spacing" textLength="239.9063" x="675.0375" y="787.1899">Recursive Self-Model (ENG-ARCH-REPO)</text></g><!--entity RES_dz41en--><g class="entity" data-qualified-name="DOM_strategy.GRPT_strategy_3.RES_dz41en" data-source-line="139" id="ent0028"><rect fill="#F5DEB3" height="37.7231" rx="2" ry="2" style="stroke:#8B6914;stroke-width:0.5;" width="283.8871" x="985" y="762.2969"/><path d="M998.3231,776.7276 L1009.4,776.7276 L1009.4,785.5892 L998.3231,785.5892" fill="#252327" style="stroke:none;stroke-width:0.5;"/><path d="M998.3231,778.7769 L1009.4,778.7769 L1009.4,780.2169 L998.3231,780.2169" fill="#252327"/><path d="M1000.9262,776.7276 L1000.9262,785.5892 L1002.3662,785.5892 L1002.3662,776.7276" fill="#252327"/><text fill="#000000" font-family="sans-serif" font-size="12" lengthAdjust="spacing" textLength="242.3496" x="1016.5375" y="787.1899">Enterprise Architecture Knowledge Base</text></g><!--entity VS_VZ_P2h--><g class="entity" data-qualified-name="DOM_strategy.GRPT_strategy_4.VS_VZ_P2h" data-source-line="146" id="ent0033"><rect fill="#F5DEB3" height="37.7231" rx="2" ry="2" style="stroke:#8B6914;stroke-width:0.5;" width="280.0141" x="2125" y="762.2969"/><path d="M2137.7692,777.8353 L2145.5231,777.8353 L2148.2923,781.1584 L2145.5231,784.4815 L2137.7692,784.4815 L2139.9846,781.1584" fill="#252327" style="stroke:none;stroke-width:0.5;"/><text fill="#000000" font-family="sans-serif" font-size="12" lengthAdjust="spacing" textLength="238.4766" x="2156.5375" y="787.1899">Deliver an Architecture-Aligned Change</text></g><!--entity VS_fK25Bo--><g class="entity" data-qualified-name="DOM_strategy.GRPT_strategy_4.VS_fK25Bo" data-source-line="147" id="ent0034"><rect fill="#F5DEB3" height="37.7231" rx="2" ry="2" style="stroke:#8B6914;stroke-width:0.5;" width="193.143" x="1329.5" y="762.2969"/><path d="M1342.2692,777.8353 L1350.0231,777.8353 L1352.7923,781.1584 L1350.0231,784.4815 L1342.2692,784.4815 L1344.4846,781.1584" fill="#252327" style="stroke:none;stroke-width:0.5;"/><text fill="#000000" font-family="sans-serif" font-size="12" lengthAdjust="spacing" textLength="151.6055" x="1361.0375" y="787.1899">Assure a System Release</text></g><!--entity VS_klQ_6_--><g class="entity" data-qualified-name="DOM_strategy.GRPT_strategy_4.VS_klQ_6_" data-source-line="148" id="ent0035"><rect fill="#F5DEB3" height="37.7231" rx="2" ry="2" style="stroke:#8B6914;stroke-width:0.5;" width="155.1684" x="1909.5" y="762.2969"/><path d="M1922.2692,777.8353 L1930.0231,777.8353 L1932.7923,781.1584 L1930.0231,784.4815 L1922.2692,784.4815 L1924.4846,781.1584" fill="#252327" style="stroke:none;stroke-width:0.5;"/><text fill="#000000" font-family="sans-serif" font-size="12" lengthAdjust="spacing" textLength="113.6309" x="1941.0375" y="787.1899">Adopt the Platform</text></g><!--entity VS_vEQEgh--><g class="entity" data-qualified-name="DOM_strategy.GRPT_strategy_4.VS_vEQEgh" data-source-line="149" id="ent0036"><rect fill="#F5DEB3" height="37.7231" rx="2" ry="2" style="stroke:#8B6914;stroke-width:0.5;" width="267.3285" x="1582.5" y="762.2969"/><path d="M1595.2692,777.8353 L1603.0231,777.8353 L1605.7923,781.1584 L1603.0231,784.4815 L1595.2692,784.4815 L1597.4846,781.1584" fill="#252327" style="stroke:none;stroke-width:0.5;"/><text fill="#000000" font-family="sans-serif" font-size="12" lengthAdjust="spacing" textLength="225.791" x="1614.0375" y="787.1899">Grow Reusable Enterprise Knowledge</text></g><!--link OUT_LrpdG0 to OUT_Vhhne7--><!--link COA_F9mwVZ to COA_FI0Xbj--><!--link COA_FI0Xbj to COA_jckOJG--><!--link CAP_0kQIHh to CAP_Eb_x83--><!--link CAP_Eb_x83 to CAP_FMvdNM--><!--link CAP_FMvdNM to CAP_db4AQh--><!--link CAP_0kQIHh to CAP_pLMHKe--><!--link RES_0mpHI_ to RES_H7YRYJ--><!--link RES_H7YRYJ to RES_JnWnY1--><!--link RES_JnWnY1 to RES_dz41en--><!--link VS_VZ_P2h to VS_fK25Bo--><!--link VS_fK25Bo to VS_klQ_6_--><!--link VS_klQ_6_ to VS_vEQEgh--><!--reverse link CAP_pLMHKe to RES_JnWnY1--><g class="link" data-entity-1="ent0019" data-entity-2="ent0027" data-link-type="dependency" data-source-line="158" id="lnk41"><path d="M1181.97,670.2969 C1022.63,670.2969 784,670.2969 784,670.2969 C784,670.2969 784,730.4769 784,762.2169" fill="none" id="CAP_pLMHKe-backto-RES_JnWnY1" style="stroke:#181818;stroke-width:1;"/><polygon fill="#181818" points="1187.97,670.2969,1178.97,666.2969,1182.97,670.2969,1178.97,674.2969,1187.97,670.2969" style="stroke:#181818;stroke-width:1;"/></g><!--reverse link CAP_pLMHKe to RES_dz41en--><g class="link" data-entity-1="ent0019" data-entity-2="ent0028" data-link-type="dependency" data-source-line="159" id="lnk43"><path d="M1215,688.5169 C1215,710.4569 1215,740.1469 1215,762.0869" fill="none" id="CAP_pLMHKe-backto-RES_dz41en" style="stroke:#181818;stroke-width:1;"/><polygon fill="#181818" points="1215,682.5169,1211,691.5169,1215,687.5169,1219,691.5169,1215,682.5169" style="stroke:#181818;stroke-width:1;"/></g><!--reverse link COA_FI0Xbj to CAP_pLMHKe--><g class="link" data-entity-1="ent0010" data-entity-2="ent0019" data-link-type="extension" data-source-line="160" id="lnk45"><path d="M931.84,427.2969 C960.74,427.2969 964.83,427.2969 964.83,427.2969 C964.83,427.2969 964.83,657.2969 964.83,657.2969 C964.83,657.2969 1086.64,657.2969 1187.99,657.2969" fill="none" id="COA_FI0Xbj-backto-CAP_pLMHKe" style="stroke:#181818;stroke-width:1;stroke-dasharray:7,7;"/><polygon fill="none" points="913.84,427.2969,931.84,433.2969,931.84,421.2969,913.84,427.2969" style="stroke:#181818;stroke-width:1;"/></g><!--link CAP_pLMHKe to VS_klQ_6_--><g class="link" data-entity-1="ent0019" data-entity-2="ent0035" data-link-type="dependency" data-source-line="161" id="lnk46"><path d="M1456.17,670.2969 C1650.43,670.2969 1987,670.2969 1987,670.2969 C1987,670.2969 1987,724.4769 1987,756.2169" fill="none" id="CAP_pLMHKe-to-VS_klQ_6_" style="stroke:#181818;stroke-width:1;"/><polygon fill="#181818" points="1987,762.2169,1991,753.2169,1987,757.2169,1983,753.2169,1987,762.2169" style="stroke:#181818;stroke-width:1;"/></g><!--link COA_F9mwVZ to CAP_db4AQh--><g class="link" data-entity-1="ent0009" data-entity-2="ent0018" data-link-type="dependency" data-source-line="162" id="lnk47"><path d="M1148,446.5169 C1148,468.4569 1148,498.1469 1148,520.0869" fill="none" id="COA_F9mwVZ-to-CAP_db4AQh" style="stroke:#181818;stroke-width:1;"/><polygon fill="#181818" points="1148,526.0869,1152,517.0869,1148,521.0869,1144,517.0869,1148,526.0869" style="stroke:#181818;stroke-width:1;"/></g><!--reverse link CAP_db4AQh to RES_H7YRYJ--><g class="link" data-entity-1="ent0018" data-entity-2="ent0026" data-link-type="dependency" data-source-line="163" id="lnk49"><path d="M1097.5,570.4769 C1097.5,592.1069 1097.5,618.2969 1097.5,618.2969 C1097.5,618.2969 544,618.2969 544,618.2969 C544,618.2969 544,719.2869 544,762.2769" fill="none" id="CAP_db4AQh-backto-RES_H7YRYJ" style="stroke:#181818;stroke-width:1;"/><polygon fill="#181818" points="1097.5,564.4769,1093.5,573.4769,1097.5,569.4769,1101.5,573.4769,1097.5,564.4769" style="stroke:#181818;stroke-width:1;"/></g><!--link CAP_db4AQh to VS_VZ_P2h--><g class="link" data-entity-1="ent0018" data-entity-2="ent0033" data-link-type="dependency" data-source-line="164" id="lnk50"><path d="M1238.5,564.5369 C1238.5,577.1469 1238.5,591.2969 1238.5,591.2969 C1238.5,591.2969 2335,591.2969 2335,591.2969 C2335,591.2969 2335,707.7269 2335,756.0369" fill="none" id="CAP_db4AQh-to-VS_VZ_P2h" style="stroke:#181818;stroke-width:1;"/><polygon fill="#181818" points="2335,762.0369,2339,753.0369,2335,757.0369,2331,753.0369,2335,762.0369" style="stroke:#181818;stroke-width:1;"/></g><!--reverse link CAP_FMvdNM to RES_dz41en--><g class="link" data-entity-1="ent0017" data-entity-2="ent0028" data-link-type="dependency" data-source-line="165" id="lnk52"><path d="M1472.62,570.3569 C1472.62,614.5569 1472.62,714.2969 1472.62,714.2969 C1472.62,714.2969 1242,714.2969 1242,714.2969 C1242,714.2969 1242,742.4669 1242,762.2769" fill="none" id="CAP_FMvdNM-backto-RES_dz41en" style="stroke:#181818;stroke-width:1;"/><polygon fill="#181818" points="1472.62,564.3569,1468.62,573.3569,1472.62,569.3569,1476.62,573.3569,1472.62,564.3569" style="stroke:#181818;stroke-width:1;"/></g><!--link CAP_FMvdNM to VS_vEQEgh--><g class="link" data-entity-1="ent0017" data-entity-2="ent0036" data-link-type="dependency" data-source-line="166" id="lnk53"><path d="M1575.08,545.2969 C1594.6,545.2969 1608.75,545.2969 1608.75,545.2969 C1608.75,545.2969 1608.75,699.6169 1608.75,755.9869" fill="none" id="CAP_FMvdNM-to-VS_vEQEgh" style="stroke:#181818;stroke-width:1;"/><polygon fill="#181818" points="1608.75,761.9869,1612.75,752.9869,1608.75,756.9869,1604.75,752.9869,1608.75,761.9869" style="stroke:#181818;stroke-width:1;"/></g><!--reverse link CAP_Eb_x83 to RES_0mpHI_--><g class="link" data-entity-1="ent0016" data-entity-2="ent0025" data-link-type="dependency" data-source-line="167" id="lnk55"><path d="M583.12,545.2969 C400.93,545.2969 151,545.2969 151,545.2969 C151,545.2969 151,705.6169 151,761.9869" fill="none" id="CAP_Eb_x83-backto-RES_0mpHI_" style="stroke:#181818;stroke-width:1;"/><polygon fill="#181818" points="589.12,545.2969,580.12,541.2969,584.12,545.2969,580.12,549.2969,589.12,545.2969" style="stroke:#181818;stroke-width:1;"/></g><!--reverse link CAP_Eb_x83 to RES_H7YRYJ--><g class="link" data-entity-1="ent0016" data-entity-2="ent0026" data-link-type="dependency" data-source-line="168" id="lnk57"><path d="M616.5,570.5069 C616.5,625.7869 616.5,775.2969 616.5,775.2969 C616.5,775.2969 602.69,775.2969 583.01,775.2969" fill="none" id="CAP_Eb_x83-backto-RES_H7YRYJ" style="stroke:#181818;stroke-width:1;"/><polygon fill="#181818" points="616.5,564.5069,612.5,573.5069,616.5,569.5069,620.5,573.5069,616.5,564.5069" style="stroke:#181818;stroke-width:1;"/></g><!--reverse link COA_FI0Xbj to CAP_Eb_x83--><g class="link" data-entity-1="ent0010" data-entity-2="ent0016" data-link-type="extension" data-source-line="169" id="lnk59"><path d="M735.5,464.5169 C735.5,486.4569 735.5,504.1469 735.5,526.0869" fill="none" id="COA_FI0Xbj-backto-CAP_Eb_x83" style="stroke:#181818;stroke-width:1;stroke-dasharray:7,7;"/><polygon fill="none" points="735.5,446.5169,729.5,464.5169,741.5,464.5169,735.5,446.5169" style="stroke:#181818;stroke-width:1;"/></g><!--link CAP_Eb_x83 to VS_fK25Bo--><g class="link" data-entity-1="ent0016" data-entity-2="ent0034" data-link-type="dependency" data-source-line="170" id="lnk60"><path d="M935.5,564.3669 C935.5,605.3769 935.5,698.2969 935.5,698.2969 C935.5,698.2969 1392.75,698.2969 1392.75,698.2969 C1392.75,698.2969 1392.75,731.5269 1392.75,756.0469" fill="none" id="CAP_Eb_x83-to-VS_fK25Bo" style="stroke:#181818;stroke-width:1;"/><polygon fill="#181818" points="1392.75,762.0469,1396.75,753.0469,1392.75,757.0469,1388.75,753.0469,1392.75,762.0469" style="stroke:#181818;stroke-width:1;"/></g><!--link CAP_0kQIHh to VS_VZ_P2h--><g class="link" data-entity-1="ent0015" data-entity-2="ent0033" data-link-type="dependency" data-source-line="171" id="lnk61"><path d="M1897.05,545.2969 C2023.21,545.2969 2195,545.2969 2195,545.2969 C2195,545.2969 2195,699.6169 2195,755.9869" fill="none" id="CAP_0kQIHh-to-VS_VZ_P2h" style="stroke:#181818;stroke-width:1;"/><polygon fill="#181818" points="2195,761.9869,2199,752.9869,2195,756.9869,2191,752.9869,2195,761.9869" style="stroke:#181818;stroke-width:1;"/></g><!--link COA_jckOJG to VS_klQ_6_--><g class="link" data-entity-1="ent0011" data-entity-2="ent0035" data-link-type="dependency" data-source-line="172" id="lnk62"><path d="M1683.52,427.2969 C1828.43,427.2969 2025.75,427.2969 2025.75,427.2969 C2025.75,427.2969 2025.75,682.7369 2025.75,756.2669" fill="none" id="COA_jckOJG-to-VS_klQ_6_" style="stroke:#181818;stroke-width:1;"/><polygon fill="#181818" points="2025.75,762.2669,2029.75,753.2669,2025.75,757.2669,2021.75,753.2669,2025.75,762.2669" style="stroke:#181818;stroke-width:1;"/></g><!--reverse link COA_FI0Xbj to RES_JnWnY1--><g class="link" data-entity-1="ent0010" data-entity-2="ent0027" data-link-type="dependency" data-source-line="173" id="lnk64"><path d="M919.59,437.2969 C943.86,437.2969 955.67,437.2969 955.67,437.2969 C955.67,437.2969 955.67,775.2969 955.67,775.2969 C955.67,775.2969 943.01,775.2969 924.58,775.2969" fill="none" id="COA_FI0Xbj-backto-RES_JnWnY1" style="stroke:#181818;stroke-width:1;"/><polygon fill="#181818" points="913.59,437.2969,922.59,441.2969,918.59,437.2969,922.59,433.2969,913.59,437.2969" style="stroke:#181818;stroke-width:1;"/></g><!--reverse link OUT_LrpdG0 to COA_FI0Xbj--><g class="link" data-entity-1="ent0004" data-entity-2="ent0010" data-link-type="dependency" data-source-line="174" id="lnk66"><path d="M820.75,160.4569 C820.75,213.3669 820.75,355.0769 820.75,408.0669" fill="none" id="OUT_LrpdG0-backto-COA_FI0Xbj" style="stroke:#181818;stroke-width:1;stroke-dasharray:7,7;"/><polygon fill="#181818" points="820.75,154.4569,816.75,163.4569,820.75,159.4569,824.75,163.4569,820.75,154.4569" style="stroke:#181818;stroke-width:1;"/></g><!--reverse link OUT_Vhhne7 to COA_FI0Xbj--><g class="link" data-entity-1="ent0005" data-entity-2="ent0010" data-link-type="extension" data-source-line="175" id="lnk68"><path d="M728.75,290.5869 C728.75,324.1169 728.75,374.7769 728.75,408.1869" fill="none" id="OUT_Vhhne7-backto-COA_FI0Xbj" style="stroke:#181818;stroke-width:1;stroke-dasharray:7,7;"/><polygon fill="none" points="728.75,272.5869,722.75,290.5869,734.75,290.5869,728.75,272.5869" style="stroke:#181818;stroke-width:1;"/></g><?plantuml-src xLXjSzeu4FxEhz3Hcrux4pl6lDyap924bxGG4cXprxkvyIYsm6wCv94DbBJzxxSonXR19e7cOoO9iINjY_PvjBl2TYo2_81mmeAbHt8v_zwX7kPuYYmonZCtQ3CQNE4fGIDC_H7XpZXzpSXv8AYWIvE-ZIssSEW4ZR7h4sc6incrJCOfuQWaZTzXytuIJfupbt7qfjqKFx9NhaE9y1Gn7jXCcg3C8ZxnK4MJ3M5wBmPhMkuty1LaqP2unYVkJ2Qm5JfvD-PiUeG2TeHSV4VSzqWC84LfmDY6p91Wrtd0WSDeXf2g_jWbPNpszX24IC_tyg_f-ynqTlcdA3jaZ1uP1mS93fs9lOUaQHBVpmp4rhOkwTYT4MgItI8IvCGCC9suvEIapm9d7ZhP0L9v4Cv60ttF8NIsnRDggzMkYnd6BSAZqUfPiLrlvdwcQny570TaidnITxEjNMpfhfrLweLIbcuJU_ZESPrWcQcrVD4wA-wfbSsuJmmsDh0felAIkjaiCDcKPAbiNLnKsjf-0UR41uTDyf9kpZ6moV03Jl3qGBtsQyfyJPclAVCrPRwcp6VhzRWJ4FGxvgRjJ842He8MEl7d4_HjwbB_D6y7WVVdyV5YiL0NHPNnoR6kQTenhCYZkKCMP-pRQLv36YfKu3VVEF5mO2FhDDylgWKOBQXwsQwhDMrUK8jQLmm-vD7OSTtJ_1kzh1VrQlvOaYgfcePgiDukg7LjBjPtnTXEeGgiHvLOg2o4nEjEeRfQqL19hKP2LLNNkc8iJKZijv4Mj4Ta_BNGcGutNO9C62veQZMFpELflgoMyeYVvlKyYloYZ98yr3lExadYPJIWB1mhi461MXIExrGftZUt6cjTsKZNAI5S0Szr-EpfQhKamAwMUbMrL49LLIlrQcgn0a_roXFWQI5uvHKE8KqgJo4EQ9L1TLcihmi4YzgjUDq7lEYqlnXcLH5M4T-QMWdZMu9u_I9eMpfrzJ0Yn9436XHg4EzwiLTNIpeggxLg3q0iwmZmXCUYgjV4kIZk103Kw1eICDZw2WQ0BHnC4zkr8xL-40kpK5qdt9VAOgXa5xHvhIl2iTFFpPC1d2w7dDRWSPtxdY1rMIsMaKXsynfyh4YTbVkojY_NXXSA0U2BodRL5V-BIlXfA_2gF2SaApzpWHC0_kjk0mtceZCaYrmkBciedtGwUPJHzs0VNGpwnZIU2ukVf6EmEjF-BWsTuVKdIOLH29Lig3dPJXFVVHExv1JgsSy6kgGc1DWd5cgATG58pZXsqJcpuHO2ZHx2r89Li5a0Q2cyINeBS67m-PFHuvxLqVQr34qhM18McXIxIz_nqMZ6nnWQKjI7suChhYeTxFcfDczjcv8gsFm9VuaJIFaNxb0MeV_1NOSgybBe5MICrWWAxIczOuIFlyRv4JhdORb4Wp5gXkNIprOJWhJMynH4ZylmHiGwCySI0LFQ3lU38zHpJ49zeeo8QAm2mB1Fu1Pc0NY05ms4JobD9lXqFcWQxVfqSVlFmSvSiCcOWQsvWr5WYzk12QkTEPmDuewL4C4d7BZK_hxxUhW3P4vSvg5hBkXFtEMHkA48BeSSyGX5ep1_xlRYgta_-D29Y9J49I4I5nSgPTFZv2LrNQJp4MNMRQb3diqM_Gcsn9tkvibAJh9qkDwYMyUVnVVVC2holKR4etbjQFStbrtx0Akh717IS8J7900yHe8JeWz_2vISUgwpEkxhWv_bGklE-5Oh7k329mTobeK-KhPmYJKXgCCWFTDTjjhzkNNLFoJ84pXXoXN44YY_4N6ueS2LcF6TORRkIiqR-rV1JNRQnnHFo7HzwbCiUhr-zoDP4pr6Ufl0CWB9I-gwE7h9I-gwUBTfTbUPMd9nyzmCepResOUckFlGhDkgZ6AKXFGCKecmALrymTQmDJAqgTUzDFOs4kR4iAozNMVgTKe7qd1lvgURwrQ_3BzysDjSMaP6xrfN7QKvFEygmzRru7swmG_qB_gbiBV15cG03dsSJx9OcXrIww5K83HYPnBZBJPjn2DvILqNRoDvILqNsTwatQreFqMV1-tdiwbNsaqzkQLzLCjSm8b3hxKHEQNfEXCA6UtS1crXv1vzOm8Ut8wCst-CQzq-o798VAYOQBJq0p9Tbz1CK-EFUlcC7MRAObuGzWhNBWx6Z4yphToxDqR5ECWAmBE0NSnyV0So4YLZ5cPQdRTkMXCxuc0SrYtAo568dzDMnRk8dzDMHLP5U_g7wDmeMNMKEPcrCqzfo2aoeUtsNFA8r9adlioMUXTfKWaJRqFoL6v_eaafUykdBROPpIMFijg8bwdEHgL3BXo9O1GJEG_4Wb5jIlKccfEgLde4rYKjiHWXAjUdhNqahLrAxBRHaamcxQBmfo7VcXxD_MZ8TvR_0G00?></g></svg>