<svg xmlns="http://www.w3.org/2000/svg" xmlns:xlink="http://www.w3.org/1999/xlink" contentStyleType="text/css" data-diagram-type="DESCRIPTION" height="1563px" preserveAspectRatio="none" style="width:2281px;height:1563px;background:#FAFAFA;" version="1.1" viewBox="0 0 2281 1563" width="2281px" zoomAndPan="magnify"><?plantuml 1.2026.3?><defs/><g><rect fill="#FAFAFA" height="1563" style="stroke:none;stroke-width:1;" width="2281" x="0" y="0"/><g class="title" data-source-line="146"><text fill="#000000" font-family="sans-serif" font-size="14" font-weight="700" lengthAdjust="spacing" textLength="383.8174" x="945.0913" y="22.9951">Motivation Chain: From Drivers to Requirements</text></g><!--cluster Drivers--><g class="cluster" data-qualified-name="Drivers" data-source-line="148" id="ent0002"><rect fill="#F7EEF9" height="86" rx="2" ry="2" style="stroke:#7B3F9A;stroke-width:1;" width="1786" x="481" y="44.2969"/><text fill="#000000" font-family="sans-serif" font-size="12" font-weight="700" lengthAdjust="spacing" textLength="49.0137" x="1349.4932" y="57.4355">Drivers</text></g><!--cluster Assessments--><g class="cluster" data-qualified-name="Assessments" data-source-line="158" id="ent0010"><rect fill="#F7EEF9" height="440" rx="2" ry="2" style="stroke:#7B3F9A;stroke-width:1;" width="580" x="870" y="162.2969"/><text fill="#000000" font-family="sans-serif" font-size="12" font-weight="700" lengthAdjust="spacing" textLength="88.0605" x="1115.9697" y="175.4355">Assessments</text></g><!--cluster Goals--><g class="cluster" data-qualified-name="Goals" data-source-line="168" id="ent0018"><rect fill="#F7EEF9" height="204" rx="2" ry="2" style="stroke:#7B3F9A;stroke-width:1;" width="1328" x="457" y="634.2969"/><text fill="#000000" font-family="sans-serif" font-size="12" font-weight="700" lengthAdjust="spacing" textLength="37.4473" x="1102.2764" y="647.4355">Goals</text></g><!--cluster Outcomes--><g class="cluster" data-qualified-name="Outcomes" data-source-line="178" id="ent0026"><rect fill="#F7EEF9" height="558" rx="2" ry="2" style="stroke:#7B3F9A;stroke-width:1;" width="494" x="1003" y="870.2969"/><text fill="#000000" font-family="sans-serif" font-size="12" font-weight="700" lengthAdjust="spacing" textLength="67.623" x="1216.1885" y="883.4355">Outcomes</text></g><!--cluster Requirements--><g class="cluster" data-qualified-name="Requirements" data-source-line="190" id="ent0036"><rect fill="#F7EEF9" height="86" rx="2" ry="2" style="stroke:#7B3F9A;stroke-width:1;" width="1367" x="7" y="1460.2969"/><text fill="#000000" font-family="sans-serif" font-size="12" font-weight="700" lengthAdjust="spacing" textLength="94.7461" x="643.127" y="1473.4355">Requirements</text></g><!--entity DRV_GR9prv--><g class="entity" data-qualified-name="Drivers.DRV_GR9prv" data-source-line="149" id="ent0003"><rect fill="#EDD6F0" height="37.7231" rx="2" ry="2" style="stroke:#7B3F9A;stroke-width:0.5;" width="463.7934" x="1787" y="76.2969"/><ellipse cx="1805.8615" cy="95.1584" fill="none" rx="5.0954" ry="5.0954" style="stroke:#252327;stroke-width:1.44;"/><ellipse cx="1805.8615" cy="95.1584" fill="none" rx="1.8831" ry="1.8831" style="stroke:#252327;stroke-width:1.44;"/><path d="M1805.1415,88.8446 L1805.1415,92.1676 L1806.5815,92.1676 L1806.5815,88.8446" fill="#252327"/><path d="M1805.1415,98.1492 L1805.1415,101.4723 L1806.5815,101.4723 L1806.5815,98.1492" fill="#252327"/><path d="M1799.5477,94.4384 L1802.8708,94.4384 L1802.8708,95.8784 L1799.5477,95.8784" fill="#252327"/><path d="M1808.8523,94.4384 L1812.1754,94.4384 L1812.1754,95.8784 L1808.8523,95.8784" fill="#252327"/><path d="M1800.9212,91.2372 L1801.9403,90.2181 L1804.2665,92.5443 L1803.2474,93.5633" fill="#252327"/><path d="M1807.4566,97.7726 L1808.4757,96.7535 L1810.8018,99.0796 L1809.7828,100.0987" fill="#252327"/><path d="M1809.7828,90.2181 L1810.8018,91.2372 L1808.4757,93.5633 L1807.4566,92.5443" fill="#252327"/><path d="M1803.2474,96.7535 L1804.2665,97.7726 L1801.9403,100.0987 L1800.9212,99.0796" fill="#252327"/><text fill="#000000" font-family="sans-serif" font-size="12" lengthAdjust="spacing" textLength="422.2559" x="1818.5375" y="101.1899">AI-Assisted and Agentic Development as a Dominant Production Mode</text></g><!--entity DRV_4NvckD--><g class="entity" data-qualified-name="Drivers.DRV_4NvckD" data-source-line="150" id="ent0004"><rect fill="#EDD6F0" height="37.7231" rx="2" ry="2" style="stroke:#7B3F9A;stroke-width:0.5;" width="377.684" x="883" y="76.2969"/><ellipse cx="901.8615" cy="95.1584" fill="none" rx="5.0954" ry="5.0954" style="stroke:#252327;stroke-width:1.44;"/><ellipse cx="901.8615" cy="95.1584" fill="none" rx="1.8831" ry="1.8831" style="stroke:#252327;stroke-width:1.44;"/><path d="M901.1415,88.8446 L901.1415,92.1676 L902.5815,92.1676 L902.5815,88.8446" fill="#252327"/><path d="M901.1415,98.1492 L901.1415,101.4723 L902.5815,101.4723 L902.5815,98.1492" fill="#252327"/><path d="M895.5477,94.4384 L898.8708,94.4384 L898.8708,95.8784 L895.5477,95.8784" fill="#252327"/><path d="M904.8523,94.4384 L908.1754,94.4384 L908.1754,95.8784 L904.8523,95.8784" fill="#252327"/><path d="M896.9212,91.2372 L897.9403,90.2181 L900.2665,92.5443 L899.2474,93.5633" fill="#252327"/><path d="M903.4566,97.7726 L904.4757,96.7535 L906.8018,99.0796 L905.7828,100.0987" fill="#252327"/><path d="M905.7828,90.2181 L906.8018,91.2372 L904.4757,93.5633 L903.4566,92.5443" fill="#252327"/><path d="M899.2474,96.7535 L900.2665,97.7726 L897.9403,100.0987 L896.9212,99.0796" fill="#252327"/><text fill="#000000" font-family="sans-serif" font-size="12" lengthAdjust="spacing" textLength="336.1465" x="914.5375" y="101.1899">Demand for Faster Product and Service Learning Cycles</text></g><!--entity DRV_Rt6Yu2--><g class="entity" data-qualified-name="Drivers.DRV_Rt6Yu2" data-source-line="151" id="ent0005"><rect fill="#EDD6F0" height="37.7231" rx="2" ry="2" style="stroke:#7B3F9A;stroke-width:0.5;" width="405.2055" x="1321.5" y="76.2969"/><ellipse cx="1340.3615" cy="95.1584" fill="none" rx="5.0954" ry="5.0954" style="stroke:#252327;stroke-width:1.44;"/><ellipse cx="1340.3615" cy="95.1584" fill="none" rx="1.8831" ry="1.8831" style="stroke:#252327;stroke-width:1.44;"/><path d="M1339.6415,88.8446 L1339.6415,92.1676 L1341.0815,92.1676 L1341.0815,88.8446" fill="#252327"/><path d="M1339.6415,98.1492 L1339.6415,101.4723 L1341.0815,101.4723 L1341.0815,98.1492" fill="#252327"/><path d="M1334.0477,94.4384 L1337.3708,94.4384 L1337.3708,95.8784 L1334.0477,95.8784" fill="#252327"/><path d="M1343.3523,94.4384 L1346.6754,94.4384 L1346.6754,95.8784 L1343.3523,95.8784" fill="#252327"/><path d="M1335.4212,91.2372 L1336.4403,90.2181 L1338.7665,92.5443 L1337.7474,93.5633" fill="#252327"/><path d="M1341.9566,97.7726 L1342.9757,96.7535 L1345.3018,99.0796 L1344.2828,100.0987" fill="#252327"/><path d="M1344.2828,90.2181 L1345.3018,91.2372 L1342.9757,93.5633 L1341.9566,92.5443" fill="#252327"/><path d="M1337.7474,96.7535 L1338.7665,97.7726 L1336.4403,100.0987 L1335.4212,99.0796" fill="#252327"/><text fill="#000000" font-family="sans-serif" font-size="12" lengthAdjust="spacing" textLength="363.668" x="1353.0375" y="101.1899">Increasing Demand for More Autonomy of Teams &amp; Systems</text></g><!--entity DRV_Ui5Op3--><g class="entity" data-qualified-name="Drivers.DRV_Ui5Op3" data-source-line="152" id="ent0006"><rect fill="#EDD6F0" height="37.7231" rx="2" ry="2" style="stroke:#7B3F9A;stroke-width:0.5;" width="326.35" x="497" y="76.2969"/><ellipse cx="515.8615" cy="95.1584" fill="none" rx="5.0954" ry="5.0954" style="stroke:#252327;stroke-width:1.44;"/><ellipse cx="515.8615" cy="95.1584" fill="none" rx="1.8831" ry="1.8831" style="stroke:#252327;stroke-width:1.44;"/><path d="M515.1415,88.8446 L515.1415,92.1676 L516.5815,92.1676 L516.5815,88.8446" fill="#252327"/><path d="M515.1415,98.1492 L515.1415,101.4723 L516.5815,101.4723 L516.5815,98.1492" fill="#252327"/><path d="M509.5477,94.4384 L512.8708,94.4384 L512.8708,95.8784 L509.5477,95.8784" fill="#252327"/><path d="M518.8523,94.4384 L522.1754,94.4384 L522.1754,95.8784 L518.8523,95.8784" fill="#252327"/><path d="M510.9212,91.2372 L511.9403,90.2181 L514.2665,92.5443 L513.2474,93.5633" fill="#252327"/><path d="M517.4566,97.7726 L518.4757,96.7535 L520.8018,99.0796 L519.7828,100.0987" fill="#252327"/><path d="M519.7828,90.2181 L520.8018,91.2372 L518.4757,93.5633 L517.4566,92.5443" fill="#252327"/><path d="M513.2474,96.7535 L514.2665,97.7726 L511.9403,100.0987 L510.9212,99.0796" fill="#252327"/><text fill="#000000" font-family="sans-serif" font-size="12" lengthAdjust="spacing" textLength="284.8125" x="528.5375" y="101.1899">Rising Software Complexity &amp; Interdependence</text></g><!--entity ASS_CK90bp--><g class="entity" data-qualified-name="Assessments.ASS_CK90bp" data-source-line="159" id="ent0011"><rect fill="#EDD6F0" height="37.7231" rx="2" ry="2" style="stroke:#7B3F9A;stroke-width:0.5;" width="372.0121" x="886" y="194.2969"/><path d="M898.7692,207.62 L910.9538,207.62 A1.1077,1.1077 0 0 1 912.0615,208.7276 L912.0615,215.3738 A1.1077,1.1077 0 0 1 910.9538,216.4815 L902.6462,216.4815 L900.4308,219.8046 L901.5385,216.4815 L898.7692,216.4815 A1.1077,1.1077 0 0 1 897.6615,215.3738 L897.6615,208.7276 A1.1077,1.1077 0 0 1 898.7692,207.62" fill="#252327" style="stroke:none;stroke-width:0.5;"/><text fill="#000000" font-family="sans-serif" font-size="12" lengthAdjust="spacing" textLength="330.4746" x="917.5375" y="219.1899">Autonomy at Agentic Velocity Threatens Unity of Effort</text></g><!--entity ASS_EI3FpR--><g class="entity" data-qualified-name="Assessments.ASS_EI3FpR" data-source-line="160" id="ent0012"><rect fill="#EDD6F0" height="37.7231" rx="2" ry="2" style="stroke:#7B3F9A;stroke-width:0.5;" width="547.6176" x="886" y="312.2969"/><path d="M898.7692,325.62 L910.9538,325.62 A1.1077,1.1077 0 0 1 912.0615,326.7276 L912.0615,333.3738 A1.1077,1.1077 0 0 1 910.9538,334.4815 L902.6462,334.4815 L900.4308,337.8046 L901.5385,334.4815 L898.7692,334.4815 A1.1077,1.1077 0 0 1 897.6615,333.3738 L897.6615,326.7276 A1.1077,1.1077 0 0 1 898.7692,325.62" fill="#252327" style="stroke:none;stroke-width:0.5;"/><text fill="#000000" font-family="sans-serif" font-size="12" lengthAdjust="spacing" textLength="506.0801" x="917.5375" y="337.1899">AI-Generated Change Volume Outpaces Architectural Planning and Review Capacity</text></g><!--entity ASS_s68vVo--><g class="entity" data-qualified-name="Assessments.ASS_s68vVo" data-source-line="161" id="ent0013"><rect fill="#EDD6F0" height="37.7231" rx="2" ry="2" style="stroke:#7B3F9A;stroke-width:0.5;" width="525.27" x="908.5" y="430.2969"/><path d="M921.2692,443.62 L933.4538,443.62 A1.1077,1.1077 0 0 1 934.5615,444.7276 L934.5615,451.3738 A1.1077,1.1077 0 0 1 933.4538,452.4815 L925.1462,452.4815 L922.9308,455.8046 L924.0385,452.4815 L921.2692,452.4815 A1.1077,1.1077 0 0 1 920.1615,451.3738 L920.1615,444.7276 A1.1077,1.1077 0 0 1 921.2692,443.62" fill="#252327" style="stroke:none;stroke-width:0.5;"/><text fill="#000000" font-family="sans-serif" font-size="12" lengthAdjust="spacing" textLength="483.7324" x="940.0375" y="455.1899">LLM-Based Agents Cannot Effectively Use Unstructured Architectural Knowledge</text></g><!--entity ASS_a6vxyj--><g class="entity" data-qualified-name="Assessments.ASS_a6vxyj" data-source-line="162" id="ent0014"><rect fill="#EDD6F0" height="37.7231" rx="2" ry="2" style="stroke:#7B3F9A;stroke-width:0.5;" width="386.145" x="1039" y="548.2969"/><path d="M1051.7692,561.62 L1063.9538,561.62 A1.1077,1.1077 0 0 1 1065.0615,562.7276 L1065.0615,569.3738 A1.1077,1.1077 0 0 1 1063.9538,570.4815 L1055.6462,570.4815 L1053.4308,573.8046 L1054.5385,570.4815 L1051.7692,570.4815 A1.1077,1.1077 0 0 1 1050.6615,569.3738 L1050.6615,562.7276 A1.1077,1.1077 0 0 1 1051.7692,561.62" fill="#252327" style="stroke:none;stroke-width:0.5;"/><text fill="#000000" font-family="sans-serif" font-size="12" lengthAdjust="spacing" textLength="344.6074" x="1070.5375" y="573.1899">Centralized Governance Cannot Scale at Agentic Velocity</text></g><!--entity GOL_FCfDuc--><g class="entity" data-qualified-name="Goals.GOL_FCfDuc" data-source-line="169" id="ent0019"><rect fill="#EDD6F0" height="37.7231" rx="2" ry="2" style="stroke:#7B3F9A;stroke-width:0.5;" width="290.52" x="1011.5" y="666.2969"/><ellipse cx="1030.3615" cy="685.1584" fill="none" rx="5.3169" ry="5.3169" style="stroke:#252327;stroke-width:1.44;"/><ellipse cx="1030.3615" cy="685.1584" fill="none" rx="3.2123" ry="3.2123" style="stroke:#252327;stroke-width:1.44;"/><ellipse cx="1030.3615" cy="685.1584" fill="#252327" rx="1.44" ry="1.44" style="stroke:none;stroke-width:1.44;"/><text fill="#000000" font-family="sans-serif" font-size="12" lengthAdjust="spacing" textLength="248.9824" x="1043.0375" y="691.1899">Sustain Unity of Effort at Agentic Velocity</text></g><!--entity GOL_5Fk9di--><g class="entity" data-qualified-name="Goals.GOL_5Fk9di" data-source-line="170" id="ent0020"><rect fill="#EDD6F0" height="37.7231" rx="2" ry="2" style="stroke:#7B3F9A;stroke-width:0.5;" width="430.061" x="473" y="784.2969"/><ellipse cx="491.8615" cy="803.1584" fill="none" rx="5.3169" ry="5.3169" style="stroke:#252327;stroke-width:1.44;"/><ellipse cx="491.8615" cy="803.1584" fill="none" rx="3.2123" ry="3.2123" style="stroke:#252327;stroke-width:1.44;"/><ellipse cx="491.8615" cy="803.1584" fill="#252327" rx="1.44" ry="1.44" style="stroke:none;stroke-width:1.44;"/><text fill="#000000" font-family="sans-serif" font-size="12" lengthAdjust="spacing" textLength="388.5234" x="504.5375" y="809.1899">Speed Up Architectural Planning &amp; Governance for Agentic Work</text></g><!--entity GOL_Xwvgpb--><g class="entity" data-qualified-name="Goals.GOL_Xwvgpb" data-source-line="171" id="ent0021"><rect fill="#EDD6F0" height="37.7231" rx="2" ry="2" style="stroke:#7B3F9A;stroke-width:0.5;" width="397.8285" x="1371" y="784.2969"/><ellipse cx="1389.8615" cy="803.1584" fill="none" rx="5.3169" ry="5.3169" style="stroke:#252327;stroke-width:1.44;"/><ellipse cx="1389.8615" cy="803.1584" fill="none" rx="3.2123" ry="3.2123" style="stroke:#252327;stroke-width:1.44;"/><ellipse cx="1389.8615" cy="803.1584" fill="#252327" rx="1.44" ry="1.44" style="stroke:none;stroke-width:1.44;"/><text fill="#000000" font-family="sans-serif" font-size="12" lengthAdjust="spacing" textLength="356.291" x="1402.5375" y="809.1899">Enable Fast Feedback from Implementation to Architecture</text></g><!--entity GOL_Po1Qw3--><g class="entity" data-qualified-name="Goals.GOL_Po1Qw3" data-source-line="172" id="ent0022"><rect fill="#EDD6F0" height="37.7231" rx="2" ry="2" style="stroke:#7B3F9A;stroke-width:0.5;" width="348.0649" x="963" y="784.2969"/><ellipse cx="981.8615" cy="803.1584" fill="none" rx="5.3169" ry="5.3169" style="stroke:#252327;stroke-width:1.44;"/><ellipse cx="981.8615" cy="803.1584" fill="none" rx="3.2123" ry="3.2123" style="stroke:#252327;stroke-width:1.44;"/><ellipse cx="981.8615" cy="803.1584" fill="#252327" rx="1.44" ry="1.44" style="stroke:none;stroke-width:1.44;"/><text fill="#000000" font-family="sans-serif" font-size="12" lengthAdjust="spacing" textLength="306.5273" x="994.5375" y="809.1899">Maintain a Coherent, Traceable Architecture Model</text></g><!--entity OUT_AlZjX8--><g class="entity" data-qualified-name="Outcomes.OUT_AlZjX8" data-source-line="179" id="ent0027"><rect fill="#EDD6F0" height="37.7231" rx="2" ry="2" style="stroke:#7B3F9A;stroke-width:0.5;" width="301.811" x="1059" y="902.2969"/><ellipse cx="1077.1969" cy="921.823" fill="none" rx="4.7631" ry="4.7631" style="stroke:#252327;stroke-width:1.44;"/><ellipse cx="1077.1969" cy="921.823" fill="none" rx="2.4369" ry="2.4369" style="stroke:#252327;stroke-width:1.44;"/><path d="M1080.2763,919.9732 L1079.4345,918.799 L1082.8683,916.3621 L1083.7102,917.5363" fill="#252327"/><path d="M1080.2985,920.3276 L1083.0677,920.3276 L1083.0677,921.7676 L1080.2985,921.7676" fill="#252327"/><ellipse cx="1077.1969" cy="921.823" fill="#252327" rx="0.9969" ry="0.9969" style="stroke:none;stroke-width:1.44;"/><text fill="#000000" font-family="sans-serif" font-size="12" lengthAdjust="spacing" textLength="260.2734" x="1090.5375" y="927.1899">Reduced Planning &amp; Governance Overhead</text></g><!--entity OUT_JZMIk3--><g class="entity" data-qualified-name="Outcomes.OUT_JZMIk3" data-source-line="180" id="ent0028"><rect fill="#EDD6F0" height="37.7231" rx="2" ry="2" style="stroke:#7B3F9A;stroke-width:0.5;" width="461.4789" x="1019.5" y="1020.2969"/><ellipse cx="1037.6969" cy="1039.823" fill="none" rx="4.7631" ry="4.7631" style="stroke:#252327;stroke-width:1.44;"/><ellipse cx="1037.6969" cy="1039.823" fill="none" rx="2.4369" ry="2.4369" style="stroke:#252327;stroke-width:1.44;"/><path d="M1040.7763,1037.9732 L1039.9345,1036.799 L1043.3683,1034.3621 L1044.2102,1035.5363" fill="#252327"/><path d="M1040.7985,1038.3276 L1043.5677,1038.3276 L1043.5677,1039.7676 L1040.7985,1039.7676" fill="#252327"/><ellipse cx="1037.6969" cy="1039.823" fill="#252327" rx="0.9969" ry="0.9969" style="stroke:none;stroke-width:1.44;"/><text fill="#000000" font-family="sans-serif" font-size="12" lengthAdjust="spacing" textLength="419.9414" x="1051.0375" y="1045.1899">AI Agents Efficiently Discover and Safely Author Architecture Artifacts</text></g><!--entity OUT_g7PM4Y--><g class="entity" data-qualified-name="Outcomes.OUT_g7PM4Y" data-source-line="181" id="ent0029"><rect fill="#EDD6F0" height="37.7231" rx="2" ry="2" style="stroke:#7B3F9A;stroke-width:0.5;" width="392.7133" x="1053.5" y="1138.2969"/><ellipse cx="1071.6969" cy="1157.823" fill="none" rx="4.7631" ry="4.7631" style="stroke:#252327;stroke-width:1.44;"/><ellipse cx="1071.6969" cy="1157.823" fill="none" rx="2.4369" ry="2.4369" style="stroke:#252327;stroke-width:1.44;"/><path d="M1074.7763,1155.9732 L1073.9345,1154.799 L1077.3683,1152.3621 L1078.2102,1153.5363" fill="#252327"/><path d="M1074.7985,1156.3276 L1077.5677,1156.3276 L1077.5677,1157.7676 L1074.7985,1157.7676" fill="#252327"/><ellipse cx="1071.6969" cy="1157.823" fill="#252327" rx="0.9969" ry="0.9969" style="stroke:none;stroke-width:1.44;"/><text fill="#000000" font-family="sans-serif" font-size="12" lengthAdjust="spacing" textLength="351.1758" x="1085.0375" y="1163.1899">Implementation Changes Fed Back, Reviewed &amp; Promoted</text></g><!--entity OUT_aOcRl9--><g class="entity" data-qualified-name="Outcomes.OUT_aOcRl9" data-source-line="182" id="ent0030"><rect fill="#EDD6F0" height="37.7231" rx="2" ry="2" style="stroke:#7B3F9A;stroke-width:0.5;" width="427.7055" x="1053" y="1256.2969"/><ellipse cx="1071.1969" cy="1275.823" fill="none" rx="4.7631" ry="4.7631" style="stroke:#252327;stroke-width:1.44;"/><ellipse cx="1071.1969" cy="1275.823" fill="none" rx="2.4369" ry="2.4369" style="stroke:#252327;stroke-width:1.44;"/><path d="M1074.2763,1273.9732 L1073.4345,1272.799 L1076.8683,1270.3621 L1077.7102,1271.5363" fill="#252327"/><path d="M1074.2985,1274.3276 L1077.0677,1274.3276 L1077.0677,1275.7676 L1074.2985,1275.7676" fill="#252327"/><ellipse cx="1071.1969" cy="1275.823" fill="#252327" rx="0.9969" ry="0.9969" style="stroke:none;stroke-width:1.44;"/><text fill="#000000" font-family="sans-serif" font-size="12" lengthAdjust="spacing" textLength="386.168" x="1084.5375" y="1281.1899">Governance Scales Without Proportional Coordination Overhead</text></g><!--entity OUT_LrpdG0--><g class="entity" data-qualified-name="Outcomes.OUT_LrpdG0" data-source-line="183" id="ent0031"><rect fill="#EDD6F0" height="37.7231" rx="2" ry="2" style="stroke:#7B3F9A;stroke-width:0.5;" width="330.8676" x="1077.5" y="1374.2969"/><ellipse cx="1095.6969" cy="1393.823" fill="none" rx="4.7631" ry="4.7631" style="stroke:#252327;stroke-width:1.44;"/><ellipse cx="1095.6969" cy="1393.823" fill="none" rx="2.4369" ry="2.4369" style="stroke:#252327;stroke-width:1.44;"/><path d="M1098.7763,1391.9732 L1097.9345,1390.799 L1101.3683,1388.3621 L1102.2102,1389.5363" fill="#252327"/><path d="M1098.7985,1392.3276 L1101.5677,1392.3276 L1101.5677,1393.7676 L1098.7985,1393.7676" fill="#252327"/><ellipse cx="1095.6969" cy="1393.823" fill="#252327" rx="0.9969" ry="0.9969" style="stroke:none;stroke-width:1.44;"/><text fill="#000000" font-family="sans-serif" font-size="12" lengthAdjust="spacing" textLength="289.3301" x="1109.0375" y="1399.1899">Increased Architectural Coherence and Integrity</text></g><!--entity REQ_peinbQ--><g class="entity" data-qualified-name="Requirements.REQ_peinbQ" data-source-line="191" id="ent0037"><rect fill="#EDD6F0" height="37.7231" rx="2" ry="2" style="stroke:#7B3F9A;stroke-width:0.5;" width="229.2309" x="1128.5" y="1492.2969"/><path d="M1143.3738,1506.9492 L1152.2354,1506.9492 L1150.4631,1515.3676 L1141.6015,1515.3676" fill="#252327" style="stroke:none;stroke-width:0.5;"/><text fill="#000000" font-family="sans-serif" font-size="12" lengthAdjust="spacing" textLength="187.6934" x="1160.0375" y="1517.1899">Tool Interfaces: MCP, CLI, REST</text></g><!--entity REQ_m117_R--><g class="entity" data-qualified-name="Requirements.REQ_m117_R" data-source-line="192" id="ent0038"><rect fill="#EDD6F0" height="37.7231" rx="2" ry="2" style="stroke:#7B3F9A;stroke-width:0.5;" width="207.1821" x="281.5" y="1492.2969"/><path d="M296.3738,1506.9492 L305.2354,1506.9492 L303.4631,1515.3676 L294.6015,1515.3676" fill="#252327" style="stroke:none;stroke-width:0.5;"/><text fill="#000000" font-family="sans-serif" font-size="12" lengthAdjust="spacing" textLength="165.6445" x="313.0375" y="1517.1899">Write Access Only via Tools</text></g><!--entity REQ_Cc2Dd2--><g class="entity" data-qualified-name="Requirements.REQ_Cc2Dd2" data-source-line="193" id="ent0039"><rect fill="#EDD6F0" height="37.7231" rx="2" ry="2" style="stroke:#7B3F9A;stroke-width:0.5;" width="198.9672" x="869.5" y="1492.2969"/><path d="M884.3738,1506.9492 L893.2354,1506.9492 L891.4631,1515.3676 L882.6015,1515.3676" fill="#252327" style="stroke:none;stroke-width:0.5;"/><text fill="#000000" font-family="sans-serif" font-size="12" lengthAdjust="spacing" textLength="157.4297" x="901.0375" y="1517.1899">Semantic Full-Text Search</text></g><!--entity REQ_eBAa26--><g class="entity" data-qualified-name="Requirements.REQ_eBAa26" data-source-line="194" id="ent0040"><rect fill="#EDD6F0" height="37.7231" rx="2" ry="2" style="stroke:#7B3F9A;stroke-width:0.5;" width="260.6313" x="548.5" y="1492.2969"/><path d="M563.3738,1506.9492 L572.2354,1506.9492 L570.4631,1515.3676 L561.6015,1515.3676" fill="#252327" style="stroke:none;stroke-width:0.5;"/><text fill="#000000" font-family="sans-serif" font-size="12" lengthAdjust="spacing" textLength="219.0938" x="580.0375" y="1517.1899">Graph-Based Relationship Discovery</text></g><!--entity REQ_s5B3gB--><g class="entity" data-qualified-name="Requirements.REQ_s5B3gB" data-source-line="195" id="ent0041"><rect fill="#EDD6F0" height="37.7231" rx="2" ry="2" style="stroke:#7B3F9A;stroke-width:0.5;" width="198.3696" x="23" y="1492.2969"/><path d="M37.8738,1506.9492 L46.7354,1506.9492 L44.9631,1515.3676 L36.1015,1515.3676" fill="#252327" style="stroke:none;stroke-width:0.5;"/><text fill="#000000" font-family="sans-serif" font-size="12" lengthAdjust="spacing" textLength="156.832" x="54.5375" y="1517.1899">Metadata-Based Querying</text></g><!--link DRV_GR9prv to DRV_4NvckD--><!--link DRV_4NvckD to DRV_Rt6Yu2--><!--link DRV_Rt6Yu2 to DRV_Ui5Op3--><!--link ASS_CK90bp to ASS_EI3FpR--><!--link ASS_EI3FpR to ASS_s68vVo--><!--link ASS_s68vVo to ASS_a6vxyj--><!--link GOL_FCfDuc to GOL_5Fk9di--><!--link GOL_FCfDuc to GOL_5Fk9di--><g class="link" data-entity-1="ent0019" data-entity-2="ent0020" data-link-type="association" data-source-line="224" id="lnk65"><path d="M1011.32,689.2969 C953.36,689.2969 900.17,689.2969 900.17,689.2969 C900.17,689.2969 900.17,751.7669 900.17,784.2169" fill="none" id="GOL_FCfDuc-GOL_5Fk9di-1" style="stroke:#181818;stroke-width:1;"/></g><!--link GOL_5Fk9di to GOL_Xwvgpb--><!--link GOL_Xwvgpb to GOL_Po1Qw3--><!--link OUT_AlZjX8 to OUT_JZMIk3--><!--link OUT_JZMIk3 to OUT_g7PM4Y--><!--link OUT_g7PM4Y to OUT_aOcRl9--><!--link OUT_aOcRl9 to OUT_LrpdG0--><!--link REQ_peinbQ to REQ_m117_R--><!--link REQ_m117_R to REQ_Cc2Dd2--><!--link REQ_Cc2Dd2 to REQ_eBAa26--><!--link REQ_eBAa26 to REQ_s5B3gB--><!--link DRV_Ui5Op3 to ASS_CK90bp--><!--link DRV_Ui5Op3 to ASS_CK90bp--><g class="link" data-entity-1="ent0006" data-entity-2="ent0011" data-link-type="dependency" data-source-line="210" id="lnk53"><path d="M660,114.5169 C660,147.9569 660,213.2969 660,213.2969 C660,213.2969 770.71,213.2969 879.89,213.2969" fill="none" id="DRV_Ui5Op3-to-ASS_CK90bp" style="stroke:#181818;stroke-width:1;stroke-dasharray:7,7;"/><polygon fill="#181818" points="885.89,213.2969,876.89,209.2969,880.89,213.2969,876.89,217.2969,885.89,213.2969" style="stroke:#181818;stroke-width:1;"/></g><!--link ASS_a6vxyj to GOL_FCfDuc--><!--link ASS_a6vxyj to GOL_FCfDuc--><g class="link" data-entity-1="ent0014" data-entity-2="ent0019" data-link-type="dependency" data-source-line="222" id="lnk64"><path d="M1214.67,586.5169 C1214.67,608.4569 1214.67,638.1469 1214.67,660.0869" fill="none" id="ASS_a6vxyj-to-GOL_FCfDuc" style="stroke:#181818;stroke-width:1;stroke-dasharray:7,7;"/><polygon fill="#181818" points="1214.67,666.0869,1218.67,657.0869,1214.67,661.0869,1210.67,657.0869,1214.67,666.0869" style="stroke:#181818;stroke-width:1;"/></g><!--link GOL_Po1Qw3 to OUT_AlZjX8--><!--link OUT_LrpdG0 to REQ_peinbQ--><!--link DRV_GR9prv to ASS_CK90bp--><g class="link" data-entity-1="ent0003" data-entity-2="ent0011" data-link-type="dependency" data-source-line="207" id="lnk50"><path d="M1879.8,114.5569 C1879.8,149.6169 1879.8,220.2969 1879.8,220.2969 C1879.8,220.2969 1502.63,220.2969 1264.09,220.2969" fill="none" id="DRV_GR9prv-to-ASS_CK90bp" style="stroke:#181818;stroke-width:1;stroke-dasharray:7,7;"/><polygon fill="#181818" points="1258.09,220.2969,1267.09,224.2969,1263.09,220.2969,1267.09,216.2969,1258.09,220.2969" style="stroke:#181818;stroke-width:1;"/></g><!--link DRV_4NvckD to ASS_CK90bp--><g class="link" data-entity-1="ent0004" data-entity-2="ent0011" data-link-type="dependency" data-source-line="208" id="lnk51"><path d="M1072,114.5169 C1072,136.4569 1072,166.1469 1072,188.0869" fill="none" id="DRV_4NvckD-to-ASS_CK90bp" style="stroke:#181818;stroke-width:1;stroke-dasharray:7,7;"/><polygon fill="#181818" points="1072,194.0869,1076,185.0869,1072,189.0869,1068,185.0869,1072,194.0869" style="stroke:#181818;stroke-width:1;"/></g><!--link DRV_Rt6Yu2 to ASS_CK90bp--><g class="link" data-entity-1="ent0005" data-entity-2="ent0011" data-link-type="dependency" data-source-line="209" id="lnk52"><path d="M1396.5,114.5469 C1396.5,146.5769 1396.5,207.2969 1396.5,207.2969 C1396.5,207.2969 1336.73,207.2969 1264.41,207.2969" fill="none" id="DRV_Rt6Yu2-to-ASS_CK90bp" style="stroke:#181818;stroke-width:1;stroke-dasharray:7,7;"/><polygon fill="#181818" points="1258.41,207.2969,1267.41,211.2969,1263.41,207.2969,1267.41,203.2969,1258.41,207.2969" style="stroke:#181818;stroke-width:1;"/></g><!--link DRV_GR9prv to ASS_EI3FpR--><g class="link" data-entity-1="ent0003" data-entity-2="ent0012" data-link-type="dependency" data-source-line="211" id="lnk54"><path d="M1972.6,114.5069 C1972.6,169.7869 1972.6,325.2969 1972.6,325.2969 C1972.6,325.2969 1676.13,325.2969 1440.26,325.2969" fill="none" id="DRV_GR9prv-to-ASS_EI3FpR" style="stroke:#181818;stroke-width:1;stroke-dasharray:7,7;"/><polygon fill="#181818" points="1434.26,325.2969,1443.26,329.2969,1439.26,325.2969,1443.26,321.2969,1434.26,325.2969" style="stroke:#181818;stroke-width:1;"/></g><!--link DRV_4NvckD to ASS_EI3FpR--><g class="link" data-entity-1="ent0004" data-entity-2="ent0012" data-link-type="dependency" data-source-line="212" id="lnk55"><path d="M1261.22,102.2969 C1279.41,102.2969 1291.25,102.2969 1291.25,102.2969 C1291.25,102.2969 1291.25,251.1269 1291.25,306.1669" fill="none" id="DRV_4NvckD-to-ASS_EI3FpR" style="stroke:#181818;stroke-width:1;stroke-dasharray:7,7;"/><polygon fill="#181818" points="1291.25,312.1669,1295.25,303.1669,1291.25,307.1669,1287.25,303.1669,1291.25,312.1669" style="stroke:#181818;stroke-width:1;"/></g><!--link DRV_GR9prv to ASS_s68vVo--><g class="link" data-entity-1="ent0003" data-entity-2="ent0013" data-link-type="dependency" data-source-line="213" id="lnk56"><path d="M2065.4,114.3269 C2065.4,187.8569 2065.4,449.2969 2065.4,449.2969 C2065.4,449.2969 1703.5,449.2969 1439.61,449.2969" fill="none" id="DRV_GR9prv-to-ASS_s68vVo" style="stroke:#181818;stroke-width:1;stroke-dasharray:7,7;"/><polygon fill="#181818" points="1433.61,449.2969,1442.61,453.2969,1438.61,449.2969,1442.61,445.2969,1433.61,449.2969" style="stroke:#181818;stroke-width:1;"/></g><!--link DRV_GR9prv to ASS_a6vxyj--><g class="link" data-entity-1="ent0003" data-entity-2="ent0014" data-link-type="dependency" data-source-line="214" id="lnk57"><path d="M2158.2,114.3669 C2158.2,203.4569 2158.2,574.2969 2158.2,574.2969 C2158.2,574.2969 1702.48,574.2969 1431.03,574.2969" fill="none" id="DRV_GR9prv-to-ASS_a6vxyj" style="stroke:#181818;stroke-width:1;stroke-dasharray:7,7;"/><polygon fill="#181818" points="1425.03,574.2969,1434.03,578.2969,1430.03,574.2969,1434.03,570.2969,1425.03,574.2969" style="stroke:#181818;stroke-width:1;"/></g><!--link DRV_4NvckD to ASS_a6vxyj--><g class="link" data-entity-1="ent0004" data-entity-2="ent0014" data-link-type="dependency" data-source-line="215" id="lnk58"><path d="M882.89,95.2969 C859.16,95.2969 843,95.2969 843,95.2969 C843,95.2969 843,567.2969 843,567.2969 C843,567.2969 935.2,567.2969 1032.92,567.2969" fill="none" id="DRV_4NvckD-to-ASS_a6vxyj" style="stroke:#181818;stroke-width:1;stroke-dasharray:7,7;"/><polygon fill="#181818" points="1038.92,567.2969,1029.92,563.2969,1033.92,567.2969,1029.92,571.2969,1038.92,567.2969" style="stroke:#181818;stroke-width:1;"/></g><!--link DRV_Rt6Yu2 to ASS_a6vxyj--><g class="link" data-entity-1="ent0005" data-entity-2="ent0014" data-link-type="dependency" data-source-line="216" id="lnk59"><path d="M1629,114.4369 C1629,202.1269 1629,561.2969 1629,561.2969 C1629,561.2969 1532.23,561.2969 1431.27,561.2969" fill="none" id="DRV_Rt6Yu2-to-ASS_a6vxyj" style="stroke:#181818;stroke-width:1;stroke-dasharray:7,7;"/><polygon fill="#181818" points="1425.27,561.2969,1434.27,565.2969,1430.27,561.2969,1434.27,557.2969,1425.27,561.2969" style="stroke:#181818;stroke-width:1;"/></g><!--link ASS_CK90bp to GOL_FCfDuc--><g class="link" data-entity-1="ent0011" data-entity-2="ent0019" data-link-type="dependency" data-source-line="218" id="lnk60"><path d="M885.76,223.2969 C871.79,223.2969 863,223.2969 863,223.2969 C863,223.2969 863,674.2969 863,674.2969 C863,674.2969 931.36,674.2969 1005.29,674.2969" fill="none" id="ASS_CK90bp-to-GOL_FCfDuc" style="stroke:#181818;stroke-width:1;stroke-dasharray:7,7;"/><polygon fill="#181818" points="1011.29,674.2969,1002.29,670.2969,1006.29,674.2969,1002.29,678.2969,1011.29,674.2969" style="stroke:#181818;stroke-width:1;"/></g><!--link ASS_EI3FpR to GOL_5Fk9di--><g class="link" data-entity-1="ent0012" data-entity-2="ent0020" data-link-type="dependency" data-source-line="219" id="lnk61"><path d="M891.67,350.3869 C891.67,426.5269 891.67,702.1269 891.67,778.2269" fill="none" id="ASS_EI3FpR-to-GOL_5Fk9di" style="stroke:#181818;stroke-width:1;stroke-dasharray:7,7;"/><polygon fill="#181818" points="891.67,784.2269,895.67,775.2269,891.67,779.2269,887.67,775.2269,891.67,784.2269" style="stroke:#181818;stroke-width:1;"/></g><!--link ASS_EI3FpR to GOL_Xwvgpb--><g class="link" data-entity-1="ent0012" data-entity-2="ent0021" data-link-type="association" data-source-line="220" id="lnk62"><path d="M1434.38,338.2969 C1489.82,338.2969 1531.5,338.2969 1531.5,338.2969 C1531.5,338.2969 1531.5,696.6969 1531.5,784.1969" fill="none" id="ASS_EI3FpR-GOL_Xwvgpb" style="stroke:#181818;stroke-width:1;"/></g><!--link ASS_s68vVo to GOL_5Fk9di--><g class="link" data-entity-1="ent0013" data-entity-2="ent0020" data-link-type="association" data-source-line="221" id="lnk63"><path d="M908.21,449.2969 C899.52,449.2969 894.5,449.2969 894.5,449.2969 C894.5,449.2969 894.5,710.7369 894.5,784.2669" fill="none" id="ASS_s68vVo-GOL_5Fk9di" style="stroke:#181818;stroke-width:1;"/></g><!--link GOL_FCfDuc to GOL_Xwvgpb--><g class="link" data-entity-1="ent0019" data-entity-2="ent0021" data-link-type="association" data-source-line="225" id="lnk66"><path d="M1302.79,685.2969 C1357.64,685.2969 1407,685.2969 1407,685.2969 C1407,685.2969 1407,750.6369 1407,784.0769" fill="none" id="GOL_FCfDuc-GOL_Xwvgpb" style="stroke:#181818;stroke-width:1;"/></g><!--link GOL_Po1Qw3 to GOL_FCfDuc--><g class="link" data-entity-1="ent0022" data-entity-2="ent0019" data-link-type="association" data-source-line="226" id="lnk67"><path d="M1157,784.0769 C1157,762.1369 1157,726.4469 1157,704.5069" fill="none" id="GOL_Po1Qw3-GOL_FCfDuc" style="stroke:#181818;stroke-width:1;"/></g><!--reverse link GOL_5Fk9di to OUT_AlZjX8--><g class="link" data-entity-1="ent0020" data-entity-2="ent0027" data-link-type="extension" data-source-line="228" id="lnk69"><path d="M894.62,840.5169 C894.62,873.9569 894.62,921.2969 894.62,921.2969 C894.62,921.2969 977.84,921.2969 1058.78,921.2969" fill="none" id="GOL_5Fk9di-backto-OUT_AlZjX8" style="stroke:#181818;stroke-width:1;"/><polygon fill="none" points="894.62,822.5169,888.62,840.5169,900.62,840.5169,894.62,822.5169" style="stroke:#181818;stroke-width:1;"/></g><!--reverse link GOL_5Fk9di to OUT_JZMIk3--><g class="link" data-entity-1="ent0020" data-entity-2="ent0028" data-link-type="extension" data-source-line="229" id="lnk71"><path d="M877.88,840.4769 C877.88,894.8869 877.88,1028.2969 877.88,1028.2969 C877.88,1028.2969 943.34,1028.2969 1019.36,1028.2969" fill="none" id="GOL_5Fk9di-backto-OUT_JZMIk3" style="stroke:#181818;stroke-width:1;"/><polygon fill="none" points="877.88,822.4769,871.88,840.4769,883.88,840.4769,877.88,822.4769" style="stroke:#181818;stroke-width:1;"/></g><!--reverse link GOL_Xwvgpb to OUT_g7PM4Y--><g class="link" data-entity-1="ent0021" data-entity-2="ent0029" data-link-type="extension" data-source-line="230" id="lnk73"><path d="M1673,840.3269 C1673,913.8569 1673,1157.2969 1673,1157.2969 C1673,1157.2969 1557.1,1157.2969 1446.64,1157.2969" fill="none" id="GOL_Xwvgpb-backto-OUT_g7PM4Y" style="stroke:#181818;stroke-width:1;"/><polygon fill="none" points="1673,822.3269,1667,840.3269,1679,840.3269,1673,822.3269" style="stroke:#181818;stroke-width:1;"/></g><!--reverse link GOL_FCfDuc to OUT_aOcRl9--><g class="link" data-entity-1="ent0019" data-entity-2="ent0030" data-link-type="extension" data-source-line="231" id="lnk75"><path d="M993.27,697.2969 C951.85,697.2969 935.75,697.2969 935.75,697.2969 C935.75,697.2969 935.75,1275.2969 935.75,1275.2969 C935.75,1275.2969 988.85,1275.2969 1052.54,1275.2969" fill="none" id="GOL_FCfDuc-backto-OUT_aOcRl9" style="stroke:#181818;stroke-width:1;"/><polygon fill="none" points="1011.27,697.2969,993.27,691.2969,993.27,703.2969,1011.27,697.2969" style="stroke:#181818;stroke-width:1;"/></g><!--reverse link GOL_Po1Qw3 to OUT_LrpdG0--><g class="link" data-entity-1="ent0022" data-entity-2="ent0031" data-link-type="extension" data-source-line="232" id="lnk77"><path d="M991.25,840.5869 C991.25,942.2769 991.25,1393.2969 991.25,1393.2969 C991.25,1393.2969 1030.05,1393.2969 1077.18,1393.2969" fill="none" id="GOL_Po1Qw3-backto-OUT_LrpdG0" style="stroke:#181818;stroke-width:1;"/><polygon fill="none" points="991.25,822.5869,985.25,840.5869,997.25,840.5869,991.25,822.5869" style="stroke:#181818;stroke-width:1;"/></g><!--reverse link OUT_AlZjX8 to REQ_peinbQ--><g class="link" data-entity-1="ent0027" data-entity-2="ent0037" data-link-type="extension" data-source-line="234" id="lnk79"><path d="M1379.13,921.2969 C1480.29,921.2969 1577,921.2969 1577,921.2969 C1577,921.2969 1577,1511.2969 1577,1511.2969 C1577,1511.2969 1454.56,1511.2969 1357.94,1511.2969" fill="none" id="OUT_AlZjX8-backto-REQ_peinbQ" style="stroke:#181818;stroke-width:1;"/><polygon fill="none" points="1361.13,921.2969,1379.13,927.2969,1379.13,915.2969,1361.13,921.2969" style="stroke:#181818;stroke-width:1;"/></g><!--reverse link OUT_JZMIk3 to REQ_peinbQ--><g class="link" data-entity-1="ent0028" data-entity-2="ent0037" data-link-type="extension" data-source-line="235" id="lnk81"><path d="M1041.83,1076.5169 C1041.83,1155.4169 1041.83,1432.2969 1041.83,1432.2969 C1041.83,1432.2969 1243,1432.2969 1243,1432.2969 C1243,1432.2969 1243,1468.7969 1243,1492.1769" fill="none" id="OUT_JZMIk3-backto-REQ_peinbQ" style="stroke:#181818;stroke-width:1;"/><polygon fill="none" points="1041.83,1058.5169,1035.83,1076.5169,1047.83,1076.5169,1041.83,1058.5169" style="stroke:#181818;stroke-width:1;"/></g><!--reverse link OUT_JZMIk3 to REQ_m117_R--><g class="link" data-entity-1="ent0028" data-entity-2="ent0038" data-link-type="extension" data-source-line="236" id="lnk83"><path d="M1001.35,1043.2969 C773.51,1043.2969 476.88,1043.2969 476.88,1043.2969 C476.88,1043.2969 476.88,1404.0169 476.88,1492.0769" fill="none" id="OUT_JZMIk3-backto-REQ_m117_R" style="stroke:#181818;stroke-width:1;"/><polygon fill="none" points="1019.35,1043.2969,1001.35,1037.2969,1001.35,1049.2969,1019.35,1043.2969" style="stroke:#181818;stroke-width:1;"/></g><!--reverse link OUT_JZMIk3 to REQ_Cc2Dd2--><g class="link" data-entity-1="ent0028" data-entity-2="ent0039" data-link-type="extension" data-source-line="237" id="lnk85"><path d="M1030.67,1076.3869 C1030.67,1152.5269 1030.67,1416.1269 1030.67,1492.2269" fill="none" id="OUT_JZMIk3-backto-REQ_Cc2Dd2" style="stroke:#181818;stroke-width:1;"/><polygon fill="none" points="1030.67,1058.3869,1024.67,1076.3869,1036.67,1076.3869,1030.67,1058.3869" style="stroke:#181818;stroke-width:1;"/></g><!--reverse link OUT_JZMIk3 to REQ_eBAa26--><g class="link" data-entity-1="ent0028" data-entity-2="ent0040" data-link-type="extension" data-source-line="238" id="lnk87"><path d="M1001.4,1051.2969 C842.92,1051.2969 679,1051.2969 679,1051.2969 C679,1051.2969 679,1405.0569 679,1492.1169" fill="none" id="OUT_JZMIk3-backto-REQ_eBAa26" style="stroke:#181818;stroke-width:1;"/><polygon fill="none" points="1019.4,1051.2969,1001.4,1045.2969,1001.4,1057.2969,1019.4,1051.2969" style="stroke:#181818;stroke-width:1;"/></g><!--reverse link OUT_JZMIk3 to REQ_s5B3gB--><g class="link" data-entity-1="ent0028" data-entity-2="ent0041" data-link-type="extension" data-source-line="239" id="lnk89"><path d="M1001.35,1036.2969 C671.39,1036.2969 122,1036.2969 122,1036.2969 C122,1036.2969 122,1403.2269 122,1492.0869" fill="none" id="OUT_JZMIk3-backto-REQ_s5B3gB" style="stroke:#181818;stroke-width:1;"/><polygon fill="none" points="1019.35,1036.2969,1001.35,1030.2969,1001.35,1042.2969,1019.35,1036.2969" style="stroke:#181818;stroke-width:1;"/></g><?plantuml-src xLfjS-8u4lwUNw5ZhwRsfc8FsBnbAaaLWP39BTdCG9BPbxfAARR0tXZBPnj8PdV_-tKB4mkGHPnaF-tLJ34oqjFTUlIerJBZ-IuZISfYnjF7YEtj9VT-6D6OJedBndGMf7qUfZ_IAICZ6YOZ5ljZzPYH_usHcYLr9Xvr-S8F9sHCWuH9FJ6VXQx3uv35f2vzVqUT-udexFA0n-IxVWV_o545ViWmKiBZrEDIHyXTbh28DAko8nhUuvVjwju_85R0aY4BRZkEmvBa-t7Cf_iavViae7Si-1V1BuZngylJbBd_COwXJu6xlOvsGMTH8RZ75-4kED0M5XeOi76woq00OmeD3Fs9jzD2Z8CK9YQJc4rewlEYIN33q82AkUC6aAP3QeZZXc1CXzQmnWr1bmwjeumRIwwsy4dYJy8f2mkvLj3xXD68J2ck7AWJM86mSh1EN0MYoi5QOHK9Aacuu-i4PHWQZ9uc7N0dJJhmJffqu6VGj0dlycd44r_3qdj31ogcwRsA9ncfuUczcYWPhI7glPef6QrZwdq1LVs0BmeWfdci6brCZZcB2Y0QLamafG2ceSD4DWfWEXvCGSCsy3mS1pCMEkpvP3n1IZAIuyhJacFBSvDZNqBGaD70_wRBFARvXmwbPqaFtKcK7hwJApty6NHj6u3QRmx5tFCFimnGyYHReSeVOoja-JDiXNp90JQA62Js7KeoZ3zs0FKixKJlP6kdXPsixRJm3FQsRLn1nmHk5MM4bMDAQai2bfUN12wlC0dyN959jnZcf3IS1Epmy8Ad_bpGVGRtf0Zi7H-Jt_S8ETcwEhLEJ_i7sCDZbyNPjwqJkt_GsVjJRPqc2LmGi9OhidhQwpNxrN9MtTYVi_WjBKuu3TxI7f-b3f-ojpGPi__E_9YzWallRtarVqa--2jFyhSu25zxnz6bcvVVD0prwu4Nb8jwoF_psDyxZoLHxAUC_9F6ZkTFQSfky-KXXybyGXwcGPWSLRmqZJv--B1OBCo5RV9uyi6gLgiVO4I5p7ssEE4FHvKggP9Q4_vMZWyZcdh4FQfSM6Q3s5wjHckaHiG8_3Dlviy6j3ur0yCYDZpOdm0XTngrcxeCDchVAeIC_I0ugdndDIpRQbKW5yVydXrLGXwooeVZGupiM36zfKvUDpN7Zvs04GU-RbU8yoZ-YOygTRFv59Y8uocgZJ2DXU-ctb6bPjeOQv6zcjbwaRqdwbkctI2MQLVdjbcjUj1TlS57u6-TlYrGhMgsP9HuriBGBa6iXwWveZxjz2NCRg9s-xBDHftKpNfpW1y47mTDiz4a3RDP7-07mKUjZGEpNiTfsis1-2JunQ1ceS5Q3IsAJoA-qKz2Z1D1BE4YigLH36CWN65KMZCYR164cCeoD34_ONKW9YrygSmKwHsps5-bzlQRgjqo3zvuzzWLRPOWQdj5J6Rv-yt8R9drB5nC6u9G-xK4RDcqJEjrAGHaM6k3Z0zibB45CcwtKEODIDPc4vgsQRL1yIrxrqQtSADR3G-m-KQtb1jTDoDKoHkkgdI4lj5v1riM-B2yDgQ0DkxOjcUqdtraRTuitg24Jta4jHwvusaAbP_hOmK1nTtUNkgdG7DUxf6kH_tm8-bZXTWJ9sM2o65EKhAtzrI0a4esfa8qHQCq_73h8FuzSMZ0ZcgczUSnwPmR-8C5JDubD7H9Pm8EVOVqs9m5F19hH1D2IOzF_P32q-UOkpCn6PY5op2Efq8GHlQ6DxTdmuCedfUAeyUcw7uCbLAVubAi_8Yen0t3OMJ0Q1pYBQtx269DLBxhFywT-ruft-UX4pEQe5qfZ0iUCzAPfJpaqqV2n-IAqMb2tf7H8yGtLJeVfisVPrOfvqDVE1xnSRgWu15VzmVimKyVmTLv24ouB6AXY_SAbSjhlt4PsL1MviGJurTGD22o7orbNlAcSbGsWRof79Nvb5NPUIfXNwJCl09UL-UAVfe-AVC6TEaWFLSUh5hAmeHSX_WCItGwXfLBCO2r6mzGrHcDRhi_75Jlel91d1jd3Ax_5FS8xDPmmiWD3sPmBbtEqeZ29P5qq4WAPcSndFsV0neAcQAMXWnp5-bI60bX5WLtUcxtes7fu0Q32-E49YpRkGdu2KEU8XEOSM0JFvBhX055aFfc61yENOlsXv0l0kPEM55eIRCzl-6bG-l25p6-KW2FPnn42-a3zd0Mu0X7gjQrA0hQd3yy_WP2pvSo5-VoTpU9nxof6fJDA6-g1cKEPPMVGMNt8drZIRX6pcYMf93tDwLRH4XsCGOgpYu7j_tkk3TpodYB62p2TLIaqtVo0c7oMyNmbSVts_uR_Vi3ro_X_pIaTp08CplfGoZuycpvJkGSinqkzF8mX8DF2f5jk_vfCPz4ToLSNm3BWcaAgTM38pvCzybL3BjMX2Hx4-TPiEtpCwzzMM2ApRdVIeiIBNbJEIgRGTvKZifyokAxN1R3Bz9VLaYldpmCpbUGXLe5bz3o67NHM_uQ1HYvlBwwxGI__FPJkvoxplagHO7KVSU79kIcdfyuw7HvpDCnvYl8-XvgK5wQJfpwO-eiJvUjUFxzoyNvlLqkdWtbBHDx0l9qnHkT_Innm-Cxh4Mc7DA_qlcazVcY_dCvvnBH8X4cvAiFavw9yYg2H00XmGRjSXwxK7Q92BKhGY-TON1Gae5btRDr86Jx16B3HS4QP19dUMZBxo2EtBCgx8rS5fkvL5gWlAaQb16PDrM3iedcJTMWB2fvzyZrz4jsa7HfMIFnYlDWMQUDiHBuI2wwd_T9Tt0E0ZeTNQ6hzLU6GDpmzCjjnFpmxajvVr_5RMhvQffSXh1TvZuLKII5lgQrMkjsMDxN2AjXF0Rwio0mhjW37DiCOOMUkexLSwtodivY6dbP8JDaWLYNnFEZf_pmMEYIdNIerIplyeAbrAKfpRn-cO4JK46XdwHnOazEGEdvwcrbRedilAaSbH6LDvMZihdbJUMeBBAzl3HNbJDPzPjNDfk3fCeYFu5KkolB_lb6snmawLk-bk3l7r8aqbL4qPDTFnGzsHGLFHj-ib9GuKVgsS1abQ6Y9oi75TQadeseLoMaLB9YbyIqLAUkUh8oGgvWroe7kMerDX7PqcvuMQjSjegLzGwfFbb9O4qRQvb--Lyn97joXbTshZ9xtfavb3DwtfavbRMMTwwA97b7BdibcQeximD9tgNApjNcL7QkzgIoSxah5Pt_0m00?></g></svg>