<svg xmlns="http://www.w3.org/2000/svg" xmlns:xlink="http://www.w3.org/1999/xlink" contentStyleType="text/css" data-diagram-type="DESCRIPTION" height="450px" preserveAspectRatio="none" style="width:1749px;height:450px;background:#FAFAFA;" version="1.1" viewBox="0 0 1749 450" width="1749px" zoomAndPan="magnify"><?plantuml 1.2026.3?><defs/><g><rect fill="#FAFAFA" height="450" style="stroke:none;stroke-width:1;" width="1749" x="0" y="0"/><g class="title" data-source-line="117"><text fill="#000000" font-family="sans-serif" font-size="14" font-weight="700" lengthAdjust="spacing" textLength="255.9922" x="743.0039" y="22.9951">The Forces Shaping This System</text></g><!--cluster Forces--><g class="cluster" data-qualified-name="Forces" data-source-line="119" id="ent0002"><rect fill="#F7EEF9" height="86" rx="2" ry="2" style="stroke:#7B3F9A;stroke-width:1;" width="1728" x="7" y="44.2969"/><text fill="#000000" font-family="sans-serif" font-size="12" font-weight="700" lengthAdjust="spacing" textLength="44.7539" x="848.623" y="57.4355">Forces</text></g><!--cluster Immediate Implications--><g class="cluster" data-qualified-name="Immediate Implications" data-source-line="129" id="ent0010"><rect fill="#F7EEF9" height="282" rx="2" ry="2" style="stroke:#7B3F9A;stroke-width:1;" width="580" x="59" y="154.2969"/><text fill="#000000" font-family="sans-serif" font-size="12" font-weight="700" lengthAdjust="spacing" textLength="159.2402" x="269.3799" y="167.4355">Immediate Implications</text></g><!--cluster The Double Bind--><g class="cluster" data-qualified-name="The Double Bind" data-source-line="137" id="ent0016"><rect fill="#F7EEF9" height="184" rx="2" ry="2" style="stroke:#7B3F9A;stroke-width:1;" width="420" x="806" y="154.2969"/><text fill="#000000" font-family="sans-serif" font-size="12" font-weight="700" lengthAdjust="spacing" textLength="111.2051" x="960.3975" y="167.4355">The Double Bind</text></g><!--entity DRV_Ui5Op3--><g class="entity" data-qualified-name="Forces.DRV_Ui5Op3" data-source-line="120" id="ent0003"><rect fill="#EDD6F0" height="38.4615" rx="2" ry="2" style="stroke:#7B3F9A;stroke-width:0.5;" width="327.0885" x="22.5" y="76.2969"/><ellipse cx="41.7308" cy="95.5276" fill="none" rx="5.3077" ry="5.3077" style="stroke:#252327;stroke-width:1.5;"/><ellipse cx="41.7308" cy="95.5276" fill="none" rx="1.9615" ry="1.9615" style="stroke:#252327;stroke-width:1.5;"/><path d="M40.9808,88.9507 L40.9808,92.4123 L42.4808,92.4123 L42.4808,88.9507" fill="#252327"/><path d="M40.9808,98.643 L40.9808,102.1046 L42.4808,102.1046 L42.4808,98.643" fill="#252327"/><path d="M35.1538,94.7776 L38.6154,94.7776 L38.6154,96.2776 L35.1538,96.2776" fill="#252327"/><path d="M44.8462,94.7776 L48.3077,94.7776 L48.3077,96.2776 L44.8462,96.2776" fill="#252327"/><path d="M36.5846,91.443 L37.6462,90.3815 L40.0692,92.8046 L39.0077,93.8661" fill="#252327"/><path d="M43.3923,98.2507 L44.4538,97.1892 L46.8769,99.6123 L45.8154,100.6738" fill="#252327"/><path d="M45.8154,90.3815 L46.8769,91.443 L44.4538,93.8661 L43.3923,92.8046" fill="#252327"/><path d="M39.0077,97.1892 L40.0692,98.2507 L37.6462,100.6738 L36.5846,99.6123" fill="#252327"/><text fill="#000000" font-family="sans-serif" font-size="12" lengthAdjust="spacing" textLength="284.8125" x="54.776" y="101.9283">Rising Software Complexity &amp; Interdependence</text></g><!--entity DRV_GR9prv--><g class="entity" data-qualified-name="Forces.DRV_GR9prv" data-source-line="121" id="ent0004"><rect fill="#EDD6F0" height="38.4615" rx="2" ry="2" style="stroke:#7B3F9A;stroke-width:0.5;" width="464.5319" x="389.5" y="76.2969"/><ellipse cx="408.7308" cy="95.5276" fill="none" rx="5.3077" ry="5.3077" style="stroke:#252327;stroke-width:1.5;"/><ellipse cx="408.7308" cy="95.5276" fill="none" rx="1.9615" ry="1.9615" style="stroke:#252327;stroke-width:1.5;"/><path d="M407.9808,88.9507 L407.9808,92.4123 L409.4808,92.4123 L409.4808,88.9507" fill="#252327"/><path d="M407.9808,98.643 L407.9808,102.1046 L409.4808,102.1046 L409.4808,98.643" fill="#252327"/><path d="M402.1538,94.7776 L405.6154,94.7776 L405.6154,96.2776 L402.1538,96.2776" fill="#252327"/><path d="M411.8462,94.7776 L415.3077,94.7776 L415.3077,96.2776 L411.8462,96.2776" fill="#252327"/><path d="M403.5846,91.443 L404.6462,90.3815 L407.0692,92.8046 L406.0077,93.8661" fill="#252327"/><path d="M410.3923,98.2507 L411.4538,97.1892 L413.8769,99.6123 L412.8154,100.6738" fill="#252327"/><path d="M412.8154,90.3815 L413.8769,91.443 L411.4538,93.8661 L410.3923,92.8046" fill="#252327"/><path d="M406.0077,97.1892 L407.0692,98.2507 L404.6462,100.6738 L403.5846,99.6123" fill="#252327"/><text fill="#000000" font-family="sans-serif" font-size="12" lengthAdjust="spacing" textLength="422.2559" x="421.776" y="101.9283">AI-Assisted and Agentic Development as a Dominant Production Mode</text></g><!--entity DRV_4NvckD--><g class="entity" data-qualified-name="Forces.DRV_4NvckD" data-source-line="122" id="ent0005"><rect fill="#EDD6F0" height="38.4615" rx="2" ry="2" style="stroke:#7B3F9A;stroke-width:0.5;" width="378.4225" x="895" y="76.2969"/><ellipse cx="914.2308" cy="95.5276" fill="none" rx="5.3077" ry="5.3077" style="stroke:#252327;stroke-width:1.5;"/><ellipse cx="914.2308" cy="95.5276" fill="none" rx="1.9615" ry="1.9615" style="stroke:#252327;stroke-width:1.5;"/><path d="M913.4808,88.9507 L913.4808,92.4123 L914.9808,92.4123 L914.9808,88.9507" fill="#252327"/><path d="M913.4808,98.643 L913.4808,102.1046 L914.9808,102.1046 L914.9808,98.643" fill="#252327"/><path d="M907.6538,94.7776 L911.1154,94.7776 L911.1154,96.2776 L907.6538,96.2776" fill="#252327"/><path d="M917.3462,94.7776 L920.8077,94.7776 L920.8077,96.2776 L917.3462,96.2776" fill="#252327"/><path d="M909.0846,91.443 L910.1462,90.3815 L912.5692,92.8046 L911.5077,93.8661" fill="#252327"/><path d="M915.8923,98.2507 L916.9538,97.1892 L919.3769,99.6123 L918.3154,100.6738" fill="#252327"/><path d="M918.3154,90.3815 L919.3769,91.443 L916.9538,93.8661 L915.8923,92.8046" fill="#252327"/><path d="M911.5077,97.1892 L912.5692,98.2507 L910.1462,100.6738 L909.0846,99.6123" fill="#252327"/><text fill="#000000" font-family="sans-serif" font-size="12" lengthAdjust="spacing" textLength="336.1465" x="927.276" y="101.9283">Demand for Faster Product and Service Learning Cycles</text></g><!--entity DRV_Rt6Yu2--><g class="entity" data-qualified-name="Forces.DRV_Rt6Yu2" data-source-line="123" id="ent0006"><rect fill="#EDD6F0" height="38.4615" rx="2" ry="2" style="stroke:#7B3F9A;stroke-width:0.5;" width="405.944" x="1313" y="76.2969"/><ellipse cx="1332.2308" cy="95.5276" fill="none" rx="5.3077" ry="5.3077" style="stroke:#252327;stroke-width:1.5;"/><ellipse cx="1332.2308" cy="95.5276" fill="none" rx="1.9615" ry="1.9615" style="stroke:#252327;stroke-width:1.5;"/><path d="M1331.4808,88.9507 L1331.4808,92.4123 L1332.9808,92.4123 L1332.9808,88.9507" fill="#252327"/><path d="M1331.4808,98.643 L1331.4808,102.1046 L1332.9808,102.1046 L1332.9808,98.643" fill="#252327"/><path d="M1325.6538,94.7776 L1329.1154,94.7776 L1329.1154,96.2776 L1325.6538,96.2776" fill="#252327"/><path d="M1335.3462,94.7776 L1338.8077,94.7776 L1338.8077,96.2776 L1335.3462,96.2776" fill="#252327"/><path d="M1327.0846,91.443 L1328.1462,90.3815 L1330.5692,92.8046 L1329.5077,93.8661" fill="#252327"/><path d="M1333.8923,98.2507 L1334.9538,97.1892 L1337.3769,99.6123 L1336.3154,100.6738" fill="#252327"/><path d="M1336.3154,90.3815 L1337.3769,91.443 L1334.9538,93.8661 L1333.8923,92.8046" fill="#252327"/><path d="M1329.5077,97.1892 L1330.5692,98.2507 L1328.1462,100.6738 L1327.0846,99.6123" fill="#252327"/><text fill="#000000" font-family="sans-serif" font-size="12" lengthAdjust="spacing" textLength="363.668" x="1345.276" y="101.9283">Increasing Demand for More Autonomy of Teams &amp; Systems</text></g><!--entity ASS_9YWsDh--><g class="entity" data-qualified-name="Immediate Implications.ASS_9YWsDh" data-source-line="130" id="ent0011"><rect fill="#EDD6F0" height="38.4615" rx="2" ry="2" style="stroke:#7B3F9A;stroke-width:0.5;" width="518.4498" x="75" y="186.2969"/><path d="M87.8846,199.7584 L100.5769,199.7584 A1.1538,1.1538 0 0 1 101.7308,200.9123 L101.7308,207.8353 A1.1538,1.1538 0 0 1 100.5769,208.9892 L91.9231,208.9892 L89.6154,212.4507 L90.7692,208.9892 L87.8846,208.9892 A1.1538,1.1538 0 0 1 86.7308,207.8353 L86.7308,200.9123 A1.1538,1.1538 0 0 1 87.8846,199.7584" fill="#252327" style="stroke:none;stroke-width:0.5;"/><text fill="#000000" font-family="sans-serif" font-size="12" lengthAdjust="spacing" textLength="476.1738" x="107.276" y="211.9283">Implicit System Interdependencies Are Unmaintainable Without Explicit Models</text></g><!--entity ASS_EI3FpR--><g class="entity" data-qualified-name="Immediate Implications.ASS_EI3FpR" data-source-line="131" id="ent0012"><rect fill="#EDD6F0" height="38.4615" rx="2" ry="2" style="stroke:#7B3F9A;stroke-width:0.5;" width="548.3561" x="75" y="284.2969"/><path d="M87.8846,297.7584 L100.5769,297.7584 A1.1538,1.1538 0 0 1 101.7308,298.9123 L101.7308,305.8353 A1.1538,1.1538 0 0 1 100.5769,306.9892 L91.9231,306.9892 L89.6154,310.4507 L90.7692,306.9892 L87.8846,306.9892 A1.1538,1.1538 0 0 1 86.7308,305.8353 L86.7308,298.9123 A1.1538,1.1538 0 0 1 87.8846,297.7584" fill="#252327" style="stroke:none;stroke-width:0.5;"/><text fill="#000000" font-family="sans-serif" font-size="12" lengthAdjust="spacing" textLength="506.0801" x="107.276" y="309.9283">AI-Generated Change Volume Outpaces Architectural Planning and Review Capacity</text></g><!--entity ASS_s68vVo--><g class="entity" data-qualified-name="Immediate Implications.ASS_s68vVo" data-source-line="132" id="ent0013"><rect fill="#EDD6F0" height="38.4615" rx="2" ry="2" style="stroke:#7B3F9A;stroke-width:0.5;" width="526.0084" x="91" y="382.2969"/><path d="M103.8846,395.7584 L116.5769,395.7584 A1.1538,1.1538 0 0 1 117.7308,396.9123 L117.7308,403.8353 A1.1538,1.1538 0 0 1 116.5769,404.9892 L107.9231,404.9892 L105.6154,408.4507 L106.7692,404.9892 L103.8846,404.9892 A1.1538,1.1538 0 0 1 102.7308,403.8353 L102.7308,396.9123 A1.1538,1.1538 0 0 1 103.8846,395.7584" fill="#252327" style="stroke:none;stroke-width:0.5;"/><text fill="#000000" font-family="sans-serif" font-size="12" lengthAdjust="spacing" textLength="483.7324" x="123.276" y="407.9283">LLM-Based Agents Cannot Effectively Use Unstructured Architectural Knowledge</text></g><!--entity ASS_CK90bp--><g class="entity" data-qualified-name="The Double Bind.ASS_CK90bp" data-source-line="138" id="ent0017"><rect fill="#EDD6F0" height="38.4615" rx="2" ry="2" style="stroke:#7B3F9A;stroke-width:0.5;" width="372.7506" x="822.5" y="186.2969"/><path d="M835.3846,199.7584 L848.0769,199.7584 A1.1538,1.1538 0 0 1 849.2308,200.9123 L849.2308,207.8353 A1.1538,1.1538 0 0 1 848.0769,208.9892 L839.4231,208.9892 L837.1154,212.4507 L838.2692,208.9892 L835.3846,208.9892 A1.1538,1.1538 0 0 1 834.2308,207.8353 L834.2308,200.9123 A1.1538,1.1538 0 0 1 835.3846,199.7584" fill="#252327" style="stroke:none;stroke-width:0.5;"/><text fill="#000000" font-family="sans-serif" font-size="12" lengthAdjust="spacing" textLength="330.4746" x="854.776" y="211.9283">Autonomy at Agentic Velocity Threatens Unity of Effort</text></g><!--entity ASS_a6vxyj--><g class="entity" data-qualified-name="The Double Bind.ASS_a6vxyj" data-source-line="139" id="ent0018"><rect fill="#EDD6F0" height="38.4615" rx="2" ry="2" style="stroke:#7B3F9A;stroke-width:0.5;" width="386.8834" x="822.5" y="284.2969"/><path d="M835.3846,297.7584 L848.0769,297.7584 A1.1538,1.1538 0 0 1 849.2308,298.9123 L849.2308,305.8353 A1.1538,1.1538 0 0 1 848.0769,306.9892 L839.4231,306.9892 L837.1154,310.4507 L838.2692,306.9892 L835.3846,306.9892 A1.1538,1.1538 0 0 1 834.2308,305.8353 L834.2308,298.9123 A1.1538,1.1538 0 0 1 835.3846,297.7584" fill="#252327" style="stroke:none;stroke-width:0.5;"/><text fill="#000000" font-family="sans-serif" font-size="12" lengthAdjust="spacing" textLength="344.6074" x="854.776" y="309.9283">Centralized Governance Cannot Scale at Agentic Velocity</text></g><!--link DRV_Ui5Op3 to DRV_GR9prv--><!--link DRV_GR9prv to DRV_4NvckD--><!--link DRV_4NvckD to DRV_Rt6Yu2--><!--link ASS_9YWsDh to ASS_EI3FpR--><!--link ASS_EI3FpR to ASS_s68vVo--><!--link ASS_CK90bp to ASS_a6vxyj--><!--link DRV_GR9prv to ASS_9YWsDh--><!--link DRV_4NvckD to ASS_CK90bp--><!--link DRV_4NvckD to ASS_CK90bp--><g class="link" data-entity-1="ent0005" data-entity-2="ent0017" data-link-type="dependency" data-source-line="151" id="lnk27"><path d="M1095.33,114.4569 C1095.33,134.5269 1095.33,159.8669 1095.33,179.9869" fill="none" id="DRV_4NvckD-to-ASS_CK90bp" style="stroke:#181818;stroke-width:1;stroke-dasharray:7,7;"/><polygon fill="#181818" points="1095.33,185.9869,1099.33,176.9869,1095.33,180.9869,1091.33,176.9869,1095.33,185.9869" style="stroke:#181818;stroke-width:1;"/></g><!--link DRV_Ui5Op3 to ASS_9YWsDh--><g class="link" data-entity-1="ent0003" data-entity-2="ent0011" data-link-type="dependency" data-source-line="146" id="lnk22"><path d="M212.25,114.4569 C212.25,134.5269 212.25,159.8669 212.25,179.9869" fill="none" id="DRV_Ui5Op3-to-ASS_9YWsDh" style="stroke:#181818;stroke-width:1;stroke-dasharray:7,7;"/><polygon fill="#181818" points="212.25,185.9869,216.25,176.9869,212.25,180.9869,208.25,176.9869,212.25,185.9869" style="stroke:#181818;stroke-width:1;"/></g><!--link DRV_GR9prv to ASS_EI3FpR--><g class="link" data-entity-1="ent0004" data-entity-2="ent0012" data-link-type="dependency" data-source-line="147" id="lnk23"><path d="M608,114.4969 C608,154.1169 608,238.5669 608,278.1469" fill="none" id="DRV_GR9prv-to-ASS_EI3FpR" style="stroke:#181818;stroke-width:1;stroke-dasharray:7,7;"/><polygon fill="#181818" points="608,284.1469,612,275.1469,608,279.1469,604,275.1469,608,284.1469" style="stroke:#181818;stroke-width:1;"/></g><!--link DRV_GR9prv to ASS_s68vVo--><g class="link" data-entity-1="ent0004" data-entity-2="ent0013" data-link-type="dependency" data-source-line="148" id="lnk24"><path d="M689.5,114.4369 C689.5,181.4269 689.5,401.2969 689.5,401.2969 C689.5,401.2969 665.34,401.2969 623.11,401.2969" fill="none" id="DRV_GR9prv-to-ASS_s68vVo" style="stroke:#181818;stroke-width:1;stroke-dasharray:7,7;"/><polygon fill="#181818" points="617.11,401.2969,626.11,405.2969,622.11,401.2969,626.11,397.2969,617.11,401.2969" style="stroke:#181818;stroke-width:1;"/></g><!--link DRV_GR9prv to ASS_CK90bp--><g class="link" data-entity-1="ent0004" data-entity-2="ent0017" data-link-type="dependency" data-source-line="149" id="lnk25"><path d="M838.5,114.4569 C838.5,134.5269 838.5,159.8669 838.5,179.9869" fill="none" id="DRV_GR9prv-to-ASS_CK90bp" style="stroke:#181818;stroke-width:1;stroke-dasharray:7,7;"/><polygon fill="#181818" points="838.5,185.9869,842.5,176.9869,838.5,180.9869,834.5,176.9869,838.5,185.9869" style="stroke:#181818;stroke-width:1;"/></g><!--link DRV_GR9prv to ASS_a6vxyj--><g class="link" data-entity-1="ent0004" data-entity-2="ent0018" data-link-type="dependency" data-source-line="150" id="lnk26"><path d="M756,114.4969 C756,165.9869 756,303.2969 756,303.2969 C756,303.2969 778.33,303.2969 816.28,303.2969" fill="none" id="DRV_GR9prv-to-ASS_a6vxyj" style="stroke:#181818;stroke-width:1;stroke-dasharray:7,7;"/><polygon fill="#181818" points="822.28,303.2969,813.28,299.2969,817.28,303.2969,813.28,307.2969,822.28,303.2969" style="stroke:#181818;stroke-width:1;"/></g><!--link DRV_Rt6Yu2 to ASS_CK90bp--><g class="link" data-entity-1="ent0006" data-entity-2="ent0017" data-link-type="dependency" data-source-line="152" id="lnk28"><path d="M1448.33,114.4569 C1448.33,145.9769 1448.33,205.2969 1448.33,205.2969 C1448.33,205.2969 1321.29,205.2969 1201.64,205.2969" fill="none" id="DRV_Rt6Yu2-to-ASS_CK90bp" style="stroke:#181818;stroke-width:1;stroke-dasharray:7,7;"/><polygon fill="#181818" points="1195.64,205.2969,1204.64,209.2969,1200.64,205.2969,1204.64,201.2969,1195.64,205.2969" style="stroke:#181818;stroke-width:1;"/></g><!--link DRV_Rt6Yu2 to ASS_a6vxyj--><g class="link" data-entity-1="ent0006" data-entity-2="ent0018" data-link-type="dependency" data-source-line="153" id="lnk29"><path d="M1583.67,114.4969 C1583.67,165.9869 1583.67,303.2969 1583.67,303.2969 C1583.67,303.2969 1380.22,303.2969 1215.77,303.2969" fill="none" id="DRV_Rt6Yu2-to-ASS_a6vxyj" style="stroke:#181818;stroke-width:1;stroke-dasharray:7,7;"/><polygon fill="#181818" points="1209.77,303.2969,1218.77,307.2969,1214.77,303.2969,1218.77,299.2969,1209.77,303.2969" style="stroke:#181818;stroke-width:1;"/></g><?plantuml-src xLXjRzis4FxkNt5pXs4BAiNlQOROW1F7QL2dBUmcHL4C0IFH5XUP52JQZllottUa5Kj992fokqyRd2WXUS_TmqV78scFkHGYIKCgv3gWbKfqotX0GZ87bqx9mfT3mULRCgSm8JoQq91Disqcx0k5UYCr67d45Il6Pp0bVaHJ8w5OSDSH8QSXj5BzDyIvdUd14-6B45uC--gJPkKpJXLJ4A7qH6g02vT6D81EBHs8y5lL-QfM-GMv8XR6rB_kEmwDej-dePY_12bUWazkgFy7g0wmFhj2Ikh-PVLmB0DtVHaKGHT1BdWWLhm8ZhBnN0SZEfL53doqoNKmPZElq4EeZ39Sp6OXdH79HDuaX6KPGFdQ2Gj5Co4DmWbBAsP26rGJbfRBX3P99goDLa_mKSHcV4vvhjOPycunXYJBJAu4Q4gmdCHAmARaoacg16nChBo4YYBXC5D2MPO1OvR912oKoGGkbCa4VePCZ-4dOXw8Y1bKshDCe7oPzh9qIYCDEkrb2vL66uJQorOgZJOfjPSZrT0Ngno8RVUohFF5iHT13iIWYgr4oO4PvB2L6Zamamwsbk4fy9nF_GNb3ds-65j8IKKIN7bP4cnvRHBiBWADAV7P5rFbiUrl9fHP9JEqK2Wpl50hC_mPSZrrW6U_9Hxcdh-PnO2IEzazglmsTeyiluVT8tVPm2O1nS9Ua4cMzQq0Q5Qf45seLg67GjKAFJn3lQS-Fk3036yLPH8hmPJChHImV7gbmEKpB0L-RfAbRZ7KaOJFV7fqT24aMsgvp_2U5A2_NW--LW2EdroT3avFXuTgH8Gk3UFUW-FcyB1V-PxjdKGHNX3KMIxFw-bWq1dModbrGxQauOuUlV_a1NMNLV5lxcS_OpluqPE-QT7jVjwsiY_9EnoQp93_LxFs68HCKlYLX8x7vaJIwuGa74NB6TpDVHvrgvwKmP_x-wlLoburRH7EzXkrMcqVBQgmP7HrBEwwrHhKeDx1dshlA23I0xTRlMZORMXwzJgfGnsqXVeiEqdRmlzUTtoh0KriD5yZ8ZrerQzQQR1L_r85c3BVxrPVDDgDPkEWYXKf5BUqM-M2q-f-xqWnwsLCRwFMZqtDOQ7ZKt2m-rKLdBN-4tQhBRkp9QPvR5azeccjc2kzRhLkDnNNF7zr-s0dVrlf3-nc6nfsixPishMQXyErAzL4_HxAzmHKhza7QPHk6s7ABoYifr1BXNfT64kxVOmgZjMqsoresQtEI3r0DKSTkzs1jjrfZTG3LDFeuz1kjTGqcvsHVeBg6DKRoc6zhZpg9-WUyoIqdIQnWMjc6wUAnaY7KgoCRZHjJK9FPKDDpqzx7Ub9wrXPRZRvBaM0jGrkX9HOwLocoWGMiunDhvMrwU5EM95COYv-y2WCHOYL5oOUKOKGknWsrhZrpokLRVs1wiQi2eRgcR8-Uh8MlqOEyMctRZVQttimPf4ADX5JkI8X1VNjWq_lc5p3Rt3EyTpXqe1oLnLu5NDR_KW4W_7LzILhlmkQvMBspotrfHdEp0N2NUZFiFen1mPqINqHw5g8xWaCn9nnWgtteN0NMbguG46pY9oD3uDmMOx8WCvL_2cMw25HPwpxG9gMtk0T2YDAGgv4EbbZsOYoWhVUBftRGRdWvzm9AT7gftXS27m9_OKKNCpN8ARmWP9vXEzYamcPqSUoysdHmEZ92m7hCnuSyQt5tsC_b2XfPDfjPvCqCktYkDyVfEVvV4vTF7XGECTCOexEpvtIDTaP7mcd_J8PI_8eInakeJvgUCddX769l-G6FNzaU1XTI3YzYy4gZtpDwy4n0INjJoRNXvy-HWElF3TCxJEAXsQYSll4GoI5A-4ly7J-RY43ucXsw4MYtqL8V7Zl4wwpIsN0cAeD44u8Mk8Ip6DtUjuS1kFox4QZ2-kOH3HUSX46uboWADEfAbou-jPm6IdjS9zRA8BAz07TDroiVEhEQ1wtgFDgUIMGMo9ZaZoRhqiVJ25fP9d5tXwcc2gM0x5Gh_MOSVTdvjPsvH6vBKjNM9JKsy2AZ0jMKXwXGAgDgnELmsjEdXOdRmvhDq5v5YVO4wfh2Sf_9d2jOn74GXI_hOaopIAOHuDqbdVhlsEjDvooj8xDKEki-f3OnMiZgpWaHl7KAwcIf2u2Z_1naFkHE2aoHk8yo1Y90sMCnFD9ySp0R6hOCqPYR_y0?></g></svg>