<svg xmlns="http://www.w3.org/2000/svg" xmlns:xlink="http://www.w3.org/1999/xlink" contentStyleType="text/css" data-diagram-type="DESCRIPTION" height="498px" preserveAspectRatio="none" style="width:2209px;height:498px;background:#FAFAFA;" version="1.1" viewBox="0 0 2209 498" width="2209px" zoomAndPan="magnify"><?plantuml 1.2026.3?><defs/><g><rect fill="#FAFAFA" height="498" style="stroke:none;stroke-width:1;" width="2209" x="0" y="0"/><g class="title" data-source-line="202"><text fill="#000000" font-family="sans-serif" font-size="14" font-weight="700" lengthAdjust="spacing" textLength="373.8027" x="914.0986" y="22.9951">One Enterprise Repository, Many Engagements</text></g><!--cluster Motivation--><g class="cluster" data-qualified-name="Motivation" data-source-line="204" id="ent0002"><rect fill="#F7EEF9" height="322" rx="2" ry="2" style="stroke:#7B3F9A;stroke-width:1;" width="948" x="7" y="44.2969"/><text fill="#000000" font-family="sans-serif" font-size="12" font-weight="700" lengthAdjust="spacing" textLength="72.5918" x="444.7041" y="57.4355">Motivation</text></g><!--cluster Common--><g class="cluster" data-qualified-name="Common" data-source-line="213" id="ent0009"><rect fill="#EDE8E1" height="204" rx="2" ry="2" style="stroke:#8C7E6A;stroke-width:1;" width="252" x="983" y="44.2969"/><text fill="#000000" font-family="sans-serif" font-size="12" font-weight="700" lengthAdjust="spacing" textLength="58.8457" x="1079.5771" y="57.4355">Common</text></g><!--cluster Business--><g class="cluster" data-qualified-name="Business" data-source-line="218" id="ent0012"><rect fill="#FFFDEC" height="86" rx="2" ry="2" style="stroke:#B8860B;stroke-width:1;" width="204" x="1385" y="162.2969"/><text fill="#000000" font-family="sans-serif" font-size="12" font-weight="700" lengthAdjust="spacing" textLength="59.9121" x="1457.0439" y="175.4355">Business</text></g><!--cluster Team / Project A--><g class="cluster" data-qualified-name="Team . Project A" data-source-line="222" id="ent0014"><rect fill="#FFFDEC" height="204" rx="2" ry="2" style="stroke:#B8860B;stroke-width:1;" width="444" x="1010" y="280.2969"/><text fill="#000000" font-family="sans-serif" font-size="12" font-weight="700" lengthAdjust="spacing" textLength="111.1875" x="1176.4063" y="293.4355">Team / Project A</text></g><!--cluster Team / Project B--><g class="cluster" data-qualified-name="Team . Project B" data-source-line="229" id="ent0019"><rect fill="#FFFDEC" height="204" rx="2" ry="2" style="stroke:#B8860B;stroke-width:1;" width="444" x="1751" y="280.2969"/><text fill="#000000" font-family="sans-serif" font-size="12" font-weight="700" lengthAdjust="spacing" textLength="111.0469" x="1917.4766" y="293.4355">Team / Project B</text></g><!--cluster Application--><g class="cluster" data-qualified-name="Application" data-source-line="236" id="ent0024"><rect fill="#E8F8FF" height="86" rx="2" ry="2" style="stroke:#0078A0;stroke-width:1;" width="240" x="1483" y="398.2969"/><text fill="#000000" font-family="sans-serif" font-size="12" font-weight="700" lengthAdjust="spacing" textLength="76.541" x="1564.7295" y="411.4355">Application</text></g><!--entity REQ_kOU3al--><g class="entity" data-qualified-name="Motivation.REQ_kOU3al" data-source-line="205" id="ent0003"><rect fill="#EDD6F0" height="37.7231" rx="2" ry="2" style="stroke:#7B3F9A;stroke-width:0.5;" width="176.4965" x="410" y="76.2969"/><path d="M424.8738,90.9492 L433.7354,90.9492 L431.9631,99.3676 L423.1015,99.3676" fill="#252327" style="stroke:none;stroke-width:0.5;"/><text fill="#000000" font-family="sans-serif" font-size="12" lengthAdjust="spacing" textLength="134.959" x="441.5375" y="101.1899">Two-Tiered Repository</text></g><!--entity REQ_Gg4Hh4--><g class="entity" data-qualified-name="Motivation.REQ_Gg4Hh4" data-source-line="206" id="ent0004"><rect fill="#EDD6F0" height="37.7231" rx="2" ry="2" style="stroke:#7B3F9A;stroke-width:0.5;" width="175.0551" x="646.5" y="76.2969"/><path d="M661.3738,90.9492 L670.2354,90.9492 L668.4631,99.3676 L659.6015,99.3676" fill="#252327" style="stroke:none;stroke-width:0.5;"/><text fill="#000000" font-family="sans-serif" font-size="12" lengthAdjust="spacing" textLength="133.5176" x="678.0375" y="101.1899">Promotion Mechanism</text></g><!--entity OUT_edEkJa--><g class="entity" data-qualified-name="Motivation.OUT_edEkJa" data-source-line="207" id="ent0005"><rect fill="#EDD6F0" height="37.7231" rx="2" ry="2" style="stroke:#7B3F9A;stroke-width:0.5;" width="409.893" x="529" y="194.2969"/><ellipse cx="547.1969" cy="213.823" fill="none" rx="4.7631" ry="4.7631" style="stroke:#252327;stroke-width:1.44;"/><ellipse cx="547.1969" cy="213.823" fill="none" rx="2.4369" ry="2.4369" style="stroke:#252327;stroke-width:1.44;"/><path d="M550.2763,211.9732 L549.4345,210.799 L552.8683,208.3621 L553.7102,209.5363" fill="#252327"/><path d="M550.2985,212.3276 L553.0677,212.3276 L553.0677,213.7676 L550.2985,213.7676" fill="#252327"/><ellipse cx="547.1969" cy="213.823" fill="#252327" rx="0.9969" ry="0.9969" style="stroke:none;stroke-width:1.44;"/><text fill="#000000" font-family="sans-serif" font-size="12" lengthAdjust="spacing" textLength="368.3555" x="560.5375" y="219.1899">Proven Patterns Promoted and Adopted Across Engagements</text></g><!--entity OUT_620dTh--><g class="entity" data-qualified-name="Motivation.OUT_620dTh" data-source-line="208" id="ent0006"><rect fill="#EDD6F0" height="37.7231" rx="2" ry="2" style="stroke:#7B3F9A;stroke-width:0.5;" width="446.0102" x="23" y="194.2969"/><ellipse cx="41.1969" cy="213.823" fill="none" rx="4.7631" ry="4.7631" style="stroke:#252327;stroke-width:1.44;"/><ellipse cx="41.1969" cy="213.823" fill="none" rx="2.4369" ry="2.4369" style="stroke:#252327;stroke-width:1.44;"/><path d="M44.2763,211.9732 L43.4345,210.799 L46.8683,208.3621 L47.7102,209.5363" fill="#252327"/><path d="M44.2985,212.3276 L47.0677,212.3276 L47.0677,213.7676 L44.2985,213.7676" fill="#252327"/><ellipse cx="41.1969" cy="213.823" fill="#252327" rx="0.9969" ry="0.9969" style="stroke:none;stroke-width:1.44;"/><text fill="#000000" font-family="sans-serif" font-size="12" lengthAdjust="spacing" textLength="404.4727" x="54.5375" y="219.1899">Engagements Plan Concurrently Against a Shared, Staged Baseline</text></g><!--entity GOL_kCcPph--><g class="entity" data-qualified-name="Motivation.GOL_kCcPph" data-source-line="209" id="ent0007"><rect fill="#EDD6F0" height="37.7231" rx="2" ry="2" style="stroke:#7B3F9A;stroke-width:0.5;" width="322.143" x="506" y="312.2969"/><ellipse cx="524.8615" cy="331.1584" fill="none" rx="5.3169" ry="5.3169" style="stroke:#252327;stroke-width:1.44;"/><ellipse cx="524.8615" cy="331.1584" fill="none" rx="3.2123" ry="3.2123" style="stroke:#252327;stroke-width:1.44;"/><ellipse cx="524.8615" cy="331.1584" fill="#252327" rx="1.44" ry="1.44" style="stroke:none;stroke-width:1.44;"/><text fill="#000000" font-family="sans-serif" font-size="12" lengthAdjust="spacing" textLength="280.6055" x="537.5375" y="337.1899">Enable Cross-Engagement Architectural Reuse</text></g><!--entity GOL_Lm2Bn2--><g class="entity" data-qualified-name="Motivation.GOL_Lm2Bn2" data-source-line="210" id="ent0008"><rect fill="#EDD6F0" height="37.7231" rx="2" ry="2" style="stroke:#7B3F9A;stroke-width:0.5;" width="399.4926" x="46.5" y="312.2969"/><ellipse cx="65.3615" cy="331.1584" fill="none" rx="5.3169" ry="5.3169" style="stroke:#252327;stroke-width:1.44;"/><ellipse cx="65.3615" cy="331.1584" fill="none" rx="3.2123" ry="3.2123" style="stroke:#252327;stroke-width:1.44;"/><ellipse cx="65.3615" cy="331.1584" fill="#252327" rx="1.44" ry="1.44" style="stroke:none;stroke-width:1.44;"/><text fill="#000000" font-family="sans-serif" font-size="12" lengthAdjust="spacing" textLength="357.9551" x="78.0375" y="337.1899">Plan Collaboratively in a Unified, Staged Repository System</text></g><!--entity PRC_0Rz5Ex--><g class="entity" data-qualified-name="Common.PRC_0Rz5Ex" data-source-line="214" id="ent0010"><rect fill="#E0D8CC" height="37.7231" rx="2" ry="2" style="stroke:#8C7E6A;stroke-width:0.5;" width="146.2973" x="1073" y="76.2969"/><path d="M1085.88,90.8384 L1092.8585,90.8384 L1092.8585,89.3984 L1097.8431,95.1584 L1092.8585,100.9184 L1092.8585,99.4784 L1085.88,99.4784" fill="#252327" style="stroke:none;stroke-width:0.5;"/><text fill="#000000" font-family="sans-serif" font-size="12" lengthAdjust="spacing" textLength="104.7598" x="1104.5375" y="101.1899">Promote Artifacts</text></g><!--entity SRV_Uv9Wx9--><g class="entity" data-qualified-name="Common.SRV_Uv9Wx9" data-source-line="215" id="ent0011"><rect fill="#E0D8CC" height="37.7231" rx="2" ry="2" style="stroke:#8C7E6A;stroke-width:0.5;" width="219.393" x="999.5" y="194.2969"/><path d="M1013.0446,208.8384 L1021.02,208.8384 A3.1015,3.1015 0 0 1 1021.02,217.4784 L1013.0446,217.4784 A3.1015,3.1015 0 0 1 1013.0446,208.8384" fill="#252327" style="stroke:none;stroke-width:0.5;"/><text fill="#000000" font-family="sans-serif" font-size="12" lengthAdjust="spacing" textLength="177.8555" x="1031.0375" y="219.1899">Repository Promotion Service</text></g><!--entity BOB_6Uok0b--><g class="entity" data-qualified-name="Business.BOB_6Uok0b" data-source-line="219" id="ent0013"><rect fill="#FFFAC8" height="37.7231" rx="2" ry="2" style="stroke:#B8860B;stroke-width:0.5;" width="171.4282" x="1401.5" y="194.2969"/><path d="M1414.7123,208.9492 L1426.0108,208.9492 L1426.0108,210.3892 L1414.7123,210.3892" fill="#252327"/><path d="M1414.7123,215.9276 L1426.0108,215.9276 L1426.0108,217.3676 L1414.7123,217.3676" fill="#252327"/><path d="M1414.7123,210.3892 L1414.7123,215.9276 L1416.1523,215.9276 L1416.1523,210.3892" fill="#252327"/><path d="M1424.5708,210.3892 L1424.5708,215.9276 L1426.0108,215.9276 L1426.0108,210.3892" fill="#252327"/><path d="M1414.7123,210.5553 L1426.0108,210.5553 L1426.0108,211.9953 L1414.7123,211.9953" fill="#252327"/><text fill="#000000" font-family="sans-serif" font-size="12" lengthAdjust="spacing" textLength="129.8906" x="1433.0375" y="219.1899">Enterprise Repository</text></g><!--entity BOB_so7gfN--><g class="entity" data-qualified-name="Team . Project A.BOB_so7gfN" data-source-line="223" id="ent0015"><rect fill="#FFFAC8" height="37.7231" rx="2" ry="2" style="stroke:#B8860B;stroke-width:0.5;" width="186.2407" x="1252" y="312.2969"/><path d="M1265.2123,326.9492 L1276.5108,326.9492 L1276.5108,328.3892 L1265.2123,328.3892" fill="#252327"/><path d="M1265.2123,333.9276 L1276.5108,333.9276 L1276.5108,335.3676 L1265.2123,335.3676" fill="#252327"/><path d="M1265.2123,328.3892 L1265.2123,333.9276 L1266.6523,333.9276 L1266.6523,328.3892" fill="#252327"/><path d="M1275.0708,328.3892 L1275.0708,333.9276 L1276.5108,333.9276 L1276.5108,328.3892" fill="#252327"/><path d="M1265.2123,328.5553 L1276.5108,328.5553 L1276.5108,329.9953 L1265.2123,329.9953" fill="#252327"/><text fill="#000000" font-family="sans-serif" font-size="12" lengthAdjust="spacing" textLength="144.7031" x="1283.5375" y="337.1899">Engagement Repository</text></g><!--entity ACT_Nn7Oo7--><g class="entity" data-qualified-name="Team . Project A.ACT_Nn7Oo7" data-source-line="224" id="ent0016"><rect fill="#FFFAC8" height="37.7231" rx="2" ry="2" style="stroke:#B8860B;stroke-width:0.5;" width="95.6078" x="1026" y="430.2969"/><ellipse cx="1044.8615" cy="444.7276" fill="none" rx="2.1046" ry="2.1046" style="stroke:#252327;stroke-width:1.44;"/><path d="M1044.1415,446.8323 L1044.1415,451.3738 L1045.5815,451.3738 L1045.5815,446.8323" fill="#252327"/><path d="M1042.2917,455.295 L1041.2283,454.3203 L1044.3298,450.8864 L1045.3932,451.8612" fill="#252327"/><path d="M1044.3298,451.8612 L1045.3932,450.8864 L1048.4948,454.3203 L1047.4314,455.295" fill="#252327"/><path d="M1041.5385,448.5492 L1048.1846,448.5492 L1048.1846,449.9892 L1041.5385,449.9892" fill="#252327"/><text fill="#000000" font-family="sans-serif" font-size="12" lengthAdjust="spacing" textLength="54.0703" x="1057.5375" y="455.1899">Architect</text></g><!--entity ACT_Pp8Qq8--><g class="entity" data-qualified-name="Team . Project A.ACT_Pp8Qq8" data-source-line="225" id="ent0017"><rect fill="#FFFAC8" height="37.7231" rx="2" ry="2" style="stroke:#B8860B;stroke-width:0.5;" width="103.2543" x="1182.5" y="430.2969"/><ellipse cx="1201.3615" cy="444.7276" fill="none" rx="2.1046" ry="2.1046" style="stroke:#252327;stroke-width:1.44;"/><path d="M1200.6415,446.8323 L1200.6415,451.3738 L1202.0815,451.3738 L1202.0815,446.8323" fill="#252327"/><path d="M1198.7917,455.295 L1197.7283,454.3203 L1200.8298,450.8864 L1201.8932,451.8612" fill="#252327"/><path d="M1200.8298,451.8612 L1201.8932,450.8864 L1204.9948,454.3203 L1203.9314,455.295" fill="#252327"/><path d="M1198.0385,448.5492 L1204.6846,448.5492 L1204.6846,449.9892 L1198.0385,449.9892" fill="#252327"/><text fill="#000000" font-family="sans-serif" font-size="12" lengthAdjust="spacing" textLength="61.7168" x="1214.0375" y="455.1899">Developer</text></g><!--entity ROL_udXPfB--><g class="entity" data-qualified-name="Team . Project A.ROL_udXPfB" data-source-line="226" id="ent0018"><rect fill="#E0D8CC" height="37.7231" rx="2" ry="2" style="stroke:#8C7E6A;stroke-width:0.5;" width="92.6196" x="1345.5" y="430.2969"/><path d="M1358.8231,444.1738 L1367.4631,444.1738 A2.2154,2.2154 0 0 1 1369.6785,446.3892 L1369.6785,451.9276 A2.2154,2.2154 0 0 1 1367.4631,454.143 L1358.8231,454.143" fill="#252327" style="stroke:none;stroke-width:0.5;"/><text fill="#000000" font-family="sans-serif" font-size="12" lengthAdjust="spacing" textLength="51.082" x="1377.0375" y="455.1899">AI Agent</text></g><!--entity BOB_so7gfN__2--><g class="entity" data-qualified-name="Team . Project B.BOB_so7gfN__2" data-source-line="230" id="ent0020"><rect fill="#FFFAC8" height="37.7231" rx="2" ry="2" style="stroke:#B8860B;stroke-width:0.5;" width="186.2407" x="1767" y="312.2969"/><path d="M1780.2123,326.9492 L1791.5108,326.9492 L1791.5108,328.3892 L1780.2123,328.3892" fill="#252327"/><path d="M1780.2123,333.9276 L1791.5108,333.9276 L1791.5108,335.3676 L1780.2123,335.3676" fill="#252327"/><path d="M1780.2123,328.3892 L1780.2123,333.9276 L1781.6523,333.9276 L1781.6523,328.3892" fill="#252327"/><path d="M1790.0708,328.3892 L1790.0708,333.9276 L1791.5108,333.9276 L1791.5108,328.3892" fill="#252327"/><path d="M1780.2123,328.5553 L1791.5108,328.5553 L1791.5108,329.9953 L1780.2123,329.9953" fill="#252327"/><text fill="#000000" font-family="sans-serif" font-size="12" lengthAdjust="spacing" textLength="144.7031" x="1798.5375" y="337.1899">Engagement Repository</text></g><!--entity ACT_Nn7Oo7__2--><g class="entity" data-qualified-name="Team . Project B.ACT_Nn7Oo7__2" data-source-line="231" id="ent0021"><rect fill="#FFFAC8" height="37.7231" rx="2" ry="2" style="stroke:#B8860B;stroke-width:0.5;" width="95.6078" x="1767" y="430.2969"/><ellipse cx="1785.8615" cy="444.7276" fill="none" rx="2.1046" ry="2.1046" style="stroke:#252327;stroke-width:1.44;"/><path d="M1785.1415,446.8323 L1785.1415,451.3738 L1786.5815,451.3738 L1786.5815,446.8323" fill="#252327"/><path d="M1783.2917,455.295 L1782.2283,454.3203 L1785.3298,450.8864 L1786.3932,451.8612" fill="#252327"/><path d="M1785.3298,451.8612 L1786.3932,450.8864 L1789.4948,454.3203 L1788.4314,455.295" fill="#252327"/><path d="M1782.5385,448.5492 L1789.1846,448.5492 L1789.1846,449.9892 L1782.5385,449.9892" fill="#252327"/><text fill="#000000" font-family="sans-serif" font-size="12" lengthAdjust="spacing" textLength="54.0703" x="1798.5375" y="455.1899">Architect</text></g><!--entity ACT_Pp8Qq8__2--><g class="entity" data-qualified-name="Team . Project B.ACT_Pp8Qq8__2" data-source-line="232" id="ent0022"><rect fill="#FFFAC8" height="37.7231" rx="2" ry="2" style="stroke:#B8860B;stroke-width:0.5;" width="103.2543" x="1923.5" y="430.2969"/><ellipse cx="1942.3615" cy="444.7276" fill="none" rx="2.1046" ry="2.1046" style="stroke:#252327;stroke-width:1.44;"/><path d="M1941.6415,446.8323 L1941.6415,451.3738 L1943.0815,451.3738 L1943.0815,446.8323" fill="#252327"/><path d="M1939.7917,455.295 L1938.7283,454.3203 L1941.8298,450.8864 L1942.8932,451.8612" fill="#252327"/><path d="M1941.8298,451.8612 L1942.8932,450.8864 L1945.9948,454.3203 L1944.9314,455.295" fill="#252327"/><path d="M1939.0385,448.5492 L1945.6846,448.5492 L1945.6846,449.9892 L1939.0385,449.9892" fill="#252327"/><text fill="#000000" font-family="sans-serif" font-size="12" lengthAdjust="spacing" textLength="61.7168" x="1955.0375" y="455.1899">Developer</text></g><!--entity ROL_udXPfB__2--><g class="entity" data-qualified-name="Team . Project B.ROL_udXPfB__2" data-source-line="233" id="ent0023"><rect fill="#E0D8CC" height="37.7231" rx="2" ry="2" style="stroke:#8C7E6A;stroke-width:0.5;" width="92.6196" x="2086.5" y="430.2969"/><path d="M2099.8231,444.1738 L2108.4631,444.1738 A2.2154,2.2154 0 0 1 2110.6785,446.3892 L2110.6785,451.9276 A2.2154,2.2154 0 0 1 2108.4631,454.143 L2099.8231,454.143" fill="#252327" style="stroke:none;stroke-width:0.5;"/><text fill="#000000" font-family="sans-serif" font-size="12" lengthAdjust="spacing" textLength="51.082" x="2118.0375" y="455.1899">AI Agent</text></g><!--entity DOB_4dO6js--><g class="entity" data-qualified-name="Application.DOB_4dO6js" data-source-line="237" id="ent0025"><rect fill="#CCF2FF" height="37.7231" rx="2" ry="2" style="stroke:#0078A0;stroke-width:0.5;" width="208.477" x="1499" y="430.2969"/><path d="M1512.3231,444.5061 L1523.4,444.5061 L1523.4,445.9461 L1512.3231,445.9461" fill="#252327"/><path d="M1512.3231,452.3707 L1523.4,452.3707 L1523.4,453.8107 L1512.3231,453.8107" fill="#252327"/><path d="M1512.3231,445.9461 L1512.3231,452.3707 L1513.7631,452.3707 L1513.7631,445.9461" fill="#252327"/><path d="M1521.96,445.9461 L1521.96,452.3707 L1523.4,452.3707 L1523.4,445.9461" fill="#252327"/><path d="M1512.3231,445.78 L1523.4,445.78 L1523.4,447.22 L1512.3231,447.22" fill="#252327"/><text fill="#000000" font-family="sans-serif" font-size="12" lengthAdjust="spacing" textLength="166.9395" x="1530.5375" y="455.1899">Global Entity Reference File</text></g><!--link REQ_kOU3al to REQ_Gg4Hh4--><!--link REQ_Gg4Hh4 to OUT_edEkJa--><!--link REQ_Gg4Hh4 to OUT_edEkJa--><g class="link" data-entity-1="ent0004" data-entity-2="ent0005" data-link-type="extension" data-source-line="266" id="lnk51"><path d="M763.17,114.5169 C763.17,136.4569 763.17,154.1469 763.17,176.0869" fill="none" id="REQ_Gg4Hh4-to-OUT_edEkJa" style="stroke:#181818;stroke-width:1;stroke-dasharray:7,7;"/><polygon fill="none" points="763.17,194.0869,769.17,176.0869,757.17,176.0869,763.17,194.0869" style="stroke:#181818;stroke-width:1;"/></g><!--link OUT_edEkJa to OUT_620dTh--><!--link OUT_620dTh to GOL_kCcPph--><!--link GOL_kCcPph to GOL_Lm2Bn2--><!--link PRC_0Rz5Ex to SRV_Uv9Wx9--><!--link PRC_0Rz5Ex to SRV_Uv9Wx9--><g class="link" data-entity-1="ent0010" data-entity-2="ent0011" data-link-type="extension" data-source-line="268" id="lnk53"><path d="M1170,114.5169 C1170,136.4569 1170,154.1469 1170,176.0869" fill="none" id="PRC_0Rz5Ex-to-SRV_Uv9Wx9" style="stroke:#181818;stroke-width:1;stroke-dasharray:7,7;"/><polygon fill="none" points="1170,194.0869,1176,176.0869,1164,176.0869,1170,194.0869" style="stroke:#181818;stroke-width:1;"/></g><!--link BOB_so7gfN to ACT_Nn7Oo7--><!--link ACT_Nn7Oo7 to BOB_so7gfN--><g class="link" data-entity-1="ent0016" data-entity-2="ent0015" data-link-type="dependency" data-source-line="257" id="lnk40"><path d="M1090,430.2169 C1090,398.4769 1090,338.2969 1090,338.2969 C1090,338.2969 1173.01,338.2969 1245.86,338.2969" fill="none" id="ACT_Nn7Oo7-to-BOB_so7gfN" style="stroke:#181818;stroke-width:1;"/><polygon fill="#181818" points="1251.86,338.2969,1242.86,334.2969,1246.86,338.2969,1242.86,342.2969,1251.86,338.2969" style="stroke:#181818;stroke-width:1;"/></g><!--link ACT_Nn7Oo7 to ACT_Pp8Qq8--><!--link ACT_Pp8Qq8 to ROL_udXPfB--><!--link BOB_so7gfN__2 to ACT_Nn7Oo7__2--><!--link ACT_Nn7Oo7__2 to BOB_so7gfN__2--><g class="link" data-entity-1="ent0021" data-entity-2="ent0020" data-link-type="dependency" data-source-line="272" id="lnk56"><path d="M1831,430.0769 C1831,408.1369 1831,378.4469 1831,356.5069" fill="none" id="ACT_Nn7Oo7__2-to-BOB_so7gfN__2" style="stroke:#181818;stroke-width:1;"/><polygon fill="#181818" points="1831,350.5069,1827,359.5069,1831,355.5069,1835,359.5069,1831,350.5069" style="stroke:#181818;stroke-width:1;"/></g><!--link ACT_Nn7Oo7__2 to ACT_Pp8Qq8__2--><!--link ACT_Pp8Qq8__2 to ROL_udXPfB__2--><!--link BOB_6Uok0b to BOB_so7gfN--><!--link BOB_6Uok0b to BOB_so7gfN--><g class="link" data-entity-1="ent0013" data-entity-2="ent0015" data-link-type="association" data-source-line="260" id="lnk43"><path d="M1425.83,232.5169 C1425.83,254.4569 1425.83,290.1469 1425.83,312.0869" fill="none" id="BOB_6Uok0b-BOB_so7gfN-1" style="stroke:#181818;stroke-width:1;"/><text fill="#000000" font-family="sans-serif" font-size="12" lengthAdjust="spacing" textLength="672.1641" x="752.83" y="269.4355">1 -&gt; 1..* | An enterprise repository serves and receives promotions from one or more engagement repositories.</text></g><!--link BOB_so7gfN to BOB_so7gfN__2--><!--link ACT_Pp8Qq8 to BOB_so7gfN--><g class="link" data-entity-1="ent0017" data-entity-2="ent0015" data-link-type="dependency" data-source-line="258" id="lnk41"><path d="M1268.75,430.0769 C1268.75,408.1369 1268.75,378.4469 1268.75,356.5069" fill="none" id="ACT_Pp8Qq8-to-BOB_so7gfN" style="stroke:#181818;stroke-width:1;"/><polygon fill="#181818" points="1268.75,350.5069,1264.75,359.5069,1268.75,355.5069,1272.75,359.5069,1268.75,350.5069" style="stroke:#181818;stroke-width:1;"/></g><!--link PRC_0Rz5Ex to BOB_6Uok0b--><g class="link" data-entity-1="ent0010" data-entity-2="ent0013" data-link-type="dependency" data-source-line="259" id="lnk42"><path d="M1219.15,95.2969 C1319.35,95.2969 1487,95.2969 1487,95.2969 C1487,95.2969 1487,154.6369 1487,188.0769" fill="none" id="PRC_0Rz5Ex-to-BOB_6Uok0b" style="stroke:#181818;stroke-width:1;"/><polygon fill="#181818" points="1487,194.0769,1491,185.0769,1487,189.0769,1483,185.0769,1487,194.0769" style="stroke:#181818;stroke-width:1;"/></g><!--link BOB_6Uok0b to DOB_4dO6js--><g class="link" data-entity-1="ent0013" data-entity-2="ent0025" data-link-type="association" data-source-line="261" id="lnk45"><path d="M1535.75,232.6069 C1535.75,276.9769 1535.75,385.7469 1535.75,430.0469" fill="none" id="BOB_6Uok0b-DOB_4dO6js" style="stroke:#181818;stroke-width:1;"/></g><!--link PRC_0Rz5Ex to BOB_so7gfN--><g class="link" data-entity-1="ent0010" data-entity-2="ent0015" data-link-type="dependency" data-source-line="262" id="lnk46"><path d="M1219.26,105.2969 C1269.36,105.2969 1326.75,105.2969 1326.75,105.2969 C1326.75,105.2969 1326.75,251.3769 1326.75,306.0269" fill="none" id="PRC_0Rz5Ex-to-BOB_so7gfN" style="stroke:#181818;stroke-width:1;"/><polygon fill="#181818" points="1326.75,312.0269,1330.75,303.0269,1326.75,307.0269,1322.75,303.0269,1326.75,312.0269" style="stroke:#181818;stroke-width:1;"/></g><!--link BOB_so7gfN to DOB_4dO6js--><g class="link" data-entity-1="ent0015" data-entity-2="ent0025" data-link-type="association" data-source-line="263" id="lnk48"><path d="M1438.25,335.2969 C1478.87,335.2969 1517.38,335.2969 1517.38,335.2969 C1517.38,335.2969 1517.38,397.7669 1517.38,430.2169" fill="none" id="BOB_so7gfN-DOB_4dO6js" style="stroke:#181818;stroke-width:1;"/></g><!--link ROL_udXPfB to BOB_so7gfN--><g class="link" data-entity-1="ent0018" data-entity-2="ent0015" data-link-type="association" data-source-line="264" id="lnk49"><path d="M1391.75,430.0769 C1391.75,408.1369 1391.75,372.4469 1391.75,350.5069" fill="none" id="ROL_udXPfB-BOB_so7gfN" style="stroke:#181818;stroke-width:1;"/></g><!--link OUT_edEkJa to GOL_kCcPph--><g class="link" data-entity-1="ent0005" data-entity-2="ent0007" data-link-type="extension" data-source-line="265" id="lnk50"><path d="M678.5,232.5169 C678.5,254.4569 678.5,272.1469 678.5,294.0869" fill="none" id="OUT_edEkJa-to-GOL_kCcPph" style="stroke:#181818;stroke-width:1;stroke-dasharray:7,7;"/><polygon fill="none" points="678.5,312.0869,684.5,294.0869,672.5,294.0869,678.5,312.0869" style="stroke:#181818;stroke-width:1;"/></g><!--link REQ_kOU3al to OUT_edEkJa--><g class="link" data-entity-1="ent0003" data-entity-2="ent0005" data-link-type="extension" data-source-line="267" id="lnk52"><path d="M557.5,114.5169 C557.5,136.4569 557.5,154.1469 557.5,176.0869" fill="none" id="REQ_kOU3al-to-OUT_edEkJa" style="stroke:#181818;stroke-width:1;stroke-dasharray:7,7;"/><polygon fill="none" points="557.5,194.0869,563.5,176.0869,551.5,176.0869,557.5,194.0869" style="stroke:#181818;stroke-width:1;"/></g><!--reverse link REQ_Gg4Hh4 to SRV_Uv9Wx9--><g class="link" data-entity-1="ent0004" data-entity-2="ent0011" data-link-type="extension" data-source-line="269" id="lnk55"><path d="M839.83,95.2969 C929.07,95.2969 1036.25,95.2969 1036.25,95.2969 C1036.25,95.2969 1036.25,160.6369 1036.25,194.0769" fill="none" id="REQ_Gg4Hh4-backto-SRV_Uv9Wx9" style="stroke:#181818;stroke-width:1;stroke-dasharray:7,7;"/><polygon fill="none" points="821.83,95.2969,839.83,101.2969,839.83,89.2969,821.83,95.2969" style="stroke:#181818;stroke-width:1;"/></g><!--link ACT_Pp8Qq8__2 to BOB_so7gfN__2--><g class="link" data-entity-1="ent0022" data-entity-2="ent0020" data-link-type="dependency" data-source-line="273" id="lnk57"><path d="M1938.25,430.0769 C1938.25,408.1369 1938.25,378.4469 1938.25,356.5069" fill="none" id="ACT_Pp8Qq8__2-to-BOB_so7gfN__2" style="stroke:#181818;stroke-width:1;"/><polygon fill="#181818" points="1938.25,350.5069,1934.25,359.5069,1938.25,355.5069,1942.25,359.5069,1938.25,350.5069" style="stroke:#181818;stroke-width:1;"/></g><!--link ROL_udXPfB__2 to BOB_so7gfN__2--><g class="link" data-entity-1="ent0023" data-entity-2="ent0020" data-link-type="association" data-source-line="274" id="lnk58"><path d="M2133,430.0769 C2133,396.6369 2133,331.2969 2133,331.2969 C2133,331.2969 2032.27,331.2969 1953.19,331.2969" fill="none" id="ROL_udXPfB__2-BOB_so7gfN__2" style="stroke:#181818;stroke-width:1;"/></g><!--link BOB_6Uok0b to BOB_so7gfN__2--><g class="link" data-entity-1="ent0013" data-entity-2="ent0020" data-link-type="association" data-source-line="275" id="lnk59"><path d="M1554.12,232.4269 C1554.12,263.2069 1554.12,320.2969 1554.12,320.2969 C1554.12,320.2969 1676.99,320.2969 1766.98,320.2969" fill="none" id="BOB_6Uok0b-BOB_so7gfN__2" style="stroke:#181818;stroke-width:1;"/></g><!--link BOB_so7gfN__2 to DOB_4dO6js--><g class="link" data-entity-1="ent0020" data-entity-2="ent0025" data-link-type="association" data-source-line="276" id="lnk61"><path d="M1766.88,343.2969 C1715.56,343.2969 1662.17,343.2969 1662.17,343.2969 C1662.17,343.2969 1662.17,399.2569 1662.17,429.8569" fill="none" id="BOB_so7gfN__2-DOB_4dO6js" style="stroke:#181818;stroke-width:1;"/></g><!--link PRC_0Rz5Ex to DOB_4dO6js--><g class="link" data-entity-1="ent0010" data-entity-2="ent0025" data-link-type="dependency" data-source-line="278" id="lnk62"><path d="M1219.13,86.2969 C1351.52,86.2969 1617.33,86.2969 1617.33,86.2969 C1617.33,86.2969 1617.33,349.5969 1617.33,424.2869" fill="none" id="PRC_0Rz5Ex-to-DOB_4dO6js" style="stroke:#181818;stroke-width:1;stroke-dasharray:7,7;"/><polygon fill="#181818" points="1617.33,430.2869,1621.33,421.2869,1617.33,425.2869,1613.33,421.2869,1617.33,430.2869" style="stroke:#181818;stroke-width:1;"/></g><!--link REQ_kOU3al to OUT_620dTh--><g class="link" data-entity-1="ent0003" data-entity-2="ent0006" data-link-type="extension" data-source-line="280" id="lnk63"><path d="M439.5,114.5169 C439.5,136.4569 439.5,154.1469 439.5,176.0869" fill="none" id="REQ_kOU3al-to-OUT_620dTh" style="stroke:#181818;stroke-width:1;stroke-dasharray:7,7;"/><polygon fill="none" points="439.5,194.0869,445.5,176.0869,433.5,176.0869,439.5,194.0869" style="stroke:#181818;stroke-width:1;"/></g><!--link OUT_620dTh to GOL_Lm2Bn2--><g class="link" data-entity-1="ent0006" data-entity-2="ent0008" data-link-type="extension" data-source-line="281" id="lnk64"><path d="M246,232.5169 C246,254.4569 246,272.1469 246,294.0869" fill="none" id="OUT_620dTh-to-GOL_Lm2Bn2" style="stroke:#181818;stroke-width:1;stroke-dasharray:7,7;"/><polygon fill="none" points="246,312.0869,252,294.0869,240,294.0869,246,312.0869" style="stroke:#181818;stroke-width:1;"/></g><?plantuml-src xLhhRgD85lxlfwZrh3GxKI0Ott0hYMGxTlUiqfrCBhqhZLPM1Sg62QQO0jkTJ8-q3x5Fk4-ofm2RCeR2E9xLIjlgwMbCdU_KgQzEdGjWEnP1GKWOeU6BJsgruDdnVCpm75baYXTkEAPU-0dF2Rh7Nd1Fc3FDbxbtNWbgwC9WO6EBhXnlXgRO3OWmmkZ2iqpAFC9GIxZ_XCtdMJGuf2vbwBjnd_yHhN8TZt1B4MMXJOK1Zrea83xgQE94s7lcDmsjzYUm5R3eZhYJlccI8FZBbD7vAGhfANBn4t5_GFm6KdwsQ1WIwn_A9Opbu2QFVXbquHU2h-ZAAuC3RLwXWcio3SiKk21JgE3EcTcb6XWNob4ncp4omw53YnP15KK2AkQEAa2Q32aXZYeHOpAqX3MgH7J9q3BAg19pjOCF0cVcpObNo7KElHkCnCbodIi5oXoimB5IiCov2fmg1KiTgyYXWe2QZioX54M2aTCa0vRI90ENqYG3xq5J5ZwaSvy6ZeIb4qK6AgRf98yd4IdXwIIVA14j8UeadoaHBMFgf82giKjN1H1LlSoJBYP7NVW540ahAYUb02QXG-Li5C1aFAWH3Rl07xsfko2UIVOdOmEfo4YAgqvBYgtEJOezXA0xWbtdLHPvLFMh32LdIGuj9KeEB-LA3j-3hbq5KFijePZRFvabW8gPR8sgdiRMoEevR8qy987T-mG2UuadAShN4g2SfL9qALkb6afPAzMm1tkxEXvWO0PTHHN7IZ4LVKi0LdSl0LpTmmJmlaucT3743B4tSydvUT_tNSUC-7uFZP8F2YylqMyrX0RPtcbaZ8tnc8zGPX6MtDMqhj7NQh_dgnyi0h0u2CfqZyVZgz4mgtjW61rjKAGR4ljy3wklHiQeaTLi3BkZJhz8yqSQEikzE1btHwDnBwkzEsYEUuNQdn9E9jWCAPCmqXyQrHZPQAPFly3TOwgsS8XBr0w7OxsgVymeTejtxgeprgfnInUXIUVac2fzHdcNMwXIkpA6msh-nSYl2uSHtkCSqr96NN9CCmEUnSn3LTh_bq-23aa_VsJXU8owwwqjjIox7TxOAlbFemxeJkIGRsdpMzhybZQ_fSt_KjeCVEQ41FqPCzDsvZWaast7H-V1SeQ-p5qlkAZROUY_EpjRhLRgggbIDZlJDKqx0uawMZfaDQ1VBkeQqb2Z0__LByzDXvakGIRSDkh8VBcej-g8NTGRQg-EqDHntOkwHprIXypDw3Evg7-dj_MctbtVK5QE5TeSqAoVNPxxEBIHTL7_s5MRRTHMUzgofJOq6uQrp_pdQptHkjOZWjfgnq2DfjfkNRVKhWuvNkrqhhjgMqSzjTsvDjGMZ6jggoLL4m4YiHWHOHiDLJSIZJ3MrEE9IkpHDDHLMssx0rTBleWF_5uUY9DyATkj-DI_RRisbkb09MgfEZ2hmVzZq_GoVYCK0De7mDg0MlB5h_UoBGS1tqPrL39LfxsFWKMK2q7sI7GtkICqOK7ShBKdD0iyOHi5WDu1i3QS6Y3Es13NAAMxMnqLJTLIU-rz32oYcoUVOqSX8uf2BTKuA0eLwTCFZ6f5-lXmXgUDnbX_lhuY9fEqUpGo8NGbvggTXD3cMmdOqQch-jjI1RXUmq0TjTUyxgaj7PpOw5v3e8OWtbGxSDdaaHiIGbD-0dZ0W6YjjssTHvt8bwERUJ3PYhYN775NayhdQ96_0rmq82CrF-kguRPKdcTr9VbtgO0r434xhvjDoL-4n62XhZgIqIsrnRELRV3K2raOSeEj66yn4MgqOyLsyBAstLKDh2CTHIBmhxvifxyLkFhGV8EvIGbuj6oaHou0lex11H3_6zlD_T-00BvpNu7xUziVKXyQNVH4mn3QNilXjImqSRLQw8H0-mtqooCl90oM6V3MENgTIjdBAVg8lHSOc-5Pv3r1hRQfWr4zRGVhID8S2eZpVAVyBJ2nIowWeFlz4ZsigFBW44OimH8-mNPtW0DqD_ffydppsCHkzLbk6PrJRYpwI4mRUqumBvpZ_QprmMuLpv54-Qp-9V7GBGw1Loz8veCrOSz2VOlw_BflCWfnHE2Nsv3sQZ3_pUF3X5YZvx_YQlCBEj6jYpqqf9wvO0nkk2-eFyEE5uG8etiR0zEdw3u4SGkQcO3mnsIvTdHqpNgmY-tWTKF62Fm4GaE-IYMr2FKv90Gb2mQLnXrP1D64ITCBixs_kPuy3yrRlyfioJ9T5pzH1ewu9B1InuD5FdhEr15McVeLkdy9GZBVdVrwhWyy7TerqU7Z9ojSEFSPIu6XIRh8SJy2J8JE5Dg-QEFJZXgCkBqRJhIxr_ReIx7c90fjQHRMblhuVIp89qcRLvZa_kxpv77P-zkNNcQbw-TJ757mhAh0fanxbF67d233fzXzG0F63Mu6ayuZVTQUCiOz4EZ7p_ZoeewWVsmZDtwwfv41xSwcd_QOBUhljoRRd8Ij2TOFm41_V_Wm-UHrRsZt8FrN14u1zGcJwR_rZPz-DIGn57BpjjK_GWG1WgA86JzSuQ4IZit2-lljT23Vhy7_ndvD9leVlMM7Jb5XrwHJLDuuhcrxxuJdu1nK_5Yym0IXTT-ovBrBdo3sGqHmmXVOk2aaV0yAgh7ZHc5g-xag67a56zUoRZg_1Dp2xv6YAAY_2AdYuXV8LEyG56a4n_br_JaOcYKs1boybjOBIFdPTYoBUCbNgsAQJoztf8Had5xcIYMfChtSaH9IN7gPAvMaeZGXx4W9OJprxnqf8PIabxbIIK18BtVvIi_wrecIJCfzQ-kNPEgrxEQNn00kcwQAL33-qb28pn9gjgC2U1TKIrvS90TRP2cNeaQHeEqHSREIZqE4T2QQAqwEta5f3w8DLJr1Nr7VGoJDc2nDx3o7ao1oTJXsnE4__7Mo3vAFZ3t-dXFDAIEWPHCYDreS4gYrz535NxyADXQi85bV7Z0PIdTc_LciC2WSc-ZDfN0AX7CN3Gc7JJYusI71p6X8E0hfvVhpEk6KmnvdqnBwzp__XGB-kdfEBU9oxY6AS9w3MBP_YYo6Lr1HXYYqYSCGDUEQ6igsh6zlyPNZpplZMnwzIrtMpRDZnJl2HxyNYa7m56i15lCr84WoYk0UipWiapWiiqrOXZOJbYYyX4rvFnL2yocgrt_Wr48F1zGnteykU9dFtPU_pOPPpKqZWdoes3q8pwTePJkcdSfmoqonabVMeeYNwRNiI_NKGKw5y1jRavKLnzFm6il-1m00?></g></svg>