<svg xmlns="http://www.w3.org/2000/svg" xmlns:xlink="http://www.w3.org/1999/xlink" contentStyleType="text/css" data-diagram-type="DESCRIPTION" height="1380px" preserveAspectRatio="none" style="width:600px;height:1380px;background:#FAFAFA;" version="1.1" viewBox="0 0 600 1380" width="600px" zoomAndPan="magnify"><?plantuml 1.2026.3?><defs/><g><rect fill="#FAFAFA" height="1380" style="stroke:none;stroke-width:1;" width="600" x="0" y="0"/><g class="title" data-source-line="80"><text fill="#000000" font-family="sans-serif" font-size="14" font-weight="700" lengthAdjust="spacing" textLength="140.1436" x="226.8747" y="22.9951">Promote Artifacts</text></g><!--cluster PRC_0Rz5Ex--><g class="cluster" data-qualified-name="PRC_0Rz5Ex" data-source-line="82" id="ent0002"><rect fill="#E0D8CC" height="1322" rx="2" ry="2" style="stroke:#8C7E6A;stroke-width:1;" width="336" x="7" y="44.2969"/><path d="M106.8681,50.8384 L113.8465,50.8384 L113.8465,49.3984 L118.8311,55.1584 L113.8465,60.9184 L113.8465,59.4784 L106.8681,59.4784" fill="#252327" style="stroke:none;stroke-width:1;"/><text fill="#000000" font-family="sans-serif" font-size="12" font-weight="700" lengthAdjust="spacing" textLength="120.123" x="125.8889" y="61.1899">Promote Artifacts</text><text fill="#000000" font-family="sans-serif" font-size="12" font-weight="700" lengthAdjust="spacing" textLength="132.0879" x="108.9561" y="75.1586">&#171;Business Process&#187;</text></g><!--entity EVT_Dm0CyE--><g class="entity" data-qualified-name="PRC_0Rz5Ex.EVT_Dm0CyE" data-source-line="83" id="ent0003"><rect fill="#E0D8CC" height="51.6918" rx="2" ry="2" style="stroke:#8C7E6A;stroke-width:0.5;" width="190.6821" x="37.5" y="366.2969"/><path d="M50.9338,380.7276 L57.1369,380.7276 A4.2092,4.2092 0 0 1 57.1369,389.5892 L50.9338,389.5892 L53.26,385.1584" fill="#252327" style="stroke:none;stroke-width:0.5;"/><text fill="#000000" font-family="sans-serif" font-size="12" lengthAdjust="spacing" textLength="149.1445" x="69.0375" y="391.1899">Promotion Plan Prepared</text><text fill="#000000" font-family="sans-serif" font-size="12" lengthAdjust="spacing" textLength="119.9238" x="47.5" y="405.1586">&#171;Application Event&#187;</text></g><!--entity EVT_fWpwu5--><g class="entity" data-qualified-name="PRC_0Rz5Ex.EVT_fWpwu5" data-source-line="84" id="ent0004"><rect fill="#E0D8CC" height="51.6918" rx="2" ry="2" style="stroke:#8C7E6A;stroke-width:0.5;" width="217.4828" x="93.5" y="498.2969"/><path d="M106.9338,512.7276 L113.1369,512.7276 A4.2092,4.2092 0 0 1 113.1369,521.5892 L106.9338,521.5892 L109.26,517.1584" fill="#252327" style="stroke:none;stroke-width:0.5;"/><text fill="#000000" font-family="sans-serif" font-size="12" lengthAdjust="spacing" textLength="175.9453" x="125.0375" y="523.1899">Promotion Conflicts Detected</text><text fill="#000000" font-family="sans-serif" font-size="12" lengthAdjust="spacing" textLength="119.9238" x="103.5" y="537.1586">&#171;Application Event&#187;</text></g><!--entity FNC_54UnNB--><g class="entity" data-qualified-name="PRC_0Rz5Ex.FNC_54UnNB" data-source-line="85" id="ent0005"><rect fill="#E0D8CC" height="51.6918" rx="2" ry="2" style="stroke:#8C7E6A;stroke-width:0.5;" width="215.2856" x="81.5" y="762.2969"/><path d="M94.7123,785.2569 L94.7123,778.2784 L100.3615,775.7307 L106.0108,778.2784 L106.0108,785.2569 L100.3615,782.4876" fill="#252327" style="stroke:none;stroke-width:0.5;"/><text fill="#000000" font-family="sans-serif" font-size="12" lengthAdjust="spacing" textLength="173.748" x="113.0375" y="787.1899">Validate Promotion Selection</text><text fill="#000000" font-family="sans-serif" font-size="12" lengthAdjust="spacing" textLength="137.2441" x="91.5" y="801.1586">&#171;Application Function&#187;</text></g><!--entity FNC_6xjXsw--><g class="entity" data-qualified-name="PRC_0Rz5Ex.FNC_6xjXsw" data-source-line="86" id="ent0006"><rect fill="#E0D8CC" height="51.6918" rx="2" ry="2" style="stroke:#8C7E6A;stroke-width:0.5;" width="157.2441" x="110.5" y="1026.2969"/><path d="M123.7123,1049.2569 L123.7123,1042.2784 L129.3615,1039.7307 L135.0108,1042.2784 L135.0108,1049.2569 L129.3615,1046.4876" fill="#252327" style="stroke:none;stroke-width:0.5;"/><text fill="#000000" font-family="sans-serif" font-size="12" lengthAdjust="spacing" textLength="113.7012" x="142.0375" y="1051.1899">Execute Promotion</text><text fill="#000000" font-family="sans-serif" font-size="12" lengthAdjust="spacing" textLength="137.2441" x="120.5" y="1065.1586">&#171;Application Function&#187;</text></g><!--entity FNC_A0dOFm--><g class="entity" data-qualified-name="PRC_0Rz5Ex.FNC_A0dOFm" data-source-line="87" id="ent0007"><rect fill="#E0D8CC" height="51.6918" rx="2" ry="2" style="stroke:#8C7E6A;stroke-width:0.5;" width="209.602" x="95" y="630.2969"/><path d="M108.2123,653.2569 L108.2123,646.2784 L113.8615,643.7307 L119.5108,646.2784 L119.5108,653.2569 L113.8615,650.4876" fill="#252327" style="stroke:none;stroke-width:0.5;"/><text fill="#000000" font-family="sans-serif" font-size="12" lengthAdjust="spacing" textLength="168.0645" x="126.5375" y="655.1899">Resolve Promotion Conflicts</text><text fill="#000000" font-family="sans-serif" font-size="12" lengthAdjust="spacing" textLength="123.1113" x="105" y="669.1586">&#171;Business Function&#187;</text></g><!--entity FNC_A_wFZl--><g class="entity" data-qualified-name="PRC_0Rz5Ex.FNC_A_wFZl" data-source-line="88" id="ent0008"><rect fill="#E0D8CC" height="51.6918" rx="2" ry="2" style="stroke:#8C7E6A;stroke-width:0.5;" width="157.2441" x="110.5" y="894.2969"/><path d="M123.7123,917.2569 L123.7123,910.2784 L129.3615,907.7307 L135.0108,910.2784 L135.0108,917.2569 L129.3615,914.4876" fill="#252327" style="stroke:none;stroke-width:0.5;"/><text fill="#000000" font-family="sans-serif" font-size="12" lengthAdjust="spacing" textLength="109.0488" x="142.0375" y="919.1899">Run Quality Gates</text><text fill="#000000" font-family="sans-serif" font-size="12" lengthAdjust="spacing" textLength="137.2441" x="120.5" y="933.1586">&#171;Application Function&#187;</text></g><!--entity FNC_NGjUCa--><g class="entity" data-qualified-name="PRC_0Rz5Ex.FNC_NGjUCa" data-source-line="89" id="ent0009"><rect fill="#E0D8CC" height="51.6918" rx="2" ry="2" style="stroke:#8C7E6A;stroke-width:0.5;" width="260.936" x="48.5" y="1290.2969"/><path d="M61.7123,1313.2569 L61.7123,1306.2784 L67.3615,1303.7307 L73.0108,1306.2784 L73.0108,1313.2569 L67.3615,1310.4876" fill="#252327" style="stroke:none;stroke-width:0.5;"/><text fill="#000000" font-family="sans-serif" font-size="12" lengthAdjust="spacing" textLength="219.3984" x="80.0375" y="1315.1899">Verify Artifact Integrity &amp; Coherence</text><text fill="#000000" font-family="sans-serif" font-size="12" lengthAdjust="spacing" textLength="137.2441" x="58.5" y="1329.1586">&#171;Application Function&#187;</text></g><!--entity FNC_Z2rrfP--><g class="entity" data-qualified-name="PRC_0Rz5Ex.FNC_Z2rrfP" data-source-line="90" id="ent0010"><rect fill="#E0D8CC" height="51.6918" rx="2" ry="2" style="stroke:#8C7E6A;stroke-width:0.5;" width="218.3442" x="31" y="102.2969"/><path d="M44.2123,125.2569 L44.2123,118.2784 L49.8615,115.7307 L55.5108,118.2784 L55.5108,125.2569 L49.8615,122.4876" fill="#252327" style="stroke:none;stroke-width:0.5;"/><text fill="#000000" font-family="sans-serif" font-size="12" lengthAdjust="spacing" textLength="176.8066" x="62.5375" y="127.1899">Select Artifacts for Promotion</text><text fill="#000000" font-family="sans-serif" font-size="12" lengthAdjust="spacing" textLength="123.1113" x="41" y="141.1586">&#171;Business Function&#187;</text></g><!--entity FNC_ndMgDn--><g class="entity" data-qualified-name="PRC_0Rz5Ex.FNC_ndMgDn" data-source-line="91" id="ent0011"><rect fill="#E0D8CC" height="51.6918" rx="2" ry="2" style="stroke:#8C7E6A;stroke-width:0.5;" width="202.4828" x="39" y="234.2969"/><path d="M52.2123,257.2569 L52.2123,250.2784 L57.8615,247.7307 L63.5108,250.2784 L63.5108,257.2569 L57.8615,254.4876" fill="#252327" style="stroke:none;stroke-width:0.5;"/><text fill="#000000" font-family="sans-serif" font-size="12" lengthAdjust="spacing" textLength="160.9453" x="70.5375" y="259.1899">Detect Promotion Conflicts</text><text fill="#000000" font-family="sans-serif" font-size="12" lengthAdjust="spacing" textLength="137.2441" x="49" y="273.1586">&#171;Application Function&#187;</text></g><!--entity FNC_wahMSm--><g class="entity" data-qualified-name="PRC_0Rz5Ex.FNC_wahMSm" data-source-line="92" id="ent0012"><rect fill="#E0D8CC" height="51.6918" rx="2" ry="2" style="stroke:#8C7E6A;stroke-width:0.5;" width="264.1996" x="47" y="1158.2969"/><path d="M60.2123,1181.2569 L60.2123,1174.2784 L65.8615,1171.7307 L71.5108,1174.2784 L71.5108,1181.2569 L65.8615,1178.4876" fill="#252327" style="stroke:none;stroke-width:0.5;"/><text fill="#000000" font-family="sans-serif" font-size="12" lengthAdjust="spacing" textLength="222.6621" x="78.5375" y="1183.1899">Replace Promoted Entities with GRFs</text><text fill="#000000" font-family="sans-serif" font-size="12" lengthAdjust="spacing" textLength="137.2441" x="57" y="1197.1586">&#171;Application Function&#187;</text></g><!--entity SRV_Uv9Wx9--><g class="entity" data-qualified-name="SRV_Uv9Wx9" data-source-line="104" id="ent0022"><rect fill="#E0D8CC" height="51.6918" rx="2" ry="2" style="stroke:#8C7E6A;stroke-width:0.5;" width="219.393" x="367.5" y="234.2969"/><path d="M381.0446,248.8384 L389.02,248.8384 A3.1015,3.1015 0 0 1 389.02,257.4784 L381.0446,257.4784 A3.1015,3.1015 0 0 1 381.0446,248.8384" fill="#252327" style="stroke:none;stroke-width:0.5;"/><text fill="#000000" font-family="sans-serif" font-size="12" lengthAdjust="spacing" textLength="177.8555" x="399.0375" y="259.1899">Repository Promotion Service</text><text fill="#000000" font-family="sans-serif" font-size="12" lengthAdjust="spacing" textLength="129.8965" x="377.5" y="273.1586">&#171;Application Service&#187;</text></g><!--entity EVT_hDF1Qz--><g class="entity" data-qualified-name="EVT_hDF1Qz" data-source-line="106" id="ent0023"><rect fill="#E0D8CC" height="51.6918" rx="2" ry="2" style="stroke:#8C7E6A;stroke-width:0.5;" width="153.9145" x="385" y="1158.2969"/><path d="M398.4338,1172.7276 L404.6369,1172.7276 A4.2092,4.2092 0 0 1 404.6369,1181.5892 L398.4338,1181.5892 L400.76,1177.1584" fill="#252327" style="stroke:none;stroke-width:0.5;"/><text fill="#000000" font-family="sans-serif" font-size="12" lengthAdjust="spacing" textLength="112.377" x="416.5375" y="1183.1899">Artifacts Promoted</text><text fill="#000000" font-family="sans-serif" font-size="12" lengthAdjust="spacing" textLength="119.9238" x="395" y="1197.1586">&#171;Application Event&#187;</text></g><!--link FNC_Z2rrfP to FNC_ndMgDn--><!--link FNC_Z2rrfP to FNC_ndMgDn--><g class="link" data-entity-1="ent0010" data-entity-2="ent0011" data-link-type="dependency" data-source-line="111" id="lnk26"><path d="M173.67,154.3769 C173.67,177.5169 173.67,205.1469 173.67,228.2769" fill="none" id="FNC_Z2rrfP-to-FNC_ndMgDn" style="stroke:#181818;stroke-width:1;"/><polygon fill="#181818" points="173.67,234.2769,177.67,225.2769,173.67,229.2769,169.67,225.2769,173.67,234.2769" style="stroke:#181818;stroke-width:1;"/></g><!--link FNC_ndMgDn to EVT_Dm0CyE--><!--link FNC_ndMgDn to EVT_Dm0CyE--><g class="link" data-entity-1="ent0011" data-entity-2="ent0003" data-link-type="dependency" data-source-line="112" id="lnk27"><path d="M165.33,286.3769 C165.33,309.5169 165.33,337.1469 165.33,360.2769" fill="none" id="FNC_ndMgDn-to-EVT_Dm0CyE" style="stroke:#181818;stroke-width:1;"/><polygon fill="#181818" points="165.33,366.2769,169.33,357.2769,165.33,361.2769,161.33,357.2769,165.33,366.2769" style="stroke:#181818;stroke-width:1;"/></g><!--link EVT_Dm0CyE to EVT_fWpwu5--><!--link EVT_fWpwu5 to FNC_A0dOFm--><!--link EVT_fWpwu5 to FNC_A0dOFm--><g class="link" data-entity-1="ent0004" data-entity-2="ent0007" data-link-type="dependency" data-source-line="115" id="lnk30"><path d="M235,550.3769 C235,573.5169 235,601.1469 235,624.2769" fill="none" id="EVT_fWpwu5-to-FNC_A0dOFm" style="stroke:#181818;stroke-width:1;"/><polygon fill="#181818" points="235,630.2769,239,621.2769,235,625.2769,231,621.2769,235,630.2769" style="stroke:#181818;stroke-width:1;"/></g><!--link FNC_A0dOFm to FNC_54UnNB--><!--link FNC_A0dOFm to FNC_54UnNB--><g class="link" data-entity-1="ent0007" data-entity-2="ent0005" data-link-type="dependency" data-source-line="116" id="lnk31"><path d="M229.33,682.3769 C229.33,705.5169 229.33,733.1469 229.33,756.2769" fill="none" id="FNC_A0dOFm-to-FNC_54UnNB" style="stroke:#181818;stroke-width:1;"/><polygon fill="#181818" points="229.33,762.2769,233.33,753.2769,229.33,757.2769,225.33,753.2769,229.33,762.2769" style="stroke:#181818;stroke-width:1;"/></g><!--link FNC_54UnNB to FNC_A_wFZl--><!--link FNC_54UnNB to FNC_A_wFZl--><g class="link" data-entity-1="ent0005" data-entity-2="ent0008" data-link-type="dependency" data-source-line="117" id="lnk32"><path d="M215.17,814.3769 C215.17,837.5169 215.17,865.1469 215.17,888.2769" fill="none" id="FNC_54UnNB-to-FNC_A_wFZl" style="stroke:#181818;stroke-width:1;"/><polygon fill="#181818" points="215.17,894.2769,219.17,885.2769,215.17,889.2769,211.17,885.2769,215.17,894.2769" style="stroke:#181818;stroke-width:1;"/></g><!--link FNC_A_wFZl to FNC_6xjXsw--><!--link FNC_A_wFZl to FNC_6xjXsw--><g class="link" data-entity-1="ent0008" data-entity-2="ent0006" data-link-type="dependency" data-source-line="118" id="lnk33"><path d="M215.17,946.3769 C215.17,969.5169 215.17,997.1469 215.17,1020.2769" fill="none" id="FNC_A_wFZl-to-FNC_6xjXsw" style="stroke:#181818;stroke-width:1;"/><polygon fill="#181818" points="215.17,1026.2769,219.17,1017.2769,215.17,1021.2769,211.17,1017.2769,215.17,1026.2769" style="stroke:#181818;stroke-width:1;"/></g><!--link FNC_6xjXsw to FNC_wahMSm--><!--link FNC_6xjXsw to FNC_wahMSm--><g class="link" data-entity-1="ent0006" data-entity-2="ent0012" data-link-type="dependency" data-source-line="119" id="lnk34"><path d="M215.17,1078.3769 C215.17,1101.5169 215.17,1129.1469 215.17,1152.2769" fill="none" id="FNC_6xjXsw-to-FNC_wahMSm" style="stroke:#181818;stroke-width:1;"/><polygon fill="#181818" points="215.17,1158.2769,219.17,1149.2769,215.17,1153.2769,211.17,1149.2769,215.17,1158.2769" style="stroke:#181818;stroke-width:1;"/></g><!--link FNC_wahMSm to FNC_NGjUCa--><!--link FNC_wahMSm to FNC_NGjUCa--><g class="link" data-entity-1="ent0012" data-entity-2="ent0009" data-link-type="dependency" data-source-line="121" id="lnk36"><path d="M222.5,1210.3769 C222.5,1233.5169 222.5,1261.1469 222.5,1284.2769" fill="none" id="FNC_wahMSm-to-FNC_NGjUCa" style="stroke:#181818;stroke-width:1;"/><polygon fill="#181818" points="222.5,1290.2769,226.5,1281.2769,222.5,1285.2769,218.5,1281.2769,222.5,1290.2769" style="stroke:#181818;stroke-width:1;"/></g><!--link SRV_Uv9Wx9 to EVT_hDF1Qz--><!--link PRC_0Rz5Ex to SRV_Uv9Wx9--><g class="link" data-entity-1="ent0002" data-entity-2="ent0022" data-link-type="extension" data-source-line="110" id="lnk25"><path d="M343.0531,260.2969 C343.3919,260.2969 343.7402,260.2969 344.0975,260.2969 C349.815,260.2969 339.87,260.2969 349.22,260.2969" fill="none" id="PRC_0Rz5Ex-to-SRV_Uv9Wx9" style="stroke:#181818;stroke-width:1;stroke-dasharray:7,7;"/><polygon fill="none" points="367.22,260.2969,349.22,254.2969,349.22,266.2969,367.22,260.2969" style="stroke:#181818;stroke-width:1;"/></g><!--link FNC_ndMgDn to EVT_fWpwu5--><g class="link" data-entity-1="ent0011" data-entity-2="ent0004" data-link-type="dependency" data-source-line="113" id="lnk28"><path d="M234.75,286.5769 C234.75,337.1769 234.75,441.6069 234.75,492.1269" fill="none" id="FNC_ndMgDn-to-EVT_fWpwu5" style="stroke:#181818;stroke-width:1;"/><polygon fill="#181818" points="234.75,498.1269,238.75,489.1269,234.75,493.1269,230.75,489.1269,234.75,498.1269" style="stroke:#181818;stroke-width:1;"/></g><!--link EVT_Dm0CyE to FNC_54UnNB--><g class="link" data-entity-1="ent0003" data-entity-2="ent0005" data-link-type="dependency" data-source-line="114" id="lnk29"><path d="M87.5,418.5869 C87.5,490.6169 87.5,684.5569 87.5,756.2769" fill="none" id="EVT_Dm0CyE-to-FNC_54UnNB" style="stroke:#181818;stroke-width:1;"/><polygon fill="#181818" points="87.5,762.2769,91.5,753.2769,87.5,757.2769,83.5,753.2769,87.5,762.2769" style="stroke:#181818;stroke-width:1;"/></g><!--link FNC_6xjXsw to EVT_hDF1Qz--><g class="link" data-entity-1="ent0006" data-entity-2="ent0023" data-link-type="dependency" data-source-line="120" id="lnk35"><path d="M267.6,1052.2969 C340.02,1052.2969 436.33,1052.2969 436.33,1052.2969 C436.33,1052.2969 436.33,1113.7469 436.33,1152.2169" fill="none" id="FNC_6xjXsw-to-EVT_hDF1Qz" style="stroke:#181818;stroke-width:1;"/><polygon fill="#181818" points="436.33,1158.2169,440.33,1149.2169,436.33,1153.2169,432.33,1149.2169,436.33,1158.2169" style="stroke:#181818;stroke-width:1;"/></g><?plantuml-src xLTjRzis4FxkNt5JXtK3QiMMN-8CjW77iTC2JPRQJJfq6mn6eYmsD2bGz4lIvHVj9-nRVzbEjcBHZfn5QJu6jXEGTyVd8U-venGmZqAagQ9INuUqK8Ykc0Y98XFmg4-cNFUbqATaGc58H3IaYldPFaDsGw7i6COe89wSCp46d_286XObfy9pfH9KGTMOloJkrNXfx4ek5RpgT-AFoOepGMEc89KEf64GqgCH3Q5UCe68k8ed6wN23yWLOs50-UYZOkCnRaMCV_QLdBm1BTy09vUK_mBn11IBRPpRY1bGmjaDqKoA7K6s_VT3KQFpC4SWdlGi5xzE54cNFSIlM7mWPlIU-lf9WGCs3d94kYwDefq7SMzRxuJFfrIuzE4G8-NKrKICEMqswOmAtMx3rmB0uRQqUgMZHhSRMwJog4fc6ztzNhrJkCrUq9yADzxpSwuPAXcVo7Ck6SNQSUaJbmnUMi9BItXf2IyjmLWoL4nJ-94eDs0JekbeUOxGZ6PZM4ouY5fMe7NuwzxUV3wtvnLRgl6UKogLzj33WXcZyqEvQ5abA46vZb-htGo93i1hMISLkmpLe6RNISLkGFnRkk6lyHPjtB7BnUgD1U0ppblMAwVcL9nz2tkKabUqPGafgBNNRiPOxGokTobw9hgEVG3bihr_KREhxsE-PLx37JXsPLQtApXpO3lVmJP9_hEHhKFLBWV8xCAn6xngrw1cEyNa_wnOjYjlqUax22VIUZOnE4l2-xP3a30uXXpsxLWGz-QBEFze_WKjG-mES2crnbxXiRX8K1neO9fJECCE8d637QMPJrmT5GhhCWAhUJzHNoENSDegsyvj-txqd-BRFuVJ25iNflHi5V7jNmlC8YTe6NH7fS5DhRTOrkSEn6NHPU35sZxZ1FyeYfLFlHYr4uQSkSj-3BquS0Lxrm0Hj7VnSNGqANMlUq-3x4fin0mt2KTKOtWUNFzJE9_MTkFUrUm6z0LUd1vQ3Gv3obVvsuRk9mkiq8qkZGJwfzrHhNekJWzp4kWjg3iryVEYrXTVVe_cEL47D99yHhDEVaDU_mVUANc_zITvmQS2FapnuFKr7ADNb7VBdT6y_vddpNJyK7czBYDu9pGTgvZ3JxZv09zDyVhFo-Jq-Cjvb-HaiX9OMj3WuysuaVz7d_zdHod_B2V-ghHsvJxFzeLtCZuIkRKNSkAksw87FO5zaj48vWmxzl6Wdvl7d0GdmrY6wPb0yGzyw_2e-0lV3aHnasuws7RRQ63f8CjjtM_IGHRekaJIGPRRkdcaWypLxgIV3hBSraqX7MIvRPpRQf3bbgZyTkUzbTpNsscM4TDINM_qrgNZTdwJwLLwq-TApEvmS34wdnryMXpi1Bz_dwILTQUnnzyYmL6__E6caE9cfJvnAhoEIqUiRekeODouotSjWxkfItofCiHeIX4jXluoB8daJ5qcgoNoCQMOM1BzcUhRZ345TnUpKfcfiSII2CkKLM99jBHbCKxBr5WIamZhFm00?></g></svg>