<svg xmlns="http://www.w3.org/2000/svg" xmlns:xlink="http://www.w3.org/1999/xlink" contentStyleType="text/css" data-diagram-type="DESCRIPTION" height="863px" preserveAspectRatio="none" style="width:1038px;height:863px;background:#FAFAFA;" version="1.1" viewBox="0 0 1038 863" width="1038px" zoomAndPan="magnify"><?plantuml 1.2026.3?><defs/><g><rect fill="#FAFAFA" height="863" style="stroke:none;stroke-width:1;" width="1038" x="0" y="0"/><g class="title" data-source-line="144"><text fill="#000000" font-family="sans-serif" font-size="14" font-weight="700" lengthAdjust="spacing" textLength="278.7559" x="376.1221" y="22.9951">Why Assurance &#8212; Motivation Chain</text></g><!--cluster Forces--><g class="cluster" data-qualified-name="Forces" data-source-line="146" id="ent0002"><rect fill="#F7EEF9" height="179" rx="2" ry="2" style="stroke:#7B3F9A;stroke-width:1;" width="774" x="186" y="44.2969"/><text fill="#000000" font-family="sans-serif" font-size="12" font-weight="700" lengthAdjust="spacing" textLength="44.7539" x="550.623" y="57.4355">Forces</text></g><!--cluster Implications--><g class="cluster" data-qualified-name="Implications" data-source-line="154" id="ent0008"><rect fill="#F7EEF9" height="179" rx="2" ry="2" style="stroke:#7B3F9A;stroke-width:1;" width="846" x="7" y="247.2969"/><text fill="#000000" font-family="sans-serif" font-size="12" font-weight="700" lengthAdjust="spacing" textLength="82.7754" x="388.6123" y="260.4355">Implications</text></g><!--cluster Assurance Goals--><g class="cluster" data-qualified-name="Assurance Goals" data-source-line="162" id="ent0014"><rect fill="#F7EEF9" height="86" rx="2" ry="2" style="stroke:#7B3F9A;stroke-width:1;" width="799" x="162" y="450.2969"/><text fill="#000000" font-family="sans-serif" font-size="12" font-weight="700" lengthAdjust="spacing" textLength="111.5508" x="505.7246" y="463.4355">Assurance Goals</text></g><!--cluster Expected Outcomes--><g class="cluster" data-qualified-name="Expected Outcomes" data-source-line="168" id="ent0018"><rect fill="#F7EEF9" height="179" rx="2" ry="2" style="stroke:#7B3F9A;stroke-width:1;" width="615" x="42" y="560.2969"/><text fill="#000000" font-family="sans-serif" font-size="12" font-weight="700" lengthAdjust="spacing" textLength="134.0449" x="282.4775" y="573.4355">Expected Outcomes</text></g><!--cluster Tie to the Apex Intent--><g class="cluster" data-qualified-name="Tie to the Apex Intent" data-source-line="176" id="ent0024"><rect fill="#F7EEF9" height="86" rx="2" ry="2" style="stroke:#7B3F9A;stroke-width:1;" width="684" x="340" y="763.2969"/><text fill="#000000" font-family="sans-serif" font-size="12" font-weight="700" lengthAdjust="spacing" textLength="148.4648" x="607.7676" y="776.4355">Tie to the Apex Intent</text></g><!--entity DRV_AcMaI1--><g class="entity" data-qualified-name="Forces.DRV_AcMaI1" data-source-line="147" id="ent0003"><rect fill="#EDD6F0" height="37.7231" rx="2" ry="2" style="stroke:#7B3F9A;stroke-width:0.5;" width="328.6528" x="201.5" y="76.2969"/><ellipse cx="220.3615" cy="95.1584" fill="none" rx="5.0954" ry="5.0954" style="stroke:#252327;stroke-width:1.44;"/><ellipse cx="220.3615" cy="95.1584" fill="none" rx="1.8831" ry="1.8831" style="stroke:#252327;stroke-width:1.44;"/><path d="M219.6415,88.8446 L219.6415,92.1676 L221.0815,92.1676 L221.0815,88.8446" fill="#252327"/><path d="M219.6415,98.1492 L219.6415,101.4723 L221.0815,101.4723 L221.0815,98.1492" fill="#252327"/><path d="M214.0477,94.4384 L217.3708,94.4384 L217.3708,95.8784 L214.0477,95.8784" fill="#252327"/><path d="M223.3523,94.4384 L226.6754,94.4384 L226.6754,95.8784 L223.3523,95.8784" fill="#252327"/><path d="M215.4212,91.2372 L216.4403,90.2181 L218.7665,92.5443 L217.7474,93.5633" fill="#252327"/><path d="M221.9566,97.7726 L222.9757,96.7535 L225.3018,99.0796 L224.2828,100.0987" fill="#252327"/><path d="M224.2828,90.2181 L225.3018,91.2372 L222.9757,93.5633 L221.9566,92.5443" fill="#252327"/><path d="M217.7474,96.7535 L218.7665,97.7726 L216.4403,100.0987 L215.4212,99.0796" fill="#252327"/><text fill="#000000" font-family="sans-serif" font-size="12" lengthAdjust="spacing" textLength="287.1152" x="233.0375" y="101.1899">Expanding Software &amp; AI Assurance Obligations</text></g><!--entity DRV_52_qYT--><g class="entity" data-qualified-name="Forces.DRV_52_qYT" data-source-line="148" id="ent0004"><rect fill="#EDD6F0" height="37.7231" rx="2" ry="2" style="stroke:#7B3F9A;stroke-width:0.5;" width="373.1371" x="570.5" y="76.2969"/><ellipse cx="589.3615" cy="95.1584" fill="none" rx="5.0954" ry="5.0954" style="stroke:#252327;stroke-width:1.44;"/><ellipse cx="589.3615" cy="95.1584" fill="none" rx="1.8831" ry="1.8831" style="stroke:#252327;stroke-width:1.44;"/><path d="M588.6415,88.8446 L588.6415,92.1676 L590.0815,92.1676 L590.0815,88.8446" fill="#252327"/><path d="M588.6415,98.1492 L588.6415,101.4723 L590.0815,101.4723 L590.0815,98.1492" fill="#252327"/><path d="M583.0477,94.4384 L586.3708,94.4384 L586.3708,95.8784 L583.0477,95.8784" fill="#252327"/><path d="M592.3523,94.4384 L595.6754,94.4384 L595.6754,95.8784 L592.3523,95.8784" fill="#252327"/><path d="M584.4212,91.2372 L585.4403,90.2181 L587.7665,92.5443 L586.7474,93.5633" fill="#252327"/><path d="M590.9566,97.7726 L591.9757,96.7535 L594.3018,99.0796 L593.2828,100.0987" fill="#252327"/><path d="M593.2828,90.2181 L594.3018,91.2372 L591.9757,93.5633 L590.9566,92.5443" fill="#252327"/><path d="M586.7474,96.7535 L587.7665,97.7726 L585.4403,100.0987 L584.4212,99.0796" fill="#252327"/><text fill="#000000" font-family="sans-serif" font-size="12" lengthAdjust="spacing" textLength="331.5996" x="602.0375" y="101.1899">Safety, Security &amp; GRC Capability Gap for Small Teams</text></g><!--entity DRV_GR9prv--><g class="entity" data-qualified-name="Forces.DRV_GR9prv" data-source-line="149" id="ent0005"><rect fill="#EDD6F0" height="37.7231" rx="2" ry="2" style="stroke:#7B3F9A;stroke-width:0.5;" width="356.3383" x="579" y="169.2969"/><ellipse cx="597.8615" cy="188.1584" fill="none" rx="5.0954" ry="5.0954" style="stroke:#252327;stroke-width:1.44;"/><ellipse cx="597.8615" cy="188.1584" fill="none" rx="1.8831" ry="1.8831" style="stroke:#252327;stroke-width:1.44;"/><path d="M597.1415,181.8446 L597.1415,185.1676 L598.5815,185.1676 L598.5815,181.8446" fill="#252327"/><path d="M597.1415,191.1492 L597.1415,194.4723 L598.5815,194.4723 L598.5815,191.1492" fill="#252327"/><path d="M591.5477,187.4384 L594.8708,187.4384 L594.8708,188.8784 L591.5477,188.8784" fill="#252327"/><path d="M600.8523,187.4384 L604.1754,187.4384 L604.1754,188.8784 L600.8523,188.8784" fill="#252327"/><path d="M592.9212,184.2372 L593.9403,183.2181 L596.2665,185.5443 L595.2474,186.5633" fill="#252327"/><path d="M599.4566,190.7726 L600.4757,189.7535 L602.8018,192.0796 L601.7828,193.0987" fill="#252327"/><path d="M601.7828,183.2181 L602.8018,184.2372 L600.4757,186.5633 L599.4566,185.5443" fill="#252327"/><path d="M595.2474,189.7535 L596.2665,190.7726 L593.9403,193.0987 L592.9212,192.0796" fill="#252327"/><text fill="#000000" font-family="sans-serif" font-size="12" lengthAdjust="spacing" textLength="314.8008" x="610.5375" y="194.1899">Agentic Development as Dominant Production Mode</text></g><!--entity ASS_6cIRhr--><g class="entity" data-qualified-name="Implications.ASS_6cIRhr" data-source-line="155" id="ent0009"><rect fill="#EDD6F0" height="37.7231" rx="2" ry="2" style="stroke:#7B3F9A;stroke-width:0.5;" width="363.2524" x="22.5" y="279.2969"/><path d="M35.2692,292.62 L47.4538,292.62 A1.1077,1.1077 0 0 1 48.5615,293.7276 L48.5615,300.3738 A1.1077,1.1077 0 0 1 47.4538,301.4815 L39.1462,301.4815 L36.9308,304.8046 L38.0385,301.4815 L35.2692,301.4815 A1.1077,1.1077 0 0 1 34.1615,300.3738 L34.1615,293.7276 A1.1077,1.1077 0 0 1 35.2692,292.62" fill="#252327" style="stroke:none;stroke-width:0.5;"/><text fill="#000000" font-family="sans-serif" font-size="12" lengthAdjust="spacing" textLength="321.7148" x="54.0375" y="304.1899">Regulated Teams Need Traceable Assurance Records</text></g><!--entity ASS_pZWwv1--><g class="entity" data-qualified-name="Implications.ASS_pZWwv1" data-source-line="156" id="ent0010"><rect fill="#EDD6F0" height="37.7231" rx="2" ry="2" style="stroke:#7B3F9A;stroke-width:0.5;" width="410.936" x="425.5" y="279.2969"/><path d="M438.2692,292.62 L450.4538,292.62 A1.1077,1.1077 0 0 1 451.5615,293.7276 L451.5615,300.3738 A1.1077,1.1077 0 0 1 450.4538,301.4815 L442.1462,301.4815 L439.9308,304.8046 L441.0385,301.4815 L438.2692,301.4815 A1.1077,1.1077 0 0 1 437.1615,300.3738 L437.1615,293.7276 A1.1077,1.1077 0 0 1 438.2692,292.62" fill="#252327" style="stroke:none;stroke-width:0.5;"/><text fill="#000000" font-family="sans-serif" font-size="12" lengthAdjust="spacing" textLength="369.3984" x="457.0375" y="304.1899">Assurance Disconnected from Architecture Loses Traceability</text></g><!--entity ASS_Cu2Joe--><g class="entity" data-qualified-name="Implications.ASS_Cu2Joe" data-source-line="157" id="ent0011"><rect fill="#EDD6F0" height="37.7231" rx="2" ry="2" style="stroke:#7B3F9A;stroke-width:0.5;" width="347.3442" x="490.5" y="372.2969"/><path d="M503.2692,385.62 L515.4538,385.62 A1.1077,1.1077 0 0 1 516.5615,386.7276 L516.5615,393.3738 A1.1077,1.1077 0 0 1 515.4538,394.4815 L507.1462,394.4815 L504.9308,397.8046 L506.0385,394.4815 L503.2692,394.4815 A1.1077,1.1077 0 0 1 502.1615,393.3738 L502.1615,386.7276 A1.1077,1.1077 0 0 1 503.2692,385.62" fill="#252327" style="stroke:none;stroke-width:0.5;"/><text fill="#000000" font-family="sans-serif" font-size="12" lengthAdjust="spacing" textLength="305.8066" x="522.0375" y="397.1899">Assurance Cannot Keep Pace with Agentic Velocity</text></g><!--entity GOL_AoatzG--><g class="entity" data-qualified-name="Assurance Goals.GOL_AoatzG" data-source-line="163" id="ent0015"><rect fill="#EDD6F0" height="37.7231" rx="2" ry="2" style="stroke:#7B3F9A;stroke-width:0.5;" width="406.6586" x="178.5" y="482.2969"/><ellipse cx="197.3615" cy="501.1584" fill="none" rx="5.3169" ry="5.3169" style="stroke:#252327;stroke-width:1.44;"/><ellipse cx="197.3615" cy="501.1584" fill="none" rx="3.2123" ry="3.2123" style="stroke:#252327;stroke-width:1.44;"/><ellipse cx="197.3615" cy="501.1584" fill="#252327" rx="1.44" ry="1.44" style="stroke:none;stroke-width:1.44;"/><text fill="#000000" font-family="sans-serif" font-size="12" lengthAdjust="spacing" textLength="365.1211" x="210.0375" y="507.1899">First-Class Assurance Integrated with the Architecture Model</text></g><!--entity GOL_kE3Tte--><g class="entity" data-qualified-name="Assurance Goals.GOL_kE3Tte" data-source-line="164" id="ent0016"><rect fill="#EDD6F0" height="37.7231" rx="2" ry="2" style="stroke:#7B3F9A;stroke-width:0.5;" width="319.4711" x="625.5" y="482.2969"/><ellipse cx="644.3615" cy="501.1584" fill="none" rx="5.3169" ry="5.3169" style="stroke:#252327;stroke-width:1.44;"/><ellipse cx="644.3615" cy="501.1584" fill="none" rx="3.2123" ry="3.2123" style="stroke:#252327;stroke-width:1.44;"/><ellipse cx="644.3615" cy="501.1584" fill="#252327" rx="1.44" ry="1.44" style="stroke:none;stroke-width:1.44;"/><text fill="#000000" font-family="sans-serif" font-size="12" lengthAdjust="spacing" textLength="277.9336" x="657.0375" y="507.1899">Lower the Barrier to Rigorous Assurance Work</text></g><!--entity OUT__FOogJ--><g class="entity" data-qualified-name="Expected Outcomes.OUT__FOogJ" data-source-line="169" id="ent0019"><rect fill="#EDD6F0" height="37.7231" rx="2" ry="2" style="stroke:#7B3F9A;stroke-width:0.5;" width="304.2485" x="58" y="592.2969"/><ellipse cx="76.1969" cy="611.823" fill="none" rx="4.7631" ry="4.7631" style="stroke:#252327;stroke-width:1.44;"/><ellipse cx="76.1969" cy="611.823" fill="none" rx="2.4369" ry="2.4369" style="stroke:#252327;stroke-width:1.44;"/><path d="M79.2763,609.9732 L78.4345,608.799 L81.8683,606.3621 L82.7102,607.5363" fill="#252327"/><path d="M79.2985,610.3276 L82.0677,610.3276 L82.0677,611.7676 L79.2985,611.7676" fill="#252327"/><ellipse cx="76.1969" cy="611.823" fill="#252327" rx="0.9969" ry="0.9969" style="stroke:none;stroke-width:1.44;"/><text fill="#000000" font-family="sans-serif" font-size="12" lengthAdjust="spacing" textLength="262.7109" x="89.5375" y="617.1899">Findings Traceable End-to-End to the Model</text></g><!--entity OUT_Vhhne7--><g class="entity" data-qualified-name="Expected Outcomes.OUT_Vhhne7" data-source-line="170" id="ent0020"><rect fill="#EDD6F0" height="37.7231" rx="2" ry="2" style="stroke:#7B3F9A;stroke-width:0.5;" width="239.4965" x="402.5" y="592.2969"/><ellipse cx="420.6969" cy="611.823" fill="none" rx="4.7631" ry="4.7631" style="stroke:#252327;stroke-width:1.44;"/><ellipse cx="420.6969" cy="611.823" fill="none" rx="2.4369" ry="2.4369" style="stroke:#252327;stroke-width:1.44;"/><path d="M423.7763,609.9732 L422.9345,608.799 L426.3683,606.3621 L427.2102,607.5363" fill="#252327"/><path d="M423.7985,610.3276 L426.5677,610.3276 L426.5677,611.7676 L423.7985,611.7676" fill="#252327"/><ellipse cx="420.6969" cy="611.823" fill="#252327" rx="0.9969" ry="0.9969" style="stroke:none;stroke-width:1.44;"/><text fill="#000000" font-family="sans-serif" font-size="12" lengthAdjust="spacing" textLength="197.959" x="434.0375" y="617.1899">Analysis Surfaces Modeling Gaps</text></g><!--entity OUT_CiC0ku--><g class="entity" data-qualified-name="Expected Outcomes.OUT_CiC0ku" data-source-line="171" id="ent0021"><rect fill="#EDD6F0" height="37.7231" rx="2" ry="2" style="stroke:#7B3F9A;stroke-width:0.5;" width="279.0649" x="361.5" y="685.2969"/><ellipse cx="379.6969" cy="704.823" fill="none" rx="4.7631" ry="4.7631" style="stroke:#252327;stroke-width:1.44;"/><ellipse cx="379.6969" cy="704.823" fill="none" rx="2.4369" ry="2.4369" style="stroke:#252327;stroke-width:1.44;"/><path d="M382.7763,702.9732 L381.9345,701.799 L385.3683,699.3621 L386.2102,700.5363" fill="#252327"/><path d="M382.7985,703.3276 L385.5677,703.3276 L385.5677,704.7676 L382.7985,704.7676" fill="#252327"/><ellipse cx="379.6969" cy="704.823" fill="#252327" rx="0.9969" ry="0.9969" style="stroke:none;stroke-width:1.44;"/><text fill="#000000" font-family="sans-serif" font-size="12" lengthAdjust="spacing" textLength="237.5273" x="393.0375" y="710.1899">Friction &amp; Guidance Overhead Reduced</text></g><!--entity GOL_FCfDuc--><g class="entity" data-qualified-name="Tie to the Apex Intent.GOL_FCfDuc" data-source-line="177" id="ent0025"><rect fill="#EDD6F0" height="37.7231" rx="2" ry="2" style="stroke:#7B3F9A;stroke-width:0.5;" width="290.52" x="355.5" y="795.2969"/><ellipse cx="374.3615" cy="814.1584" fill="none" rx="5.3169" ry="5.3169" style="stroke:#252327;stroke-width:1.44;"/><ellipse cx="374.3615" cy="814.1584" fill="none" rx="3.2123" ry="3.2123" style="stroke:#252327;stroke-width:1.44;"/><ellipse cx="374.3615" cy="814.1584" fill="#252327" rx="1.44" ry="1.44" style="stroke:none;stroke-width:1.44;"/><text fill="#000000" font-family="sans-serif" font-size="12" lengthAdjust="spacing" textLength="248.9824" x="387.0375" y="820.1899">Sustain Unity of Effort at Agentic Velocity</text></g><!--entity PRI_E3_ttJ--><g class="entity" data-qualified-name="Tie to the Apex Intent.PRI_E3_ttJ" data-source-line="178" id="ent0026"><rect fill="#EDD6F0" height="37.7231" rx="2" ry="2" style="stroke:#7B3F9A;stroke-width:0.5;" width="320.895" x="686.5" y="795.2969"/><path d="M700.2662,808.5092 L710.4569,808.5092 L710.4569,809.9492 L700.2662,809.9492" fill="#252327"/><path d="M700.2662,818.3676 L710.4569,818.3676 L710.4569,819.8076 L700.2662,819.8076" fill="#252327"/><path d="M700.2662,809.9492 L700.2662,818.3676 L701.7062,818.3676 L701.7062,809.9492" fill="#252327"/><path d="M709.0169,809.9492 L709.0169,818.3676 L710.4569,818.3676 L710.4569,809.9492" fill="#252327"/><path d="M704.6415,811.1676 L704.6415,815.9307 L706.0815,815.9307 L706.0815,811.1676" fill="#252327"/><text fill="#000000" font-family="sans-serif" font-size="12" lengthAdjust="spacing" textLength="279.3574" x="718.0375" y="820.1899">Governance Is Proportional to Impact and Risk</text></g><!--link DRV_AcMaI1 to DRV_52_qYT--><!--link DRV_52_qYT to DRV_GR9prv--><!--link ASS_6cIRhr to ASS_pZWwv1--><!--link ASS_pZWwv1 to ASS_Cu2Joe--><!--link GOL_AoatzG to GOL_kE3Tte--><!--link OUT__FOogJ to OUT_Vhhne7--><!--link OUT_Vhhne7 to OUT_CiC0ku--><!--link GOL_FCfDuc to PRI_E3_ttJ--><!--link DRV_GR9prv to ASS_6cIRhr--><!--link ASS_Cu2Joe to GOL_AoatzG--><!--link OUT_CiC0ku to GOL_FCfDuc--><!--link DRV_AcMaI1 to ASS_6cIRhr--><g class="link" data-entity-1="ent0003" data-entity-2="ent0009" data-link-type="dependency" data-source-line="186" id="lnk31"><path d="M262.83,114.3969 C262.83,153.0869 262.83,234.3269 262.83,273.1069" fill="none" id="DRV_AcMaI1-to-ASS_6cIRhr" style="stroke:#181818;stroke-width:1;stroke-dasharray:7,7;"/><polygon fill="#181818" points="262.83,279.1069,266.83,270.1069,262.83,274.1069,258.83,270.1069,262.83,279.1069" style="stroke:#181818;stroke-width:1;"/></g><!--link DRV_AcMaI1 to ASS_pZWwv1--><g class="link" data-entity-1="ent0003" data-entity-2="ent0010" data-link-type="dependency" data-source-line="187" id="lnk32"><path d="M478,114.3969 C478,153.0869 478,234.3269 478,273.1069" fill="none" id="DRV_AcMaI1-to-ASS_pZWwv1" style="stroke:#181818;stroke-width:1;stroke-dasharray:7,7;"/><polygon fill="#181818" points="478,279.1069,482,270.1069,478,274.1069,474,270.1069,478,279.1069" style="stroke:#181818;stroke-width:1;"/></g><!--link DRV_52_qYT to ASS_pZWwv1--><g class="link" data-entity-1="ent0004" data-entity-2="ent0010" data-link-type="dependency" data-source-line="188" id="lnk33"><path d="M574.75,114.3969 C574.75,153.0869 574.75,234.3269 574.75,273.1069" fill="none" id="DRV_52_qYT-to-ASS_pZWwv1" style="stroke:#181818;stroke-width:1;stroke-dasharray:7,7;"/><polygon fill="#181818" points="574.75,279.1069,578.75,270.1069,574.75,274.1069,570.75,270.1069,574.75,279.1069" style="stroke:#181818;stroke-width:1;"/></g><!--link DRV_52_qYT to ASS_Cu2Joe--><g class="link" data-entity-1="ent0004" data-entity-2="ent0011" data-link-type="dependency" data-source-line="189" id="lnk34"><path d="M939.25,114.7069 C939.25,181.5869 939.25,398.2969 939.25,398.2969 C939.25,398.2969 898.5,398.2969 843.54,398.2969" fill="none" id="DRV_52_qYT-to-ASS_Cu2Joe" style="stroke:#181818;stroke-width:1;stroke-dasharray:7,7;"/><polygon fill="#181818" points="837.54,398.2969,846.54,402.2969,842.54,398.2969,846.54,394.2969,837.54,398.2969" style="stroke:#181818;stroke-width:1;"/></g><!--link DRV_GR9prv to ASS_Cu2Joe--><g class="link" data-entity-1="ent0005" data-entity-2="ent0011" data-link-type="dependency" data-source-line="190" id="lnk35"><path d="M886.25,207.5469 C886.25,257.1169 886.25,385.2969 886.25,385.2969 C886.25,385.2969 872.01,385.2969 843.75,385.2969" fill="none" id="DRV_GR9prv-to-ASS_Cu2Joe" style="stroke:#181818;stroke-width:1;stroke-dasharray:7,7;"/><polygon fill="#181818" points="837.75,385.2969,846.75,389.2969,842.75,385.2969,846.75,381.2969,837.75,385.2969" style="stroke:#181818;stroke-width:1;"/></g><!--link ASS_6cIRhr to GOL_AoatzG--><g class="link" data-entity-1="ent0009" data-entity-2="ent0015" data-link-type="dependency" data-source-line="192" id="lnk36"><path d="M282,317.3969 C282,356.0869 282,437.3269 282,476.1069" fill="none" id="ASS_6cIRhr-to-GOL_AoatzG" style="stroke:#181818;stroke-width:1;stroke-dasharray:7,7;"/><polygon fill="#181818" points="282,482.1069,286,473.1069,282,477.1069,278,473.1069,282,482.1069" style="stroke:#181818;stroke-width:1;"/></g><!--link ASS_pZWwv1 to GOL_AoatzG--><g class="link" data-entity-1="ent0010" data-entity-2="ent0015" data-link-type="association" data-source-line="193" id="lnk37"><path d="M458,317.3969 C458,356.0869 458,443.3269 458,482.1069" fill="none" id="ASS_pZWwv1-GOL_AoatzG" style="stroke:#181818;stroke-width:1;"/></g><!--link ASS_Cu2Joe to GOL_kE3Tte--><g class="link" data-entity-1="ent0011" data-entity-2="ent0016" data-link-type="association" data-source-line="194" id="lnk38"><path d="M731.5,410.4569 C731.5,430.5269 731.5,461.8669 731.5,481.9869" fill="none" id="ASS_Cu2Joe-GOL_kE3Tte" style="stroke:#181818;stroke-width:1;"/></g><!--reverse link GOL_AoatzG to OUT__FOogJ--><g class="link" data-entity-1="ent0015" data-entity-2="ent0019" data-link-type="extension" data-source-line="196" id="lnk40"><path d="M270.25,538.4569 C270.25,558.5269 270.25,571.8669 270.25,591.9869" fill="none" id="GOL_AoatzG-backto-OUT__FOogJ" style="stroke:#181818;stroke-width:1;stroke-dasharray:7,7;"/><polygon fill="none" points="270.25,520.4569,264.25,538.4569,276.25,538.4569,270.25,520.4569" style="stroke:#181818;stroke-width:1;"/></g><!--reverse link GOL_AoatzG to OUT_Vhhne7--><g class="link" data-entity-1="ent0015" data-entity-2="ent0020" data-link-type="extension" data-source-line="197" id="lnk42"><path d="M494,538.4569 C494,558.5269 494,571.8669 494,591.9869" fill="none" id="GOL_AoatzG-backto-OUT_Vhhne7" style="stroke:#181818;stroke-width:1;stroke-dasharray:7,7;"/><polygon fill="none" points="494,520.4569,488,538.4569,500,538.4569,494,520.4569" style="stroke:#181818;stroke-width:1;"/></g><!--reverse link GOL_kE3Tte to OUT_CiC0ku--><g class="link" data-entity-1="ent0016" data-entity-2="ent0021" data-link-type="extension" data-source-line="198" id="lnk44"><path d="M659.83,538.3969 C659.83,588.9269 659.83,704.2969 659.83,704.2969 C659.83,704.2969 652.37,704.2969 640.67,704.2969" fill="none" id="GOL_kE3Tte-backto-OUT_CiC0ku" style="stroke:#181818;stroke-width:1;stroke-dasharray:7,7;"/><polygon fill="none" points="659.83,520.3969,653.83,538.3969,665.83,538.3969,659.83,520.3969" style="stroke:#181818;stroke-width:1;"/></g><!--link GOL_kE3Tte to GOL_FCfDuc--><g class="link" data-entity-1="ent0016" data-entity-2="ent0025" data-link-type="dependency" data-source-line="200" id="lnk45"><path d="M673.17,520.4969 C673.17,587.7069 673.17,808.2969 673.17,808.2969 C673.17,808.2969 668.57,808.2969 652.64,808.2969" fill="none" id="GOL_kE3Tte-to-GOL_FCfDuc" style="stroke:#181818;stroke-width:1;stroke-dasharray:1,3;"/><polygon fill="#181818" points="646.64,808.2969,655.64,812.2969,651.64,808.2969,655.64,804.2969,646.64,808.2969" style="stroke:#181818;stroke-width:1;"/></g><!--link PRI_E3_ttJ to GOL_kE3Tte--><g class="link" data-entity-1="ent0026" data-entity-2="ent0016" data-link-type="dependency" data-source-line="201" id="lnk46"><path d="M815.5,795.1869 C815.5,739.3069 815.5,582.6169 815.5,526.5569" fill="none" id="PRI_E3_ttJ-to-GOL_kE3Tte" style="stroke:#181818;stroke-width:1;stroke-dasharray:1,3;"/><polygon fill="#181818" points="815.5,520.5569,811.5,529.5569,815.5,525.5569,819.5,529.5569,815.5,520.5569" style="stroke:#181818;stroke-width:1;"/></g><?plantuml-src xLhhRk985lxFKzGoezLkr7QmpILP9P5e4jBffISjIAUrErgXYbtWKepBQnVGwPcMvY7c2UT9vbJXu0BiSaoONpCY0jjLtxbyTUgSKn2VUWGbdCI4yQU8r6h98mqZ7ECPyiW4pmFUPo7_0Sy86k4m6P6OJlBdZEXNWYnR6KnyxB4b3QTeWeE4A2CncuUUo-AGnAYfF7_0xkDK3lPOm6BqNRyhNgfL0Gs9i1IncFjC6GYPHn8IeNP3LOJ3H_7mf57x6zWAM3GamRZhkYH9_Z69sUmDukmD2l032Vw9n0Da_EWnpedtF-C2nd9muqzH6NGU5O8lsJ8iWmDjOQ600PdmCW41p2aKCAHJlrH2B2RbY9XEOpB5dB8Y9vXXQ435t343IDCXDSGnGpAcGsjOOuQaIuVMKSQC5LSx-2IXqt16maAkS-XTOpH1bXjS6L0NO0M1bO5rmLKGL1bO6rX50PKapAMwW38C3KPFamvOIfCEN4gJ3lm2chRXFJQBM48rB1qPEb0nJKTvFAb83Kz7-KIfQ0rHH_bCgMWTKqS5LFK3jYo0cEP5tknYSinvL03Hi68AKWfW6ZfCmKO1JCU3AMdO1Tw4as1EGfUyd8mrf28Z6QuwBHcsEZSPTX-2XWG7zAikyvZcppgKdYKzj9GeFRoKApty1NJj2e3URm7DtCkBMGgeMCcUKTNBs3EoUWrxHkvJm4OHWSHU4ac6yNC9KCzIARgKhL89fQoLIdW1Uxioxc1W2gUAAe6LOIh6bWAi7buAk7g4AU2N1fboYY4kn-4q86Td7nYd2qdtDPoJ8f1tSO5-gY7qTkVerBcwwf-A4HPx94wVTjuw_TDkxLk-T9maS40GlLoHrAlBotQ_KKsg5zC5YGyfSSfmS4XvRCvTDYE751d1Mhiq2lOLwlyf3-RxP8C_ieuVeWo-zeIZIpRxdpEC_2y7zcWMzP2_ijYVEOib880Jz3sENP_EC2VZR77GMRAOeY-p84pEwpxdqR-EZvVBfRbqJ1PFZ-r6et4CC-feGSdoBVjoNc-W1hBQy5U_E8imzv5tNlzWcota-9Q5BMGXEKEy5ktite2hT-t0i943DyuxGAY3XdNVLC66zRMEq8G6mNdzExjbEtQd3fauPe_al1woaDIFByw4PHSvxgsYv7MkkJHs0u9SU7nIH-wJ_8ZFwqsplJPCsh6sQijCOqazxf_NBTCHjXR9iypENlBMr7TCfuLiqsai7BFHy66uSIzkWRzD-dP0LiFig2XvhuK9kKXWVO5Q2DIxKbrIx3QgN9TZjfgeQJRR0_66nEsWRRRQg6MscmFnXiIjLiQfsMmADvtsGBuZyM1WsKAWPGc9yXt99tedv3nfn0ekBLi95MOCf2fXbLQCD5iQ8LrPcIRzar87qccfAqzCKRoB7FP7HVl9GQFTDayFl7kSkZPBe7nvHKocsVjWP7RCPcgkI1kIKEUr1Ep8j4txTIa4mj0wWJ0-TKGOsn369nqHvYr8rcORBXtJFe68xpXb6zqM6zrk-O3DDhgTkz5r7eaeEU2ghWleWQgTOpORa79F6_ufEBVoKpmhoMS0WgrzKXtL5FCxPZlDqyq2HjLavLH7oPhG4eK4WZG5jGgI-uffpYBeBj43unnwJO-AdWNQoPnZHpFlsD5grMgSSbYMp_uJWgPv3YCkGR_zyYlAcbFKyp4DQxLrGuJgVHP3crn7cXvMcNssqndybBWu8EUMQN-xG5TV8XnwuXmsOXE-n351VqVT6yMUsuU0hdw2aZhNFIXEqENm7dhs3_Z6ggHpX2TmJ7k3HiITGx0-WSRhOG_rS8GVQ20UNEC8JQ2B6yrm4A0xWcUvkbls-F__kQkakpk5je-ww98iIC0YsGGAQMn6GmpN7sFcpUKwmY9u94_hzV0qYXUWDNCV6J_2OTaZOVgRvQPrsKqsR_MhXIBksyOQtyoYWBePwrLNEcjnDxmVakayW75lnIdwWOZB6Bi4Fu28RD6714xWdbIzSPG12hgZqRZjtWpzkBBwJFubJLmMXe060-HPhIl071xC8GG73F3FXicGAB8a-k_dvS9wXIKz78QCetyJs98VGHzQKiW8ps5o3q7YQjJtvlPxHa1znifEB6oOcTrinu8YRZCMCbkleTFPAnn4YxJXVv_62JTw0VYaS74JSZADPNn85hXFDjT5R8b0692U6u65wzl1kCim_tfTGVs0BU648iI_nN5CnJL3Gpfbu8rgq6SMF-wgUxnoxhWWFTEzGxeoRvDDI7YhgBjTDJjxyPasIbkKoZoQAFlfAlGCpWpu4Fu9TzS4PWTbSEhsqzrutBzbq_VLL7P373mbD46ZUJm1fSbAliZca46JN3ttlX-IJaNNOhfAYP2evzHRbGN8YJx17gGAI9Z4orNMext6unoKPHxkhDI6KTdDzlPGn6qkw1qbp-ns8_951d783x9BHlE4G_L5dq9HbDW4NKsWAa71uBa9OZDA-xt9vTmjrhPkopPKNZFWDLpjnaHKemWKWWTmn04deInW5_H3G0rf8hU6-lK8QFuul1bVEMFEtwVxOsN63klAFA0pgqDvMIdDzbc2sfwav81icV8cfPpKbCeflgDJbEICfBbJgQBb8saYLVpQ6gaf2LiCAIweAThO7dWcO2F3r9JmJdzttQ8aZUdymPGlPV1PRdQz_g-eDo4J7QJupp25qMmvYoQc8dy7?></g></svg>