<svg xmlns="http://www.w3.org/2000/svg" xmlns:xlink="http://www.w3.org/1999/xlink" contentStyleType="text/css" data-diagram-type="DESCRIPTION" height="864px" preserveAspectRatio="none" style="width:761px;height:864px;background:#FAFAFA;" version="1.1" viewBox="0 0 761 864" width="761px" zoomAndPan="magnify"><?plantuml 1.2026.3?><defs/><g><rect fill="#FAFAFA" height="864" style="stroke:none;stroke-width:1;" width="761" x="0" y="0"/><g class="title" data-source-line="105"><text fill="#000000" font-family="sans-serif" font-size="14" font-weight="700" lengthAdjust="spacing" textLength="406.4238" x="173.7881" y="22.9951">Viewpoint Execution &#8212; Saved and Ephemeral Paths</text></g><!--cluster DOM_motivation--><g class="cluster" data-qualified-name="DOM_motivation" data-source-line="107" id="ent0002"><rect fill="#EAE0EF" height="100" rx="2" ry="2" style="stroke:#3F3842;stroke-width:1;" width="214" x="7" y="44.2969"/><text fill="#000000" font-family="sans-serif" font-size="12" font-weight="700" lengthAdjust="spacing" textLength="72.5918" x="77.7041" y="57.4355">Motivation</text></g><!--cluster DOM_common--><g class="cluster" data-qualified-name="DOM_common" data-source-line="112" id="ent0004"><rect fill="#F3F1EB" height="240" rx="2" ry="2" style="stroke:#45433F;stroke-width:1;" width="266" x="89" y="176.2969"/><text fill="#000000" font-family="sans-serif" font-size="12" font-weight="700" lengthAdjust="spacing" textLength="58.8457" x="192.5771" y="189.4355">Common</text></g><!--cluster DOM_application--><g class="cluster" data-qualified-name="DOM_application" data-source-line="119" id="ent0008"><rect fill="#DBEAEE" height="574" rx="2" ry="2" style="stroke:#353E41;stroke-width:1;" width="368" x="379" y="276.2969"/><text fill="#000000" font-family="sans-serif" font-size="12" font-weight="700" lengthAdjust="spacing" textLength="76.541" x="524.7295" y="289.4355">Application</text></g><!--cluster GRPT_application_1--><g class="cluster" data-qualified-name="DOM_application.GRPT_application_1" data-source-line="120" id="ent0009"><rect fill="#DBEAEE" height="232" rx="2" ry="2" style="stroke:#353E41;stroke-width:1;" width="188" x="403" y="316.2969"/><text fill="#000000" font-family="sans-serif" font-size="12" font-weight="700" lengthAdjust="spacing" textLength="165.2109" x="414.3945" y="329.4355">Application Components</text></g><!--cluster DOB_y7M3wz--><g class="cluster" data-qualified-name="DOM_application.DOB_y7M3wz" data-source-line="126" id="ent0013"><rect fill="#B0D0D9" height="238" rx="2" ry="2" style="stroke:#353E41;stroke-width:1;" width="304" x="411" y="580.2969"/><path d="M485.9947,586.5061 L497.0717,586.5061 L497.0717,587.9461 L485.9947,587.9461" fill="#252327"/><path d="M485.9947,594.3707 L497.0717,594.3707 L497.0717,595.8107 L485.9947,595.8107" fill="#252327"/><path d="M485.9947,587.9461 L485.9947,594.3707 L487.4347,594.3707 L487.4347,587.9461" fill="#252327"/><path d="M495.6317,587.9461 L495.6317,594.3707 L497.0717,594.3707 L497.0717,587.9461" fill="#252327"/><path d="M485.9947,587.78 L497.0717,587.78 L497.0717,589.22 L485.9947,589.22" fill="#252327"/><text fill="#000000" font-family="sans-serif" font-size="12" font-weight="700" lengthAdjust="spacing" textLength="138.7559" x="504.5725" y="597.1899">Viewpoint Definition</text></g><!--entity REQ_mdH8Uv--><g class="entity" data-qualified-name="DOM_motivation.REQ_mdH8Uv" data-source-line="108" id="ent0003"><path d="M33,76.2969 L194.893,76.2969 L204.893,86.2969 L204.893,117.9887 L194.893,127.9887 L33,127.9887 L23,117.9887 L23,86.2969 L33,76.2969" fill="#D1BADC" style="stroke:#3F3842;stroke-width:0.5;"/><path d="M37.8738,90.9492 L46.7354,90.9492 L44.9631,99.3676 L36.1015,99.3676" fill="#252327" style="stroke:none;stroke-width:0.5;"/><text fill="#000000" font-family="sans-serif" font-size="12" lengthAdjust="spacing" textLength="3.8145" x="50.7231" y="101.1899">&#160;</text><text fill="#000000" font-family="sans-serif" font-size="12" lengthAdjust="spacing" textLength="100.5117" x="54.5375" y="101.1899">Viewpoint-Based</text><text fill="#000000" font-family="sans-serif" font-size="12" lengthAdjust="spacing" textLength="3.8145" x="155.0492" y="101.1899">&#160;</text><text fill="#000000" font-family="sans-serif" font-size="12" lengthAdjust="spacing" textLength="36.0293" x="158.8637" y="101.1899">Model</text><text fill="#000000" font-family="sans-serif" font-size="12" lengthAdjust="spacing" textLength="75.8379" x="76.0276" y="115.1586">Presentation</text></g><!--entity FNC_bsmo2W--><g class="entity" data-qualified-name="DOM_common.FNC_bsmo2W" data-source-line="113" id="ent0005"><rect fill="#E5DFD3" height="51.6918" rx="7" ry="7" style="stroke:#45433F;stroke-width:0.5;" width="229.395" x="109.5" y="208.2969"/><path d="M122.7123,231.2569 L122.7123,224.2784 L128.3615,221.7307 L134.0108,224.2784 L134.0108,231.2569 L128.3615,228.4876" fill="#252327" style="stroke:none;stroke-width:0.5;"/><text fill="#000000" font-family="sans-serif" font-size="12" lengthAdjust="spacing" textLength="3.8145" x="137.2231" y="233.1899">&#160;</text><text fill="#000000" font-family="sans-serif" font-size="12" lengthAdjust="spacing" textLength="56.0039" x="141.0375" y="233.1899">Compose</text><text fill="#000000" font-family="sans-serif" font-size="12" lengthAdjust="spacing" textLength="3.8145" x="197.0414" y="233.1899">&#160;</text><text fill="#000000" font-family="sans-serif" font-size="12" lengthAdjust="spacing" textLength="64.8809" x="200.8559" y="233.1899">Ephemeral</text><text fill="#000000" font-family="sans-serif" font-size="12" lengthAdjust="spacing" textLength="3.8145" x="265.7367" y="233.1899">&#160;</text><text fill="#000000" font-family="sans-serif" font-size="12" lengthAdjust="spacing" textLength="59.3438" x="269.5512" y="233.1899">Viewpoint</text><text fill="#000000" font-family="sans-serif" font-size="12" lengthAdjust="spacing" textLength="74.3906" x="155.5754" y="247.1586">&#171;Application</text><text fill="#000000" font-family="sans-serif" font-size="12" lengthAdjust="spacing" textLength="3.8145" x="229.966" y="247.1586">&#160;</text><text fill="#000000" font-family="sans-serif" font-size="12" lengthAdjust="spacing" textLength="59.0391" x="233.7805" y="247.1586">Function&#187;</text></g><!--entity FNC_qgicoe--><g class="entity" data-qualified-name="DOM_common.FNC_qgicoe" data-source-line="114" id="ent0006"><rect fill="#E5DFD3" height="51.6918" rx="7" ry="7" style="stroke:#45433F;stroke-width:0.5;" width="233.9125" x="105" y="348.2969"/><path d="M118.2123,371.2569 L118.2123,364.2784 L123.8615,361.7307 L129.5108,364.2784 L129.5108,371.2569 L123.8615,368.4876" fill="#252327" style="stroke:none;stroke-width:0.5;"/><text fill="#000000" font-family="sans-serif" font-size="12" lengthAdjust="spacing" textLength="3.8145" x="132.7231" y="373.1899">&#160;</text><text fill="#000000" font-family="sans-serif" font-size="12" lengthAdjust="spacing" textLength="48.3574" x="136.5375" y="373.1899">Execute</text><text fill="#000000" font-family="sans-serif" font-size="12" lengthAdjust="spacing" textLength="3.8145" x="184.895" y="373.1899">&#160;</text><text fill="#000000" font-family="sans-serif" font-size="12" lengthAdjust="spacing" textLength="59.3438" x="188.7094" y="373.1899">Viewpoint</text><text fill="#000000" font-family="sans-serif" font-size="12" lengthAdjust="spacing" textLength="3.8145" x="248.0532" y="373.1899">&#160;</text><text fill="#000000" font-family="sans-serif" font-size="12" lengthAdjust="spacing" textLength="77.0449" x="251.8676" y="373.1899">Specification</text><text fill="#000000" font-family="sans-serif" font-size="12" lengthAdjust="spacing" textLength="74.3906" x="153.3342" y="387.1586">&#171;Application</text><text fill="#000000" font-family="sans-serif" font-size="12" lengthAdjust="spacing" textLength="3.8145" x="227.7248" y="387.1586">&#160;</text><text fill="#000000" font-family="sans-serif" font-size="12" lengthAdjust="spacing" textLength="59.0391" x="231.5393" y="387.1586">Function&#187;</text></g><!--entity APP_lmO0mp--><g class="entity" data-qualified-name="DOM_application.GRPT_application_1.APP_lmO0mp" data-source-line="121" id="ent0010"><rect fill="#B0D0D9" height="51.6918" rx="2" ry="2" style="stroke:#353E41;stroke-width:0.5;" width="155.0922" x="419.5" y="348.2969"/><path d="M433.9308,362.9492 L442.1277,362.9492 L442.1277,371.3676 L433.9308,371.3676" fill="#252327" style="stroke:none;stroke-width:0.5;"/><path d="M432.0477,363.78 L433.9308,363.78 L433.9308,365.22 L432.0477,365.22" fill="#252327"/><path d="M432.0477,366.4384 L433.9308,366.4384 L433.9308,367.8784 L432.0477,367.8784" fill="#252327"/><path d="M432.0477,369.0969 L433.9308,369.0969 L433.9308,370.5369 L432.0477,370.5369" fill="#252327"/><path d="M442.1277,363.78 L443.6785,363.78 L443.6785,365.22 L442.1277,365.22" fill="#252327"/><path d="M442.1277,366.4384 L443.6785,366.4384 L443.6785,367.8784 L442.1277,367.8784" fill="#252327"/><path d="M442.1277,369.0969 L443.6785,369.0969 L443.6785,370.5369 L442.1277,370.5369" fill="#252327"/><text fill="#000000" font-family="sans-serif" font-size="12" lengthAdjust="spacing" textLength="3.8145" x="447.2231" y="373.1899">&#160;</text><text fill="#000000" font-family="sans-serif" font-size="12" lengthAdjust="spacing" textLength="21.6211" x="451.0375" y="373.1899">GUI</text><text fill="#000000" font-family="sans-serif" font-size="12" lengthAdjust="spacing" textLength="3.8145" x="472.6586" y="373.1899">&#160;</text><text fill="#000000" font-family="sans-serif" font-size="12" lengthAdjust="spacing" textLength="58.957" x="476.4731" y="373.1899">Authoring</text><text fill="#000000" font-family="sans-serif" font-size="12" lengthAdjust="spacing" textLength="3.8145" x="535.4301" y="373.1899">&#160;</text><text fill="#000000" font-family="sans-serif" font-size="12" lengthAdjust="spacing" textLength="25.3477" x="539.2446" y="373.1899">Tool</text><text fill="#000000" font-family="sans-serif" font-size="12" lengthAdjust="spacing" textLength="59.0332" x="467.5295" y="387.1586">&#171;Service&#187;</text></g><!--entity APP_v9LvfK--><g class="entity" data-qualified-name="DOM_application.GRPT_application_1.APP_v9LvfK" data-source-line="122" id="ent0011"><rect fill="#B0D0D9" height="51.6918" rx="2" ry="2" style="stroke:#353E41;stroke-width:0.5;" width="122.9477" x="435.5" y="480.2969"/><path d="M449.9308,494.9492 L458.1277,494.9492 L458.1277,503.3676 L449.9308,503.3676" fill="#252327" style="stroke:none;stroke-width:0.5;"/><path d="M448.0477,495.78 L449.9308,495.78 L449.9308,497.22 L448.0477,497.22" fill="#252327"/><path d="M448.0477,498.4384 L449.9308,498.4384 L449.9308,499.8784 L448.0477,499.8784" fill="#252327"/><path d="M448.0477,501.0969 L449.9308,501.0969 L449.9308,502.5369 L448.0477,502.5369" fill="#252327"/><path d="M458.1277,495.78 L459.6785,495.78 L459.6785,497.22 L458.1277,497.22" fill="#252327"/><path d="M458.1277,498.4384 L459.6785,498.4384 L459.6785,499.8784 L458.1277,499.8784" fill="#252327"/><path d="M458.1277,501.0969 L459.6785,501.0969 L459.6785,502.5369 L458.1277,502.5369" fill="#252327"/><text fill="#000000" font-family="sans-serif" font-size="12" lengthAdjust="spacing" textLength="3.8145" x="463.2231" y="505.1899">&#160;</text><text fill="#000000" font-family="sans-serif" font-size="12" lengthAdjust="spacing" textLength="36.4688" x="467.0375" y="505.1899">Query</text><text fill="#000000" font-family="sans-serif" font-size="12" lengthAdjust="spacing" textLength="3.8145" x="503.5063" y="505.1899">&#160;</text><text fill="#000000" font-family="sans-serif" font-size="12" lengthAdjust="spacing" textLength="41.127" x="507.3207" y="505.1899">Engine</text><text fill="#000000" font-family="sans-serif" font-size="12" lengthAdjust="spacing" textLength="58.3184" x="467.8147" y="519.1586">&#171;Module&#187;</text></g><!--entity DOB_CY3B_f--><g class="entity" data-qualified-name="DOM_application.DOB_y7M3wz.DOB_CY3B_f" data-source-line="127" id="ent0014"><rect fill="#B0D0D9" height="37.7231" rx="2" ry="2" style="stroke:#353E41;stroke-width:0.5;" width="211.641" x="479" y="624.2969"/><path d="M492.3231,638.5061 L503.4,638.5061 L503.4,639.9461 L492.3231,639.9461" fill="#252327"/><path d="M492.3231,646.3707 L503.4,646.3707 L503.4,647.8107 L492.3231,647.8107" fill="#252327"/><path d="M492.3231,639.9461 L492.3231,646.3707 L493.7631,646.3707 L493.7631,639.9461" fill="#252327"/><path d="M501.96,639.9461 L501.96,646.3707 L503.4,646.3707 L503.4,639.9461" fill="#252327"/><path d="M492.3231,639.78 L503.4,639.78 L503.4,641.22 L492.3231,641.22" fill="#252327"/><text fill="#000000" font-family="sans-serif" font-size="12" lengthAdjust="spacing" textLength="3.8145" x="506.7231" y="649.1899">&#160;</text><text fill="#000000" font-family="sans-serif" font-size="12" lengthAdjust="spacing" textLength="66.6621" x="510.5375" y="649.1899">Executable</text><text fill="#000000" font-family="sans-serif" font-size="12" lengthAdjust="spacing" textLength="3.8145" x="577.1996" y="649.1899">&#160;</text><text fill="#000000" font-family="sans-serif" font-size="12" lengthAdjust="spacing" textLength="59.3438" x="581.0141" y="649.1899">Viewpoint</text><text fill="#000000" font-family="sans-serif" font-size="12" lengthAdjust="spacing" textLength="3.8145" x="640.3578" y="649.1899">&#160;</text><text fill="#000000" font-family="sans-serif" font-size="12" lengthAdjust="spacing" textLength="36.4688" x="644.1723" y="649.1899">Query</text></g><!--entity DOB_zQzA5_--><g class="entity" data-qualified-name="DOM_application.DOB_y7M3wz.DOB_zQzA5_" data-source-line="128" id="ent0015"><rect fill="#B0D0D9" height="51.6918" rx="2" ry="2" style="stroke:#353E41;stroke-width:0.5;" width="180.5336" x="494.5" y="742.2969"/><path d="M507.8231,756.5061 L518.9,756.5061 L518.9,757.9461 L507.8231,757.9461" fill="#252327"/><path d="M507.8231,764.3707 L518.9,764.3707 L518.9,765.8107 L507.8231,765.8107" fill="#252327"/><path d="M507.8231,757.9461 L507.8231,764.3707 L509.2631,764.3707 L509.2631,757.9461" fill="#252327"/><path d="M517.46,757.9461 L517.46,764.3707 L518.9,764.3707 L518.9,757.9461" fill="#252327"/><path d="M507.8231,757.78 L518.9,757.78 L518.9,759.22 L507.8231,759.22" fill="#252327"/><text fill="#000000" font-family="sans-serif" font-size="12" lengthAdjust="spacing" textLength="3.8145" x="522.2231" y="767.1899">&#160;</text><text fill="#000000" font-family="sans-serif" font-size="12" lengthAdjust="spacing" textLength="59.3438" x="526.0375" y="767.1899">Viewpoint</text><text fill="#000000" font-family="sans-serif" font-size="12" lengthAdjust="spacing" textLength="3.8145" x="585.3813" y="767.1899">&#160;</text><text fill="#000000" font-family="sans-serif" font-size="12" lengthAdjust="spacing" textLength="75.8379" x="589.1957" y="767.1899">Presentation</text><text fill="#000000" font-family="sans-serif" font-size="12" lengthAdjust="spacing" textLength="77.0449" x="546.2444" y="781.1586">Specification</text></g><!--link FNC_bsmo2W to FNC_qgicoe--><!--link FNC_bsmo2W to FNC_qgicoe--><g class="link" data-entity-1="ent0005" data-entity-2="ent0006" data-link-type="dependency" data-source-line="143" id="lnk27"><path d="M262.17,260.2969 C262.17,285.2869 262.17,316.8569 262.17,341.9569" fill="none" id="FNC_bsmo2W-to-FNC_qgicoe" style="stroke:#181818;stroke-width:1;"/><polygon fill="#181818" points="262.17,347.9569,266.17,338.9569,262.17,342.9569,258.17,338.9569,262.17,347.9569" style="stroke:#181818;stroke-width:1;"/></g><!--link APP_lmO0mp to APP_v9LvfK--><!--link APP_v9LvfK to APP_lmO0mp--><g class="link" data-entity-1="ent0011" data-entity-2="ent0010" data-link-type="dependency" data-source-line="135" id="lnk17"><path d="M517.5,480.2169 C517.5,457.0769 517.5,429.4469 517.5,406.3169" fill="none" id="APP_v9LvfK-to-APP_lmO0mp" style="stroke:#181818;stroke-width:1;"/><polygon fill="#181818" points="517.5,400.3169,513.5,409.3169,517.5,405.3169,521.5,409.3169,517.5,400.3169" style="stroke:#181818;stroke-width:1;"/></g><!--link DOB_CY3B_f to DOB_zQzA5_--><!--link APP_v9LvfK to DOB_y7M3wz--><g class="link" data-entity-1="ent0011" data-entity-2="ent0013" data-link-type="dependency" data-source-line="136" id="lnk18"><path d="M457.25,532.3869 C457.25,542.3244 457.25,554.225 457.25,566.4861 C457.25,569.5514 457.25,572.6392 457.25,575.7245 C457.25,576.4958 457.25,577.2669 457.25,578.0376 C457.25,578.4229 457.25,578.808 457.25,579.193 C457.25,579.3855 457.25,573.578 457.25,573.7704" fill="none" id="APP_v9LvfK-to-DOB_y7M3wz" style="stroke:#181818;stroke-width:1;stroke-dasharray:1,3;"/><polygon fill="#181818" points="457.25,579.7704,461.25,570.7704,457.25,574.7704,453.25,570.7704,457.25,579.7704" style="stroke:#181818;stroke-width:1;"/></g><!--reverse link FNC_qgicoe to APP_v9LvfK--><g class="link" data-entity-1="ent0006" data-entity-2="ent0011" data-link-type="dependency" data-source-line="137" id="lnk20"><path d="M280.5,406.3769 C280.5,444.8469 280.5,506.2969 280.5,506.2969 C280.5,506.2969 371.26,506.2969 435.25,506.2969" fill="none" id="FNC_qgicoe-backto-APP_v9LvfK" style="stroke:#181818;stroke-width:1;"/><polygon fill="#181818" points="280.5,400.3769,276.5,409.3769,280.5,405.3769,284.5,409.3769,280.5,400.3769" style="stroke:#181818;stroke-width:1;"/></g><!--reverse link FNC_bsmo2W to APP_lmO0mp--><g class="link" data-entity-1="ent0005" data-entity-2="ent0010" data-link-type="dependency" data-source-line="138" id="lnk22"><path d="M344.59,234.2969 C419.3,234.2969 497,234.2969 497,234.2969 C497,234.2969 497,307.8069 497,348.2969" fill="none" id="FNC_bsmo2W-backto-APP_lmO0mp" style="stroke:#181818;stroke-width:1;"/><polygon fill="#181818" points="338.59,234.2969,347.59,238.2969,343.59,234.2969,347.59,230.2969,338.59,234.2969" style="stroke:#181818;stroke-width:1;"/></g><!--link FNC_bsmo2W to DOB_CY3B_f--><g class="link" data-entity-1="ent0005" data-entity-2="ent0014" data-link-type="dependency" data-source-line="139" id="lnk23"><path d="M338.68,221.2969 C459.59,221.2969 632.75,221.2969 632.75,221.2969 C632.75,221.2969 632.75,535.5169 632.75,618.0669" fill="none" id="FNC_bsmo2W-to-DOB_CY3B_f" style="stroke:#181818;stroke-width:1;stroke-dasharray:1,3;"/><polygon fill="#181818" points="632.75,624.0669,636.75,615.0669,632.75,619.0669,628.75,615.0669,632.75,624.0669" style="stroke:#181818;stroke-width:1;"/></g><!--link FNC_qgicoe to DOB_CY3B_f--><g class="link" data-entity-1="ent0006" data-entity-2="ent0014" data-link-type="dependency" data-source-line="140" id="lnk24"><path d="M222,400.5569 C222,466.3969 222,633.2969 222,633.2969 C222,633.2969 365.43,633.2969 472.54,633.2969" fill="none" id="FNC_qgicoe-to-DOB_CY3B_f" style="stroke:#181818;stroke-width:1;stroke-dasharray:1,3;"/><polygon fill="#181818" points="478.54,633.2969,469.54,629.2969,473.54,633.2969,469.54,637.2969,478.54,633.2969" style="stroke:#181818;stroke-width:1;"/></g><!--link FNC_bsmo2W to DOB_zQzA5_--><g class="link" data-entity-1="ent0005" data-entity-2="ent0015" data-link-type="dependency" data-source-line="141" id="lnk25"><path d="M338.71,247.2969 C361.47,247.2969 378.5,247.2969 378.5,247.2969 C378.5,247.2969 378.5,760.2969 378.5,760.2969 C378.5,760.2969 432.94,760.2969 488.43,760.2969" fill="none" id="FNC_bsmo2W-to-DOB_zQzA5_" style="stroke:#181818;stroke-width:1;stroke-dasharray:1,3;"/><polygon fill="#181818" points="494.43,760.2969,485.43,756.2969,489.43,760.2969,485.43,764.2969,494.43,760.2969" style="stroke:#181818;stroke-width:1;"/></g><!--link FNC_qgicoe to DOB_zQzA5_--><g class="link" data-entity-1="ent0006" data-entity-2="ent0015" data-link-type="dependency" data-source-line="142" id="lnk26"><path d="M163.5,400.4269 C163.5,489.7269 163.5,777.2969 163.5,777.2969 C163.5,777.2969 364.44,777.2969 488.32,777.2969" fill="none" id="FNC_qgicoe-to-DOB_zQzA5_" style="stroke:#181818;stroke-width:1;stroke-dasharray:1,3;"/><polygon fill="#181818" points="494.32,777.2969,485.32,773.2969,489.32,777.2969,485.32,781.2969,494.32,777.2969" style="stroke:#181818;stroke-width:1;"/></g><!--reverse link REQ_mdH8Uv to FNC_bsmo2W--><g class="link" data-entity-1="ent0003" data-entity-2="ent0005" data-link-type="extension" data-source-line="144" id="lnk29"><path d="M157.25,146.3769 C157.25,169.5169 157.25,185.1469 157.25,208.2769" fill="none" id="REQ_mdH8Uv-backto-FNC_bsmo2W" style="stroke:#181818;stroke-width:1;stroke-dasharray:7,7;"/><polygon fill="none" points="157.25,128.3769,151.25,146.3769,163.25,146.3769,157.25,128.3769" style="stroke:#181818;stroke-width:1;"/></g><!--reverse link REQ_mdH8Uv to FNC_qgicoe--><g class="link" data-entity-1="ent0003" data-entity-2="ent0006" data-link-type="extension" data-source-line="145" id="lnk31"><path d="M64,146.3769 C64,214.4569 64,374.2969 64,374.2969 C64,374.2969 81.42,374.2969 104.69,374.2969" fill="none" id="REQ_mdH8Uv-backto-FNC_qgicoe" style="stroke:#181818;stroke-width:1;stroke-dasharray:7,7;"/><polygon fill="none" points="64,128.3769,58,146.3769,70,146.3769,64,128.3769" style="stroke:#181818;stroke-width:1;"/></g><?plantuml-src hPdjRjis58R_-oeuTy2se5BqvTWU4WDsRBV5aZPDqXP3DnYCH4jQ958LPJjD6s0NiRlO9UnVBsLNCagMBTeMAIiBqXI9oFUSLmyFlnnww-C8nZ043fh2MP1Sexka7_Wk3X5EWCt-Gt73ynq4AFi9aUHpX1eDkYqR4voyXY42Ln3JAnJxq_8-L_uz0hh1DL8FEcJXOnTCOK0HrnAJ6NPi4cCK0ujxVWFjMpThF2K1YS6pSJ_zubq5FaQfKq3Yn2DS0oOEeYW2HngV2EBRz657Qtp7l38jk4J1f6_RYD8Vfp49duE4F0S1l471Jo1z09IF3aaIvFokz5XRYMxoBggIpYAXU4WMk4hEi65XW3CqJQe21AoFCC2bxtgL4UAqKqa8rusH2nEVY5w2A8f496P750PDffI08qf6JAQMK2DAXakcbY4ZofBLZfxIVBA9M9VWNMiaHLPQN8LGLc22mYh4ik8I55KXbXQMgA0e9ROlAoX5aMZac6J2IamoSIKccNWFJDloKn96XFeIIWUAJ2J6T536YLTAE1sKW-BL4b07vQHujOpKWG3LE20BWKHLUsMznN3KMIIGIAYeAHI1J893JMa8P38EQePXL_WAJuCPmZRQ7yPQKfD8eQkFfT3MPrDe7mFe4i70lvUjFAhwLQQIKv9BAq79vPMivF8zSEq6O6U_EJlCxR-PvOAQEzbALNyRModhxs4hvMCsiAi8iOMzef8KvMk5K4wfKbr9gp929RNA27lGsurnpHfSTgkeKrY5fcPjSSBwvSM9wrSO9zwtoBXR3B8JYDq07H_teoZmxOpt2tPHYbZ0NWzyQG0msBux3GUZ_cYKjf3OGN7-r6oP8qjlF9I7PvjlM1rvR8xrqM0xijMoJ7CiYdnE4d--bs_cMXkDTtoFpOvbYAB30il4JWyGc9r7HGa6sb0RTkk1SM029-Jc3_RaASDEPzXEJGjPj8RZeIaW3S3bicjsZzOjKP8OVPhvCGebI8Rwe3yy5J07OEX3bs0Oh59fQQeezXC4leUnxVaXJD2aT130CPsxu2uCC3rfUaaI_Nnuk5Wir8MfajWzD3HDEsGzcc3keyM0t9qqDQ01_OZzQ_QE8vXum3bfdbl0KWslhLhpjdhqqhfl0Z3rW-2a-Sne6QRHRWAQnEGMdJGnIziyvAI6QcfCtMrvkjhMvZhxzMNwZCNO3B4ZQgjcVL5NRTSIwRfghVrPkIfxk8SiTrXNbdkibAKZqoiPQMusFD7ucggc0LFjQ9wkiH-NljA7qhV9L4pGVOIifUhQl9LbPABtwQzLvDhrLLcgvU1M6nJXNgqIJyJQKBiWVHlctZhhCEfwmDu3i4gT7wacUz9LZJqccCWjjzmyrUHNbzE_SyOWTbBl7K_fx6znlIWkOXXzy1qMrh3uZmb3U7UEA8KkoZx5J1iRYPy42BndnYBYirSPtI5xbet2lt_-1QxW73a0OWUC8e-zQmm3SC7yqaPZlVA2Ph7fDO5W2uGK3D-SJy9rMxP0Sp6Eoz5-eJOCq8ck6W-zmgKoW9JvEYSEOdvYH5dFTVxDVO0blXozdOJEoywxUOCjwBpnvJaW5UsS27B3TlPSPdPLjHjEbxTxn55RU_yDV_kREzw0SQx_za_gWzifcOFnwzF93Gs9yQ5c_kKeykEQ7MAdUTAw7ZwvlaqGyr0O0if7ptSSX9UVulBTjY1pYTBevKUx73Utjsupv_sUhhPTAetuulBYUcExrhEWGfIbE_i6rnVlNe7-BF58UiG5ruG4AShiNcMZ9JtH6OtvwLzSJ8BmZHP6_y_5sncAFuCHTjcnEytFvi4is2_zl7isd_x2qZ-mxy9FCPhvfqrSNt7fSVjZ-Jm5m_HguA-6VlDqcGtvOFAvVMukxkK38qgqB7Duix62PNI4wKv_DGUJwMEI5Hdu5MTpOWdJth-zxxScMTh2nVOSskZuaCsZ7rYjOuoo-KWRnQXazqMkdlYMhJ-l590tUcKNHsxMyiMmRiiNdurfN_pPYEDP19Br4CJ8traIW-knYh7fdcl9FvNYLdqky6xZVm00?></g></svg>