<svg xmlns="http://www.w3.org/2000/svg" xmlns:xlink="http://www.w3.org/1999/xlink" contentStyleType="text/css" data-diagram-type="DESCRIPTION" height="684px" preserveAspectRatio="none" style="width:1391px;height:684px;background:#FAFAFA;" version="1.1" viewBox="0 0 1391 684" width="1391px" zoomAndPan="magnify"><?plantuml 1.2026.3?><defs/><g><rect fill="#FAFAFA" height="684" style="stroke:none;stroke-width:1;" width="1391" x="0" y="0"/><g class="title" data-source-line="111"><text fill="#000000" font-family="sans-serif" font-size="14" font-weight="700" lengthAdjust="spacing" textLength="191.2695" x="596.3652" y="22.9951">Updating an Installation</text></g><!--cluster DOM_motivation--><g class="cluster" data-qualified-name="DOM_motivation" data-source-line="113" id="ent0002"><rect fill="#EAE0EF" height="102" rx="2" ry="2" style="stroke:#3F3842;stroke-width:1;" width="284" x="1074" y="144.2969"/><text fill="#000000" font-family="sans-serif" font-size="12" font-weight="700" lengthAdjust="spacing" textLength="72.5918" x="1179.7041" y="157.4355">Motivation</text></g><!--cluster DOM_common--><g class="cluster" data-qualified-name="DOM_common" data-source-line="118" id="ent0004"><rect fill="#F3F1EB" height="384" rx="2" ry="2" style="stroke:#45433F;stroke-width:1;" width="326" x="1051" y="286.2969"/><text fill="#000000" font-family="sans-serif" font-size="12" font-weight="700" lengthAdjust="spacing" textLength="58.8457" x="1184.5771" y="299.4355">Common</text></g><!--cluster DOM_application--><g class="cluster" data-qualified-name="DOM_application" data-source-line="128" id="ent0011"><rect fill="#DBEAEE" height="408" rx="2" ry="2" style="stroke:#353E41;stroke-width:1;" width="1004" x="7" y="44.2969"/><text fill="#000000" font-family="sans-serif" font-size="12" font-weight="700" lengthAdjust="spacing" textLength="76.541" x="470.7295" y="57.4355">Application</text></g><!--cluster GRPT_application_1--><g class="cluster" data-qualified-name="DOM_application.GRPT_application_1" data-source-line="129" id="ent0012"><rect fill="#DBEAEE" height="328" rx="2" ry="2" style="stroke:#353E41;stroke-width:1;" width="536" x="39" y="92.2969"/><text fill="#000000" font-family="sans-serif" font-size="12" font-weight="700" lengthAdjust="spacing" textLength="165.2109" x="224.3945" y="105.4355">Application Components</text></g><!--cluster APP_Ir9SkCr--><g class="cluster" data-qualified-name="DOM_application.GRPT_application_1.APP_Ir9SkCr" data-source-line="130" id="ent0013"><rect fill="#B0D0D9" height="248" rx="2" ry="2" style="stroke:#353E41;stroke-width:1;" width="288" x="71" y="140.2969"/><path d="M93.4227,146.9492 L101.6197,146.9492 L101.6197,155.3676 L93.4227,155.3676" fill="#252327" style="stroke:none;stroke-width:1;"/><path d="M91.5397,147.78 L93.4227,147.78 L93.4227,149.22 L91.5397,149.22" fill="#252327"/><path d="M91.5397,150.4384 L93.4227,150.4384 L93.4227,151.8784 L91.5397,151.8784" fill="#252327"/><path d="M91.5397,153.0969 L93.4227,153.0969 L93.4227,154.5369 L91.5397,154.5369" fill="#252327"/><path d="M101.6197,147.78 L103.1704,147.78 L103.1704,149.22 L101.6197,149.22" fill="#252327"/><path d="M101.6197,150.4384 L103.1704,150.4384 L103.1704,151.8784 L101.6197,151.8784" fill="#252327"/><path d="M101.6197,153.0969 L103.1704,153.0969 L103.1704,154.5369 L101.6197,154.5369" fill="#252327"/><text fill="#000000" font-family="sans-serif" font-size="12" font-weight="700" lengthAdjust="spacing" textLength="230.1152" x="110.8928" y="157.1899">Workspace Administration Toolkit</text></g><!--cluster GRPT_application_2--><g class="cluster" data-qualified-name="DOM_application.GRPT_application_2" data-source-line="139" id="ent0019"><rect fill="#DBEAEE" height="86" rx="2" ry="2" style="stroke:#353E41;stroke-width:1;" width="368" x="603" y="294.2969"/><text fill="#000000" font-family="sans-serif" font-size="12" font-weight="700" lengthAdjust="spacing" textLength="87.1055" x="743.4473" y="307.4355">Data Objects</text></g><!--entity REQ_7Qke86l--><g class="entity" data-qualified-name="DOM_motivation.REQ_7Qke86l" data-source-line="114" id="ent0003"><path d="M1152,184.2969 L1324.4164,184.2969 L1334.4164,194.2969 L1334.4164,212.02 L1324.4164,222.02 L1152,222.02 L1142,212.02 L1142,194.2969 L1152,184.2969" fill="#D1BADC" style="stroke:#3F3842;stroke-width:0.5;"/><path d="M1156.8738,198.9492 L1165.7354,198.9492 L1163.9631,207.3676 L1155.1015,207.3676" fill="#252327" style="stroke:none;stroke-width:0.5;"/><text fill="#000000" font-family="sans-serif" font-size="12" lengthAdjust="spacing" textLength="3.8145" x="1169.7231" y="209.1899">&#160;</text><text fill="#000000" font-family="sans-serif" font-size="12" lengthAdjust="spacing" textLength="46.418" x="1173.5375" y="209.1899">Verified</text><text fill="#000000" font-family="sans-serif" font-size="12" lengthAdjust="spacing" textLength="3.8145" x="1219.9555" y="209.1899">&#160;</text><text fill="#000000" font-family="sans-serif" font-size="12" lengthAdjust="spacing" textLength="53.373" x="1223.77" y="209.1899">Software</text><text fill="#000000" font-family="sans-serif" font-size="12" lengthAdjust="spacing" textLength="3.8145" x="1277.143" y="209.1899">&#160;</text><text fill="#000000" font-family="sans-serif" font-size="12" lengthAdjust="spacing" textLength="43.459" x="1280.9575" y="209.1899">Update</text></g><!--entity PRC_siHhysu--><g class="entity" data-qualified-name="DOM_common.PRC_siHhysu" data-source-line="119" id="ent0005"><rect fill="#E5DFD3" height="37.7231" rx="7" ry="7" style="stroke:#45433F;stroke-width:0.5;" width="197.1215" x="1080.5" y="326.2969"/><path d="M1093.38,340.8384 L1100.3585,340.8384 L1100.3585,339.3984 L1105.3431,345.1584 L1100.3585,350.9184 L1100.3585,349.4784 L1093.38,349.4784" fill="#252327" style="stroke:none;stroke-width:0.5;"/><text fill="#000000" font-family="sans-serif" font-size="12" lengthAdjust="spacing" textLength="3.8145" x="1108.2231" y="351.1899">&#160;</text><text fill="#000000" font-family="sans-serif" font-size="12" lengthAdjust="spacing" textLength="43.459" x="1112.0375" y="351.1899">Update</text><text fill="#000000" font-family="sans-serif" font-size="12" lengthAdjust="spacing" textLength="3.8145" x="1155.4965" y="351.1899">&#160;</text><text fill="#000000" font-family="sans-serif" font-size="12" lengthAdjust="spacing" textLength="51.123" x="1159.311" y="351.1899">Installed</text><text fill="#000000" font-family="sans-serif" font-size="12" lengthAdjust="spacing" textLength="3.8145" x="1210.434" y="351.1899">&#160;</text><text fill="#000000" font-family="sans-serif" font-size="12" lengthAdjust="spacing" textLength="53.373" x="1214.2485" y="351.1899">Software</text></g><!--entity PRC_9ybAn48--><g class="entity" data-qualified-name="DOM_common.PRC_9ybAn48" data-source-line="120" id="ent0006"><rect fill="#E5DFD3" height="37.7231" rx="7" ry="7" style="stroke:#45433F;stroke-width:0.5;" width="207.7446" x="1075" y="476.2969"/><path d="M1087.88,490.8384 L1094.8585,490.8384 L1094.8585,489.3984 L1099.8431,495.1584 L1094.8585,500.9184 L1094.8585,499.4784 L1087.88,499.4784" fill="#252327" style="stroke:none;stroke-width:0.5;"/><text fill="#000000" font-family="sans-serif" font-size="12" lengthAdjust="spacing" textLength="3.8145" x="1102.7231" y="501.1899">&#160;</text><text fill="#000000" font-family="sans-serif" font-size="12" lengthAdjust="spacing" textLength="51.3047" x="1106.5375" y="501.1899">Upgrade</text><text fill="#000000" font-family="sans-serif" font-size="12" lengthAdjust="spacing" textLength="3.8145" x="1157.8422" y="501.1899">&#160;</text><text fill="#000000" font-family="sans-serif" font-size="12" lengthAdjust="spacing" textLength="64.3477" x="1161.6567" y="501.1899">Repository</text><text fill="#000000" font-family="sans-serif" font-size="12" lengthAdjust="spacing" textLength="3.8145" x="1226.0043" y="501.1899">&#160;</text><text fill="#000000" font-family="sans-serif" font-size="12" lengthAdjust="spacing" textLength="42.9258" x="1229.8188" y="501.1899">Format</text></g><!--entity FNC_3xVBUQ--><g class="entity" data-qualified-name="DOM_common.FNC_3xVBUQ" data-source-line="121" id="ent0007"><rect fill="#E5DFD3" height="51.6918" rx="7" ry="7" style="stroke:#45433F;stroke-width:0.5;" width="247.4594" x="1086.5" y="594.2969"/><path d="M1099.7123,617.2569 L1099.7123,610.2784 L1105.3615,607.7307 L1111.0108,610.2784 L1111.0108,617.2569 L1105.3615,614.4876" fill="#252327" style="stroke:none;stroke-width:0.5;"/><text fill="#000000" font-family="sans-serif" font-size="12" lengthAdjust="spacing" textLength="3.8145" x="1114.2231" y="619.1899">&#160;</text><text fill="#000000" font-family="sans-serif" font-size="12" lengthAdjust="spacing" textLength="47.666" x="1118.0375" y="619.1899">Manage</text><text fill="#000000" font-family="sans-serif" font-size="12" lengthAdjust="spacing" textLength="3.8145" x="1165.7035" y="619.1899">&#160;</text><text fill="#000000" font-family="sans-serif" font-size="12" lengthAdjust="spacing" textLength="62.1914" x="1169.518" y="619.1899">Assurance</text><text fill="#000000" font-family="sans-serif" font-size="12" lengthAdjust="spacing" textLength="3.8145" x="1231.7094" y="619.1899">&#160;</text><text fill="#000000" font-family="sans-serif" font-size="12" lengthAdjust="spacing" textLength="31.9805" x="1235.5239" y="619.1899">Store</text><text fill="#000000" font-family="sans-serif" font-size="12" lengthAdjust="spacing" textLength="3.8145" x="1267.5043" y="619.1899">&#160;</text><text fill="#000000" font-family="sans-serif" font-size="12" lengthAdjust="spacing" textLength="52.6406" x="1271.3188" y="619.1899">Lifecycle</text><text fill="#000000" font-family="sans-serif" font-size="12" lengthAdjust="spacing" textLength="74.3906" x="1141.6076" y="633.1586">&#171;Application</text><text fill="#000000" font-family="sans-serif" font-size="12" lengthAdjust="spacing" textLength="3.8145" x="1215.9983" y="633.1586">&#160;</text><text fill="#000000" font-family="sans-serif" font-size="12" lengthAdjust="spacing" textLength="59.0391" x="1219.8127" y="633.1586">Function&#187;</text></g><!--entity APP_OYEmP1--><g class="entity" data-qualified-name="DOM_application.GRPT_application_1.APP_OYEmP1" data-source-line="135" id="ent0017"><rect fill="#B0D0D9" height="51.6918" rx="2" ry="2" style="stroke:#353E41;stroke-width:0.5;" width="171.0825" x="387.5" y="319.2969"/><path d="M401.9308,333.9492 L410.1277,333.9492 L410.1277,342.3676 L401.9308,342.3676" fill="#252327" style="stroke:none;stroke-width:0.5;"/><path d="M400.0477,334.78 L401.9308,334.78 L401.9308,336.22 L400.0477,336.22" fill="#252327"/><path d="M400.0477,337.4384 L401.9308,337.4384 L401.9308,338.8784 L400.0477,338.8784" fill="#252327"/><path d="M400.0477,340.0969 L401.9308,340.0969 L401.9308,341.5369 L400.0477,341.5369" fill="#252327"/><path d="M410.1277,334.78 L411.6785,334.78 L411.6785,336.22 L410.1277,336.22" fill="#252327"/><path d="M410.1277,337.4384 L411.6785,337.4384 L411.6785,338.8784 L410.1277,338.8784" fill="#252327"/><path d="M410.1277,340.0969 L411.6785,340.0969 L411.6785,341.5369 L410.1277,341.5369" fill="#252327"/><text fill="#000000" font-family="sans-serif" font-size="12" lengthAdjust="spacing" textLength="3.8145" x="415.2231" y="344.1899">&#160;</text><text fill="#000000" font-family="sans-serif" font-size="12" lengthAdjust="spacing" textLength="73.9922" x="419.0375" y="344.1899">Architecture</text><text fill="#000000" font-family="sans-serif" font-size="12" lengthAdjust="spacing" textLength="3.8145" x="493.0297" y="344.1899">&#160;</text><text fill="#000000" font-family="sans-serif" font-size="12" lengthAdjust="spacing" textLength="51.7383" x="496.8442" y="344.1899">Backend</text><text fill="#000000" font-family="sans-serif" font-size="12" lengthAdjust="spacing" textLength="59.0332" x="443.5246" y="358.1586">&#171;Service&#187;</text></g><!--entity APP_3hRHTJT--><g class="entity" data-qualified-name="DOM_application.GRPT_application_1.APP_Ir9SkCr.APP_3hRHTJT" data-source-line="131" id="ent0014"><rect fill="#B0D0D9" height="37.7231" rx="2" ry="2" style="stroke:#353E41;stroke-width:0.5;" width="147.1176" x="143.5" y="184.2969"/><path d="M157.9308,198.9492 L166.1277,198.9492 L166.1277,207.3676 L157.9308,207.3676" fill="#252327" style="stroke:none;stroke-width:0.5;"/><path d="M156.0477,199.78 L157.9308,199.78 L157.9308,201.22 L156.0477,201.22" fill="#252327"/><path d="M156.0477,202.4384 L157.9308,202.4384 L157.9308,203.8784 L156.0477,203.8784" fill="#252327"/><path d="M156.0477,205.0969 L157.9308,205.0969 L157.9308,206.5369 L156.0477,206.5369" fill="#252327"/><path d="M166.1277,199.78 L167.6785,199.78 L167.6785,201.22 L166.1277,201.22" fill="#252327"/><path d="M166.1277,202.4384 L167.6785,202.4384 L167.6785,203.8784 L166.1277,203.8784" fill="#252327"/><path d="M166.1277,205.0969 L167.6785,205.0969 L167.6785,206.5369 L166.1277,206.5369" fill="#252327"/><text fill="#000000" font-family="sans-serif" font-size="12" lengthAdjust="spacing" textLength="3.8145" x="171.2231" y="209.1899">&#160;</text><text fill="#000000" font-family="sans-serif" font-size="12" lengthAdjust="spacing" textLength="53.373" x="175.0375" y="209.1899">Software</text><text fill="#000000" font-family="sans-serif" font-size="12" lengthAdjust="spacing" textLength="3.8145" x="228.4106" y="209.1899">&#160;</text><text fill="#000000" font-family="sans-serif" font-size="12" lengthAdjust="spacing" textLength="48.3926" x="232.225" y="209.1899">Updater</text></g><!--entity APP_OZbaBh--><g class="entity" data-qualified-name="DOM_application.GRPT_application_1.APP_Ir9SkCr.APP_OZbaBh" data-source-line="132" id="ent0015"><rect fill="#B0D0D9" height="37.7231" rx="2" ry="2" style="stroke:#353E41;stroke-width:0.5;" width="232.1196" x="95" y="326.2969"/><path d="M109.4308,340.9492 L117.6277,340.9492 L117.6277,349.3676 L109.4308,349.3676" fill="#252327" style="stroke:none;stroke-width:0.5;"/><path d="M107.5477,341.78 L109.4308,341.78 L109.4308,343.22 L107.5477,343.22" fill="#252327"/><path d="M107.5477,344.4384 L109.4308,344.4384 L109.4308,345.8784 L107.5477,345.8784" fill="#252327"/><path d="M107.5477,347.0969 L109.4308,347.0969 L109.4308,348.5369 L107.5477,348.5369" fill="#252327"/><path d="M117.6277,341.78 L119.1785,341.78 L119.1785,343.22 L117.6277,343.22" fill="#252327"/><path d="M117.6277,344.4384 L119.1785,344.4384 L119.1785,345.8784 L117.6277,345.8784" fill="#252327"/><path d="M117.6277,347.0969 L119.1785,347.0969 L119.1785,348.5369 L117.6277,348.5369" fill="#252327"/><text fill="#000000" font-family="sans-serif" font-size="12" lengthAdjust="spacing" textLength="3.8145" x="122.7231" y="351.1899">&#160;</text><text fill="#000000" font-family="sans-serif" font-size="12" lengthAdjust="spacing" textLength="64.3477" x="126.5375" y="351.1899">Repository</text><text fill="#000000" font-family="sans-serif" font-size="12" lengthAdjust="spacing" textLength="3.8145" x="190.8852" y="351.1899">&#160;</text><text fill="#000000" font-family="sans-serif" font-size="12" lengthAdjust="spacing" textLength="51.3047" x="194.6996" y="351.1899">Upgrade</text><text fill="#000000" font-family="sans-serif" font-size="12" lengthAdjust="spacing" textLength="3.8145" x="246.0043" y="351.1899">&#160;</text><text fill="#000000" font-family="sans-serif" font-size="12" lengthAdjust="spacing" textLength="67.3008" x="249.8188" y="351.1899">Framework</text></g><!--entity DOB_7dTQJU9--><g class="entity" data-qualified-name="DOM_application.GRPT_application_2.DOB_7dTQJU9" data-source-line="140" id="ent0020"><rect fill="#B0D0D9" height="37.7231" rx="2" ry="2" style="stroke:#353E41;stroke-width:0.5;" width="143.9887" x="619" y="326.2969"/><path d="M632.3231,340.5061 L643.4,340.5061 L643.4,341.9461 L632.3231,341.9461" fill="#252327"/><path d="M632.3231,348.3707 L643.4,348.3707 L643.4,349.8107 L632.3231,349.8107" fill="#252327"/><path d="M632.3231,341.9461 L632.3231,348.3707 L633.7631,348.3707 L633.7631,341.9461" fill="#252327"/><path d="M641.96,341.9461 L641.96,348.3707 L643.4,348.3707 L643.4,341.9461" fill="#252327"/><path d="M632.3231,341.78 L643.4,341.78 L643.4,343.22 L632.3231,343.22" fill="#252327"/><text fill="#000000" font-family="sans-serif" font-size="12" lengthAdjust="spacing" textLength="3.8145" x="646.7231" y="351.1899">&#160;</text><text fill="#000000" font-family="sans-serif" font-size="12" lengthAdjust="spacing" textLength="47.4258" x="650.5375" y="351.1899">Release</text><text fill="#000000" font-family="sans-serif" font-size="12" lengthAdjust="spacing" textLength="3.8145" x="697.9633" y="351.1899">&#160;</text><text fill="#000000" font-family="sans-serif" font-size="12" lengthAdjust="spacing" textLength="51.2109" x="701.7778" y="351.1899">Manifest</text></g><!--entity DOB_6FYoz2f--><g class="entity" data-qualified-name="DOM_application.GRPT_application_2.DOB_6FYoz2f" data-source-line="141" id="ent0021"><rect fill="#B0D0D9" height="37.7231" rx="2" ry="2" style="stroke:#353E41;stroke-width:0.5;" width="130.5239" x="823.5" y="326.2969"/><path d="M836.8231,340.5061 L847.9,340.5061 L847.9,341.9461 L836.8231,341.9461" fill="#252327"/><path d="M836.8231,348.3707 L847.9,348.3707 L847.9,349.8107 L836.8231,349.8107" fill="#252327"/><path d="M836.8231,341.9461 L836.8231,348.3707 L838.2631,348.3707 L838.2631,341.9461" fill="#252327"/><path d="M846.46,341.9461 L846.46,348.3707 L847.9,348.3707 L847.9,341.9461" fill="#252327"/><path d="M836.8231,341.78 L847.9,341.78 L847.9,343.22 L836.8231,343.22" fill="#252327"/><text fill="#000000" font-family="sans-serif" font-size="12" lengthAdjust="spacing" textLength="3.8145" x="851.2231" y="351.1899">&#160;</text><text fill="#000000" font-family="sans-serif" font-size="12" lengthAdjust="spacing" textLength="43.459" x="855.0375" y="351.1899">Update</text><text fill="#000000" font-family="sans-serif" font-size="12" lengthAdjust="spacing" textLength="3.8145" x="898.4965" y="351.1899">&#160;</text><text fill="#000000" font-family="sans-serif" font-size="12" lengthAdjust="spacing" textLength="41.7129" x="902.311" y="351.1899">Journal</text></g><!--link PRC_siHhysu to PRC_9ybAn48--><!--link PRC_siHhysu to PRC_9ybAn48--><g class="link" data-entity-1="ent0005" data-entity-2="ent0006" data-link-type="dependency" data-source-line="156" id="lnk31"><path d="M1211.83,364.5969 C1211.83,393.3969 1211.83,441.3069 1211.83,470.0669" fill="none" id="PRC_siHhysu-to-PRC_9ybAn48" style="stroke:#181818;stroke-width:1;"/><polygon fill="#181818" points="1211.83,476.0669,1215.83,467.0669,1211.83,471.0669,1207.83,467.0669,1211.83,476.0669" style="stroke:#181818;stroke-width:1;"/></g><!--link PRC_9ybAn48 to FNC_3xVBUQ--><!--link DOM_motivation to DOM_common--><!--link APP_3hRHTJT to APP_OZbaBh--><!--link APP_Ir9SkCr to APP_OYEmP1--><!--link DOB_7dTQJU9 to DOB_6FYoz2f--><!--link DOM_common to DOM_application--><!--link APP_3hRHTJT to APP_OYEmP1--><g class="link" data-entity-1="ent0014" data-entity-2="ent0017" data-link-type="association" data-source-line="149" id="lnk24"><path d="M241.5,222.4669 C241.5,256.5869 241.5,324.2969 241.5,324.2969 C241.5,324.2969 321.51,324.2969 387.46,324.2969" fill="none" id="APP_3hRHTJT-APP_OYEmP1" style="stroke:#181818;stroke-width:1;"/></g><!--link APP_OZbaBh to PRC_9ybAn48--><g class="link" data-entity-1="ent0015" data-entity-2="ent0006" data-link-type="dependency" data-source-line="150" id="lnk25"><path d="M211,364.5969 C211,405.1169 211,495.2969 211,495.2969 C211,495.2969 818.94,495.2969 1068.95,495.2969" fill="none" id="APP_OZbaBh-to-PRC_9ybAn48" style="stroke:#181818;stroke-width:1;"/><polygon fill="#181818" points="1074.95,495.2969,1065.95,491.2969,1069.95,495.2969,1065.95,499.2969,1074.95,495.2969" style="stroke:#181818;stroke-width:1;"/><text fill="#000000" font-family="sans-serif" font-size="12" lengthAdjust="spacing" textLength="53.2852" x="449.63" y="492.4355">Behavior</text><text fill="#000000" font-family="sans-serif" font-size="12" lengthAdjust="spacing" textLength="3.8145" x="502.9152" y="492.4355">&#160;</text><text fill="#000000" font-family="sans-serif" font-size="12" lengthAdjust="spacing" textLength="70.6523" x="506.7296" y="492.4355">Assignment</text></g><!--link APP_3hRHTJT to DOB_7dTQJU9--><g class="link" data-entity-1="ent0014" data-entity-2="ent0020" data-link-type="dependency" data-source-line="151" id="lnk26"><path d="M290.54,218.2969 C423.68,218.2969 691,218.2969 691,218.2969 C691,218.2969 691,284.8569 691,320.2869" fill="none" id="APP_3hRHTJT-to-DOB_7dTQJU9" style="stroke:#181818;stroke-width:1;stroke-dasharray:1,3;"/><polygon fill="#181818" points="691,326.2869,695,317.2869,691,321.2869,687,317.2869,691,326.2869" style="stroke:#181818;stroke-width:1;"/></g><!--link APP_3hRHTJT to DOB_6FYoz2f--><g class="link" data-entity-1="ent0014" data-entity-2="ent0021" data-link-type="dependency" data-source-line="152" id="lnk27"><path d="M290.52,213.2969 C464.88,213.2969 889,213.2969 889,213.2969 C889,213.2969 889,283.4969 889,320.1069" fill="none" id="APP_3hRHTJT-to-DOB_6FYoz2f" style="stroke:#181818;stroke-width:1;stroke-dasharray:1,3;"/><polygon fill="#181818" points="889,326.1069,893,317.1069,889,321.1069,885,317.1069,889,326.1069" style="stroke:#181818;stroke-width:1;"/></g><!--link APP_3hRHTJT to PRC_siHhysu--><g class="link" data-entity-1="ent0014" data-entity-2="ent0005" data-link-type="dependency" data-source-line="153" id="lnk28"><path d="M290.66,209.2969 C504.87,209.2969 1112.5,209.2969 1112.5,209.2969 C1112.5,209.2969 1112.5,282.6069 1112.5,320.0969" fill="none" id="APP_3hRHTJT-to-PRC_siHhysu" style="stroke:#181818;stroke-width:1;"/><polygon fill="#181818" points="1112.5,326.0969,1116.5,317.0969,1112.5,321.0969,1108.5,317.0969,1112.5,326.0969" style="stroke:#181818;stroke-width:1;"/></g><!--link APP_3hRHTJT to REQ_7Qke86l--><g class="link" data-entity-1="ent0014" data-entity-2="ent0003" data-link-type="extension" data-source-line="154" id="lnk29"><path d="M290.84,193.2969 C472.12,193.2969 921.04,193.2969 1123.72,193.2969" fill="none" id="APP_3hRHTJT-to-REQ_7Qke86l" style="stroke:#181818;stroke-width:1;stroke-dasharray:7,7;"/><polygon fill="none" points="1141.72,193.2969,1123.72,187.2969,1123.72,199.2969,1141.72,193.2969" style="stroke:#181818;stroke-width:1;"/></g><!--link PRC_siHhysu to FNC_3xVBUQ--><g class="link" data-entity-1="ent0005" data-entity-2="ent0007" data-link-type="dependency" data-source-line="155" id="lnk30"><path d="M1277.62,355.2969 C1295.31,355.2969 1308.25,355.2969 1308.25,355.2969 C1308.25,355.2969 1308.25,520.8869 1308.25,587.9169" fill="none" id="PRC_siHhysu-to-FNC_3xVBUQ" style="stroke:#181818;stroke-width:1;"/><polygon fill="#181818" points="1308.25,593.9169,1312.25,584.9169,1308.25,588.9169,1304.25,584.9169,1308.25,593.9169" style="stroke:#181818;stroke-width:1;"/></g><?plantuml-src jLdhKjiu5FwVfz2cExExJ6ryowq3cKb8Kjg15iAbq-tkP8IjnDuubbTs4g3j4_KH-eydssF78KfYop6m0mF4qdVEv-yS7Hq9sx482aB220tlV58g1MF7yp734sIH8PwwOOzwuGSy8UW2Uy45OSumVSw5Sq-Ggd63WOqjEdUy4HfYDo3S2ADJpp8fymX31lVy1flZKJnuH5tAqAjUA_hQTdX9RiEMwuoy2V52PC8FmdZkhkEHw7qGPQ5DkG6FMYGWFgegF1tiZQE7TQNq2pW0BEeJTz0oJH84lmyPdRn68NsDN7n3t3zGz019NomQXiJwMsh2M0fkSENdGQT-9hX3vruU7CJrCWsSa66OPy25EPa6-ix8phN0eaaf9aOZHaOuT6ZMIr194e2ojQCIY2P22eIZKgoO22rGZKgnN2AqI38gBRJQmWT1aiPPMgV8-uWH95bgSgs0eWJBIAmLM9HS6Kcr0WiJAokXWe2QZYYX94c04Sia0kRA90BdoYG2xo3J9lo8JdmQE0ALzYGHA5kclJITUAH0fxrqeNYqGAYzTALuj4YflGofUYwTPq1akPasEriSUUfdG0Igo94e6J2177AaHWPCf8CSox0DVESDtIdnJBAx68-GWegiSCLbMM6BQxF2FaMWFi6kSo-gFBByJOGIgoI6vWebXkTg9ORl8DUs0UWGPz3oxRwP9O22EzaILNmRMoABxs5Bv5Csi0kVG67FoIH9-fO35AkKYyvLAzT2hcgv5dPGRzl69GoCuEnH9B5Mc8AvnG6BfnS7BfvX77ZN9EDECSGCiJTooS51o_TTnuprVWl7AHyCDfleQmcXzkO9gzFkjhhTQ8GoYx3agLxHkuPQ-fvk7ZRVIRxbdjvJk-rDoqR5qFLUbkLJ6ZgpdNW3QwNRs-BTq-k6bcKThsGPc543uK4_ckMWhNIKJgEOC1OEyO3U_0DFNjBiSEgP4UbCBIgTNaVFK1gX_c9gVDfMZImdFgFHkUz_zS78lrE7aOb0zexQRdMECkAAKCV18-fXT-bAYLpvp0a9-XKpqtOcE2I3r42ZWs0sGhSJrmiEotOO-c_sz-VpkJpNPSf6-vgYAFimeunc3fctwUrXMK4AKglmNMuU-3YqaNLOFZMG8MjsJJPcDRbwRDoN4HewhdjOVgLLD5shbL4GCZecXsKFt9RtEQWcwmgW6nLRbMlAJ8MFnz4piB5kOWjKa_NYe8PSAmHILTbuv6SagFZX3h24OL5OmZ4N5aMccH9fRiMzK7nrML6GBjSLMrNWpmMlwA7mRM8K01fFW5LaLPbLOey0keu-vYbNAuwANIs2cqymI-vb9NeXhJMvWQAt0VR6IHrKLrru3mIPEglAEZnfoDeE2ooBRLBINeni5VHJRM1shSbrrv0h40HDIdxF950K5bdr6OIv-lXIrKfUrAlw2KIz7ebTjwNwxXGVg_YSOV-JOu5PpU3lJYVuzXGqnYCINm17WwNG2Ls2hdnOdD7jB_RGEoy8iUl65RbKUjmHK7cruPTHnlQF0zJvU3gOF8x56mTduo1TmQ-1YLrogChQzoQwZYwk7MAX2peCvvWbz4ZaTNrN0dVzxlcWTZuczQfRWls5vxjeVIBKLXEKy3JZvoAEILgkyLkmMUh4yOnShRPcy77MFne4ph5z5qoBkXWnR4MDPdnpGjaTwb46qrDTDEvkMfvHptQnB0LhFawn1vc0Ma4mPHYEtEW2_11quWo9UMUwv2_luGVNdA9UOkJXPqI2wtE0HU_3qK2_lMvVdGC9xgsHzCLsB8juYmlm3RRSfys9d468waPERSnTHN8j_1ptY71wdvqa0jU4R6O3By7HiZy9X1RVziykr_eQDJQQ6PxK5cWjLfye6mS-XY2rh8dZEL015emkANN7JfmMMHqp46gTdGtUiSR5-8WbJ9x1PMDLiXrywtR_-FBzvNCzSwjXkK1wKDV87DJPWSN7Fszmsqv8SBGsysbZxlVdXQuLpGq1FGN9eXQQU5QqjE8R2fCiLbCUyy_ToPbQMd3XW_d8FBavvIQlPt47UY_qCUwz2kQk9ivThgdRY9LBS42YAWC59OWpTFt85I-zzg1cNPw_lseynKTIYD_JAODZHgQ7QkyplTU6YNoSpotv-Db9sKcsY9IImubKAlq6jS7pI5mIWz9QSgr5PPLRyJK8Nm7Ve8SVRMBZcGEdgDN_O1v-hflZ_fV9ooUQitobTLhDjUs97ujlIVcDTQsY0v2hpfj3V8N_3m00?></g></svg>