<svg xmlns="http://www.w3.org/2000/svg" xmlns:xlink="http://www.w3.org/1999/xlink" contentStyleType="text/css" data-diagram-type="DESCRIPTION" height="858px" preserveAspectRatio="none" style="width:823px;height:858px;background:#FAFAFA;" version="1.1" viewBox="0 0 823 858" width="823px" zoomAndPan="magnify"><?plantuml 1.2026.3?><defs/><g><rect fill="#FAFAFA" height="858" style="stroke:none;stroke-width:1;" width="823" x="0" y="0"/><g class="title" data-source-line="105"><text fill="#000000" font-family="sans-serif" font-size="14" font-weight="700" lengthAdjust="spacing" textLength="406.4238" x="204.7881" y="22.9951">Viewpoint Execution &#8212; Saved and Ephemeral Paths</text></g><!--cluster DOM_motivation--><g class="cluster" data-qualified-name="DOM_motivation" data-source-line="107" id="ent0002"><rect fill="#EAE0EF" height="100" rx="2" ry="2" style="stroke:#3F3842;stroke-width:1;" width="214" x="7" y="44.2969"/><text fill="#000000" font-family="sans-serif" font-size="12" font-weight="700" lengthAdjust="spacing" textLength="72.5918" x="77.7041" y="57.4355">Motivation</text></g><!--cluster DOM_common--><g class="cluster" data-qualified-name="DOM_common" data-source-line="112" id="ent0004"><rect fill="#F3F1EB" height="232" rx="2" ry="2" style="stroke:#45433F;stroke-width:1;" width="266" x="89" y="176.2969"/><text fill="#000000" font-family="sans-serif" font-size="12" font-weight="700" lengthAdjust="spacing" textLength="58.8457" x="192.5771" y="189.4355">Common</text></g><!--cluster DOM_application--><g class="cluster" data-qualified-name="DOM_application" data-source-line="119" id="ent0008"><rect fill="#DBEAEE" height="404" rx="2" ry="2" style="stroke:#353E41;stroke-width:1;" width="610" x="199" y="440.2969"/><text fill="#000000" font-family="sans-serif" font-size="12" font-weight="700" lengthAdjust="spacing" textLength="76.541" x="465.7295" y="453.4355">Application</text></g><!--cluster DOB_y7M3wz--><g class="cluster" data-qualified-name="DOM_application.DOB_y7M3wz" data-source-line="124" id="ent0012"><rect fill="#B0D0D9" height="120" rx="2" ry="2" style="stroke:#353E41;stroke-width:1;" width="546" x="231" y="692.2969"/><path d="M426.9947,698.5061 L438.0717,698.5061 L438.0717,699.9461 L426.9947,699.9461" fill="#252327"/><path d="M426.9947,706.3707 L438.0717,706.3707 L438.0717,707.8107 L426.9947,707.8107" fill="#252327"/><path d="M426.9947,699.9461 L426.9947,706.3707 L428.4347,706.3707 L428.4347,699.9461" fill="#252327"/><path d="M436.6317,699.9461 L436.6317,706.3707 L438.0717,706.3707 L438.0717,699.9461" fill="#252327"/><path d="M426.9947,699.78 L438.0717,699.78 L438.0717,701.22 L426.9947,701.22" fill="#252327"/><text fill="#000000" font-family="sans-serif" font-size="12" font-weight="700" lengthAdjust="spacing" textLength="138.7559" x="445.5725" y="709.1899">Viewpoint Definition</text></g><!--entity REQ_mdH8Uv--><g class="entity" data-qualified-name="DOM_motivation.REQ_mdH8Uv" data-source-line="108" id="ent0003"><path d="M33,76.2969 L194.893,76.2969 L204.893,86.2969 L204.893,117.9887 L194.893,127.9887 L33,127.9887 L23,117.9887 L23,86.2969 L33,76.2969" fill="#D1BADC" style="stroke:#3F3842;stroke-width:0.5;"/><path d="M37.8738,90.9492 L46.7354,90.9492 L44.9631,99.3676 L36.1015,99.3676" fill="#252327" style="stroke:none;stroke-width:0.5;"/><text fill="#000000" font-family="sans-serif" font-size="12" lengthAdjust="spacing" textLength="3.8145" x="50.7231" y="101.1899">&#160;</text><text fill="#000000" font-family="sans-serif" font-size="12" lengthAdjust="spacing" textLength="100.5117" x="54.5375" y="101.1899">Viewpoint-Based</text><text fill="#000000" font-family="sans-serif" font-size="12" lengthAdjust="spacing" textLength="3.8145" x="155.0492" y="101.1899">&#160;</text><text fill="#000000" font-family="sans-serif" font-size="12" lengthAdjust="spacing" textLength="36.0293" x="158.8637" y="101.1899">Model</text><text fill="#000000" font-family="sans-serif" font-size="12" lengthAdjust="spacing" textLength="75.8379" x="76.0276" y="115.1586">Presentation</text></g><!--entity FNC_bsmo2W--><g class="entity" data-qualified-name="DOM_common.FNC_bsmo2W" data-source-line="113" id="ent0005"><rect fill="#E5DFD3" height="51.6918" rx="7" ry="7" style="stroke:#45433F;stroke-width:0.5;" width="229.395" x="109.5" y="208.2969"/><path d="M122.7123,231.2569 L122.7123,224.2784 L128.3615,221.7307 L134.0108,224.2784 L134.0108,231.2569 L128.3615,228.4876" fill="#252327" style="stroke:none;stroke-width:0.5;"/><text fill="#000000" font-family="sans-serif" font-size="12" lengthAdjust="spacing" textLength="3.8145" x="137.2231" y="233.1899">&#160;</text><text fill="#000000" font-family="sans-serif" font-size="12" lengthAdjust="spacing" textLength="56.0039" x="141.0375" y="233.1899">Compose</text><text fill="#000000" font-family="sans-serif" font-size="12" lengthAdjust="spacing" textLength="3.8145" x="197.0414" y="233.1899">&#160;</text><text fill="#000000" font-family="sans-serif" font-size="12" lengthAdjust="spacing" textLength="64.8809" x="200.8559" y="233.1899">Ephemeral</text><text fill="#000000" font-family="sans-serif" font-size="12" lengthAdjust="spacing" textLength="3.8145" x="265.7367" y="233.1899">&#160;</text><text fill="#000000" font-family="sans-serif" font-size="12" lengthAdjust="spacing" textLength="59.3438" x="269.5512" y="233.1899">Viewpoint</text><text fill="#000000" font-family="sans-serif" font-size="12" lengthAdjust="spacing" textLength="74.3906" x="155.5754" y="247.1586">&#171;Application</text><text fill="#000000" font-family="sans-serif" font-size="12" lengthAdjust="spacing" textLength="3.8145" x="229.966" y="247.1586">&#160;</text><text fill="#000000" font-family="sans-serif" font-size="12" lengthAdjust="spacing" textLength="59.0391" x="233.7805" y="247.1586">Function&#187;</text></g><!--entity FNC_qgicoe--><g class="entity" data-qualified-name="DOM_common.FNC_qgicoe" data-source-line="114" id="ent0006"><rect fill="#E5DFD3" height="51.6918" rx="7" ry="7" style="stroke:#45433F;stroke-width:0.5;" width="233.9125" x="105" y="340.2969"/><path d="M118.2123,363.2569 L118.2123,356.2784 L123.8615,353.7307 L129.5108,356.2784 L129.5108,363.2569 L123.8615,360.4876" fill="#252327" style="stroke:none;stroke-width:0.5;"/><text fill="#000000" font-family="sans-serif" font-size="12" lengthAdjust="spacing" textLength="3.8145" x="132.7231" y="365.1899">&#160;</text><text fill="#000000" font-family="sans-serif" font-size="12" lengthAdjust="spacing" textLength="48.3574" x="136.5375" y="365.1899">Execute</text><text fill="#000000" font-family="sans-serif" font-size="12" lengthAdjust="spacing" textLength="3.8145" x="184.895" y="365.1899">&#160;</text><text fill="#000000" font-family="sans-serif" font-size="12" lengthAdjust="spacing" textLength="59.3438" x="188.7094" y="365.1899">Viewpoint</text><text fill="#000000" font-family="sans-serif" font-size="12" lengthAdjust="spacing" textLength="3.8145" x="248.0532" y="365.1899">&#160;</text><text fill="#000000" font-family="sans-serif" font-size="12" lengthAdjust="spacing" textLength="77.0449" x="251.8676" y="365.1899">Specification</text><text fill="#000000" font-family="sans-serif" font-size="12" lengthAdjust="spacing" textLength="74.3906" x="153.3342" y="379.1586">&#171;Application</text><text fill="#000000" font-family="sans-serif" font-size="12" lengthAdjust="spacing" textLength="3.8145" x="227.7248" y="379.1586">&#160;</text><text fill="#000000" font-family="sans-serif" font-size="12" lengthAdjust="spacing" textLength="59.0391" x="231.5393" y="379.1586">Function&#187;</text></g><!--entity APP_v9LvfK--><g class="entity" data-qualified-name="DOM_application.APP_v9LvfK" data-source-line="120" id="ent0009"><rect fill="#B0D0D9" height="51.6918" rx="2" ry="2" style="stroke:#353E41;stroke-width:0.5;" width="122.9477" x="215.5" y="472.2969"/><path d="M229.9308,486.9492 L238.1277,486.9492 L238.1277,495.3676 L229.9308,495.3676" fill="#252327" style="stroke:none;stroke-width:0.5;"/><path d="M228.0477,487.78 L229.9308,487.78 L229.9308,489.22 L228.0477,489.22" fill="#252327"/><path d="M228.0477,490.4384 L229.9308,490.4384 L229.9308,491.8784 L228.0477,491.8784" fill="#252327"/><path d="M228.0477,493.0969 L229.9308,493.0969 L229.9308,494.5369 L228.0477,494.5369" fill="#252327"/><path d="M238.1277,487.78 L239.6785,487.78 L239.6785,489.22 L238.1277,489.22" fill="#252327"/><path d="M238.1277,490.4384 L239.6785,490.4384 L239.6785,491.8784 L238.1277,491.8784" fill="#252327"/><path d="M238.1277,493.0969 L239.6785,493.0969 L239.6785,494.5369 L238.1277,494.5369" fill="#252327"/><text fill="#000000" font-family="sans-serif" font-size="12" lengthAdjust="spacing" textLength="3.8145" x="243.2231" y="497.1899">&#160;</text><text fill="#000000" font-family="sans-serif" font-size="12" lengthAdjust="spacing" textLength="36.4688" x="247.0375" y="497.1899">Query</text><text fill="#000000" font-family="sans-serif" font-size="12" lengthAdjust="spacing" textLength="3.8145" x="283.5063" y="497.1899">&#160;</text><text fill="#000000" font-family="sans-serif" font-size="12" lengthAdjust="spacing" textLength="41.127" x="287.3207" y="497.1899">Engine</text><text fill="#000000" font-family="sans-serif" font-size="12" lengthAdjust="spacing" textLength="58.3184" x="247.8147" y="511.1586">&#171;Module&#187;</text></g><!--entity APP_lmO0mp--><g class="entity" data-qualified-name="DOM_application.APP_lmO0mp" data-source-line="121" id="ent0010"><rect fill="#B0D0D9" height="51.6918" rx="2" ry="2" style="stroke:#353E41;stroke-width:0.5;" width="155.0922" x="215.5" y="604.2969"/><path d="M229.9308,618.9492 L238.1277,618.9492 L238.1277,627.3676 L229.9308,627.3676" fill="#252327" style="stroke:none;stroke-width:0.5;"/><path d="M228.0477,619.78 L229.9308,619.78 L229.9308,621.22 L228.0477,621.22" fill="#252327"/><path d="M228.0477,622.4384 L229.9308,622.4384 L229.9308,623.8784 L228.0477,623.8784" fill="#252327"/><path d="M228.0477,625.0969 L229.9308,625.0969 L229.9308,626.5369 L228.0477,626.5369" fill="#252327"/><path d="M238.1277,619.78 L239.6785,619.78 L239.6785,621.22 L238.1277,621.22" fill="#252327"/><path d="M238.1277,622.4384 L239.6785,622.4384 L239.6785,623.8784 L238.1277,623.8784" fill="#252327"/><path d="M238.1277,625.0969 L239.6785,625.0969 L239.6785,626.5369 L238.1277,626.5369" fill="#252327"/><text fill="#000000" font-family="sans-serif" font-size="12" lengthAdjust="spacing" textLength="3.8145" x="243.2231" y="629.1899">&#160;</text><text fill="#000000" font-family="sans-serif" font-size="12" lengthAdjust="spacing" textLength="21.6211" x="247.0375" y="629.1899">GUI</text><text fill="#000000" font-family="sans-serif" font-size="12" lengthAdjust="spacing" textLength="3.8145" x="268.6586" y="629.1899">&#160;</text><text fill="#000000" font-family="sans-serif" font-size="12" lengthAdjust="spacing" textLength="58.957" x="272.4731" y="629.1899">Authoring</text><text fill="#000000" font-family="sans-serif" font-size="12" lengthAdjust="spacing" textLength="3.8145" x="331.4301" y="629.1899">&#160;</text><text fill="#000000" font-family="sans-serif" font-size="12" lengthAdjust="spacing" textLength="25.3477" x="335.2446" y="629.1899">Tool</text><text fill="#000000" font-family="sans-serif" font-size="12" lengthAdjust="spacing" textLength="59.0332" x="263.5295" y="643.1586">&#171;Service&#187;</text></g><!--entity DOB_CY3B_f--><g class="entity" data-qualified-name="DOM_application.DOB_y7M3wz.DOB_CY3B_f" data-source-line="125" id="ent0013"><rect fill="#B0D0D9" height="37.7231" rx="2" ry="2" style="stroke:#353E41;stroke-width:0.5;" width="211.641" x="541" y="743.2969"/><path d="M554.3231,757.5061 L565.4,757.5061 L565.4,758.9461 L554.3231,758.9461" fill="#252327"/><path d="M554.3231,765.3707 L565.4,765.3707 L565.4,766.8107 L554.3231,766.8107" fill="#252327"/><path d="M554.3231,758.9461 L554.3231,765.3707 L555.7631,765.3707 L555.7631,758.9461" fill="#252327"/><path d="M563.96,758.9461 L563.96,765.3707 L565.4,765.3707 L565.4,758.9461" fill="#252327"/><path d="M554.3231,758.78 L565.4,758.78 L565.4,760.22 L554.3231,760.22" fill="#252327"/><text fill="#000000" font-family="sans-serif" font-size="12" lengthAdjust="spacing" textLength="3.8145" x="568.7231" y="768.1899">&#160;</text><text fill="#000000" font-family="sans-serif" font-size="12" lengthAdjust="spacing" textLength="66.6621" x="572.5375" y="768.1899">Executable</text><text fill="#000000" font-family="sans-serif" font-size="12" lengthAdjust="spacing" textLength="3.8145" x="639.1996" y="768.1899">&#160;</text><text fill="#000000" font-family="sans-serif" font-size="12" lengthAdjust="spacing" textLength="59.3438" x="643.0141" y="768.1899">Viewpoint</text><text fill="#000000" font-family="sans-serif" font-size="12" lengthAdjust="spacing" textLength="3.8145" x="702.3578" y="768.1899">&#160;</text><text fill="#000000" font-family="sans-serif" font-size="12" lengthAdjust="spacing" textLength="36.4688" x="706.1723" y="768.1899">Query</text></g><!--entity DOB_zQzA5_--><g class="entity" data-qualified-name="DOM_application.DOB_y7M3wz.DOB_zQzA5_" data-source-line="126" id="ent0014"><rect fill="#B0D0D9" height="51.6918" rx="2" ry="2" style="stroke:#353E41;stroke-width:0.5;" width="180.5336" x="299.5" y="736.2969"/><path d="M312.8231,750.5061 L323.9,750.5061 L323.9,751.9461 L312.8231,751.9461" fill="#252327"/><path d="M312.8231,758.3707 L323.9,758.3707 L323.9,759.8107 L312.8231,759.8107" fill="#252327"/><path d="M312.8231,751.9461 L312.8231,758.3707 L314.2631,758.3707 L314.2631,751.9461" fill="#252327"/><path d="M322.46,751.9461 L322.46,758.3707 L323.9,758.3707 L323.9,751.9461" fill="#252327"/><path d="M312.8231,751.78 L323.9,751.78 L323.9,753.22 L312.8231,753.22" fill="#252327"/><text fill="#000000" font-family="sans-serif" font-size="12" lengthAdjust="spacing" textLength="3.8145" x="327.2231" y="761.1899">&#160;</text><text fill="#000000" font-family="sans-serif" font-size="12" lengthAdjust="spacing" textLength="59.3438" x="331.0375" y="761.1899">Viewpoint</text><text fill="#000000" font-family="sans-serif" font-size="12" lengthAdjust="spacing" textLength="3.8145" x="390.3813" y="761.1899">&#160;</text><text fill="#000000" font-family="sans-serif" font-size="12" lengthAdjust="spacing" textLength="75.8379" x="394.1957" y="761.1899">Presentation</text><text fill="#000000" font-family="sans-serif" font-size="12" lengthAdjust="spacing" textLength="77.0449" x="351.2444" y="775.1586">Specification</text></g><!--link FNC_bsmo2W to FNC_qgicoe--><!--link FNC_bsmo2W to FNC_qgicoe--><g class="link" data-entity-1="ent0005" data-entity-2="ent0006" data-link-type="dependency" data-source-line="141" id="lnk26"><path d="M262.17,260.3769 C262.17,283.5169 262.17,311.1469 262.17,334.2769" fill="none" id="FNC_bsmo2W-to-FNC_qgicoe" style="stroke:#181818;stroke-width:1;"/><polygon fill="#181818" points="262.17,340.2769,266.17,331.2769,262.17,335.2769,258.17,331.2769,262.17,340.2769" style="stroke:#181818;stroke-width:1;"/></g><!--link APP_v9LvfK to APP_lmO0mp--><!--link APP_v9LvfK to APP_lmO0mp--><g class="link" data-entity-1="ent0009" data-entity-2="ent0010" data-link-type="dependency" data-source-line="134" id="lnk17"><path d="M297.5,524.3769 C297.5,547.5169 297.5,575.1469 297.5,598.2769" fill="none" id="APP_v9LvfK-to-APP_lmO0mp" style="stroke:#181818;stroke-width:1;"/><polygon fill="#181818" points="297.5,604.2769,301.5,595.2769,297.5,599.2769,293.5,595.2769,297.5,604.2769" style="stroke:#181818;stroke-width:1;"/></g><!--link DOB_CY3B_f to DOB_zQzA5_--><!--link APP_lmO0mp to DOB_y7M3wz--><!--reverse link FNC_qgicoe to APP_v9LvfK--><g class="link" data-entity-1="ent0006" data-entity-2="ent0009" data-link-type="dependency" data-source-line="135" id="lnk19"><path d="M277,398.3769 C277,421.5169 277,449.1469 277,472.2769" fill="none" id="FNC_qgicoe-backto-APP_v9LvfK" style="stroke:#181818;stroke-width:1;"/><polygon fill="#181818" points="277,392.3769,273,401.3769,277,397.3769,281,401.3769,277,392.3769" style="stroke:#181818;stroke-width:1;"/></g><!--reverse link FNC_bsmo2W to APP_lmO0mp--><g class="link" data-entity-1="ent0005" data-entity-2="ent0010" data-link-type="dependency" data-source-line="136" id="lnk21"><path d="M344.72,247.2969 C354.49,247.2969 354.75,247.2969 354.75,247.2969 C354.75,247.2969 354.75,518.0669 354.75,604.2769" fill="none" id="FNC_bsmo2W-backto-APP_lmO0mp" style="stroke:#181818;stroke-width:1;"/><polygon fill="#181818" points="338.72,247.2969,347.72,251.2969,343.72,247.2969,347.72,243.2969,338.72,247.2969" style="stroke:#181818;stroke-width:1;"/></g><!--link FNC_bsmo2W to DOB_CY3B_f--><g class="link" data-entity-1="ent0005" data-entity-2="ent0013" data-link-type="dependency" data-source-line="137" id="lnk22"><path d="M338.77,221.2969 C474.53,221.2969 682.33,221.2969 682.33,221.2969 C682.33,221.2969 682.33,640.6669 682.33,737.0469" fill="none" id="FNC_bsmo2W-to-DOB_CY3B_f" style="stroke:#181818;stroke-width:1;stroke-dasharray:1,3;"/><polygon fill="#181818" points="682.33,743.0469,686.33,734.0469,682.33,738.0469,678.33,734.0469,682.33,743.0469" style="stroke:#181818;stroke-width:1;"/></g><!--link FNC_qgicoe to DOB_CY3B_f--><g class="link" data-entity-1="ent0006" data-entity-2="ent0013" data-link-type="dependency" data-source-line="138" id="lnk23"><path d="M339.18,358.2969 C453.93,358.2969 611.67,358.2969 611.67,358.2969 C611.67,358.2969 611.67,656.7969 611.67,737.0869" fill="none" id="FNC_qgicoe-to-DOB_CY3B_f" style="stroke:#181818;stroke-width:1;stroke-dasharray:1,3;"/><polygon fill="#181818" points="611.67,743.0869,615.67,734.0869,611.67,738.0869,607.67,734.0869,611.67,743.0869" style="stroke:#181818;stroke-width:1;"/></g><!--link FNC_bsmo2W to DOB_zQzA5_--><g class="link" data-entity-1="ent0005" data-entity-2="ent0014" data-link-type="dependency" data-source-line="139" id="lnk24"><path d="M338.75,234.2969 C392.05,234.2969 443.83,234.2969 443.83,234.2969 C443.83,234.2969 443.83,623.5769 443.83,730.1169" fill="none" id="FNC_bsmo2W-to-DOB_zQzA5_" style="stroke:#181818;stroke-width:1;stroke-dasharray:1,3;"/><polygon fill="#181818" points="443.83,736.1169,447.83,727.1169,443.83,731.1169,439.83,727.1169,443.83,736.1169" style="stroke:#181818;stroke-width:1;"/></g><!--link FNC_qgicoe to DOB_zQzA5_--><g class="link" data-entity-1="ent0006" data-entity-2="ent0014" data-link-type="dependency" data-source-line="140" id="lnk25"><path d="M339.01,375.2969 C375.87,375.2969 407.17,375.2969 407.17,375.2969 C407.17,375.2969 407.17,642.8969 407.17,729.9969" fill="none" id="FNC_qgicoe-to-DOB_zQzA5_" style="stroke:#181818;stroke-width:1;stroke-dasharray:1,3;"/><polygon fill="#181818" points="407.17,735.9969,411.17,726.9969,407.17,730.9969,403.17,726.9969,407.17,735.9969" style="stroke:#181818;stroke-width:1;"/></g><!--reverse link REQ_mdH8Uv to FNC_bsmo2W--><g class="link" data-entity-1="ent0003" data-entity-2="ent0005" data-link-type="extension" data-source-line="142" id="lnk28"><path d="M157.25,146.3769 C157.25,169.5169 157.25,185.1469 157.25,208.2769" fill="none" id="REQ_mdH8Uv-backto-FNC_bsmo2W" style="stroke:#181818;stroke-width:1;stroke-dasharray:7,7;"/><polygon fill="none" points="157.25,128.3769,151.25,146.3769,163.25,146.3769,157.25,128.3769" style="stroke:#181818;stroke-width:1;"/></g><!--reverse link REQ_mdH8Uv to FNC_qgicoe--><g class="link" data-entity-1="ent0003" data-entity-2="ent0006" data-link-type="extension" data-source-line="143" id="lnk30"><path d="M64,146.5769 C64,213.3469 64,366.2969 64,366.2969 C64,366.2969 81.42,366.2969 104.69,366.2969" fill="none" id="REQ_mdH8Uv-backto-FNC_qgicoe" style="stroke:#181818;stroke-width:1;stroke-dasharray:7,7;"/><polygon fill="none" points="64,128.5769,58,146.5769,70,146.5769,64,128.5769" style="stroke:#181818;stroke-width:1;"/></g><?plantuml-src hPdjRjis58R_-oeuTy2se68aIuxj8J5WntPJBEb7qWyCtM0m4YrnaKXLakqqRO5TnEvYbx1_lPHToIXPjkXOfAmiQ54a9DzpNZuy8YdL8mu6SO8Zp99F8MuquXj2GnIX03XuXkP-Cc4qUO423AuGZQzmH6RbOwx87GP6I-YCFUIm9Q4kc24_na9FnERKiLb4SGGieVqQsJTkrddAV1Q19vD1-cStuHjycmnyuj80qmJO_1ySYTvzGd4w7y2Yn6D21sKEZd48ZdJH3g8tQMDNRtp74t0jkCJ-T63RE8v_d4KiU0eIzXJuw1hxFu6q0MWV79OasFbTw_E-4jtqRLWbdOTIyOWjQPMSmwNI0ETubbG5yFaOQO1BudgL4Q9qK4a8rusmYnB2P9DWcgOGoTanZKDJAHNWc9OHKwaLr9YMuLAfLSYOjcAreu_Zl8nbh4lmRZIA8YijhaAeAZ19OHLYLN59YgeGAmjBLb1np6oYAYXDKsZKc5J2IamgSIKcbNWFJFVbfom8MKmKb0uqbKYEwQ2CawXKS3ee1oMg5Q0Eoac9QXMf0mcgYS-M4Wc4_RBHSZXm7aea2YemXIAHAN30b8P4fk80CmoxmkTqviynjV7-C3QIcaGANNqiXRO-cqBx442N6FdaJhNpGFX5fL9JKaihGQdbbQpKyZrmxGRWDyG5l_BjVvZbWfedsLfL_nXRA-kVOMlbGmwmgn3pZRsYaZJjIuLGJQbINKchCa8bjSe8Uz3RZV66TxZytQDEOHMQchKb2EkNbo2kNs62UDyY4zvYi9qWwlhu-7WGXZwnCzxF-EjKo0Fs--1p0u3X_JUiqN0y68_J7XOvECfRpROvjep6r_Bm_F0DgYDFp8an7jwFRBKjqvp88b-mX2psyirTw-F9Zk-9sRLQikYem3Arqmi4vVTHMOAXFj97lNfW79IWARl-WxSyPjZPdDgfQIcBzcWoCYMa0RXS3StUjWrBbYJ27-Same42oSWO3aQd4kO0Z0Xo6KN-EfMUfWeZac3mFOfiZmGemTFIHG37yS85ju5FuvEcboJXpuU7o-KIBat88lUmfUlw8H_H10k2bqDsUzBKWGwC8_wtsJyEKU81vwHvOG4BjhmEj1OTU7HctJK1c17VFsa-QRLRPglJ174IiHjyqgGyRVDGaBQWgNDrh-qPiACl3FxhMTh6Oso7s15re5bVr8ETMYB3WDR6dvMhiiOzPBd3khBSOwKiNPb-oKeBJyCZhQy9THsOiAjxXiv_NFbA6vMpoLHSq7k0h0qDVT7ECdBHk_JNAdAT-geirMfngmtASAztYKTYtO8zaCw6kxVEkvowuVDv05wfYoDeyfOUREtnWCdS2jlDOptySFNuTyyvn6xglUjftVqjRZR5POJ2zyJXOLkM-9amGBSNE8wHYxDldMbd8o69Zy4xRYnaX4zbV8ljUROA__xv5xX22-m0H1qm3Zq-rmZvu1Nt6pSQcvqND8j3hmaaHo2AmUZbnJJOz6KRj13Zk1pjvzX6FZunOEjhlt2f3L7CVLqm1tC_4Oxvo4t-xNE09xuSlvu6pbdtxQB1DtJH-EeUa8fsRWIvOJjhLvbTL-sMqzNRFHQeRRp_Hh_zBLnlm2JNV_idzI6SbDp1vCNfz3eEMEjzpVohLHJNDRl4plAaTJryT8dDCFTG60BQ1uyu3gQhhxZYi7kGXKHfzFAhNOvRE5jLp4kFu2q0h-Su-WJ6rEKtqtIsl5JcFbxDJtQBuXu6hrvD5xtpnUoN_vFysTldO31FF9PUXC4RnlpKGlRsPU_dmGzUwa78FHI6xWCNXicz2YTO-PC4HkdbdQmNP_l-botASFgfSs4kxxBrg9reLOZeUckFoHP7ckxqLtCudJqaMP51t1EsIr-QzkxrtQ0zpT8MBWhe-LUuhP5VymLQBSFz1IhGPK_43tnJe1HdJrRS4DULlmS9YodsP2ztmfCb9jlqvHl4rgDP_DUEGBG8f1eXYP5FMX536B6EiUrUwCc_70axin1uj_C_?></g></svg>