<svg xmlns="http://www.w3.org/2000/svg" xmlns:xlink="http://www.w3.org/1999/xlink" contentStyleType="text/css" data-diagram-type="DESCRIPTION" height="628px" preserveAspectRatio="none" style="width:1365px;height:628px;background:#FAFAFA;" version="1.1" viewBox="0 0 1365 628" width="1365px" zoomAndPan="magnify"><?plantuml 1.2026.3?><defs/><g><rect fill="#FAFAFA" height="628" style="stroke:none;stroke-width:1;" width="1365" x="0" y="0"/><g class="title" data-source-line="70"><text fill="#000000" font-family="sans-serif" font-size="14" font-weight="700" lengthAdjust="spacing" textLength="385.2256" x="486.3872" y="22.9951">Scratchpad &#8212; Components and What They Serve</text></g><!--cluster GRPT_1--><g class="cluster" data-qualified-name="GRPT_1" data-source-line="72" id="ent0002"><rect fill="#E8F8FF" height="570" rx="2" ry="2" style="stroke:#0078A0;stroke-width:1;" width="820" x="7" y="44.2969"/><text fill="#000000" font-family="sans-serif" font-size="12" font-weight="700" lengthAdjust="spacing" textLength="165.2109" x="334.3945" y="57.4355">Application Components</text></g><!--cluster APP_OYEmP1--><g class="cluster" data-qualified-name="GRPT_1.APP_OYEmP1" data-source-line="73" id="ent0003"><rect fill="#CCF2FF" height="490" rx="2" ry="2" style="stroke:#0078A0;stroke-width:1;" width="466" x="39" y="92.2969"/><path d="M192.4374,98.9492 L200.6343,98.9492 L200.6343,107.3676 L192.4374,107.3676" fill="#252327" style="stroke:none;stroke-width:1;"/><path d="M190.5543,99.78 L192.4374,99.78 L192.4374,101.22 L190.5543,101.22" fill="#252327"/><path d="M190.5543,102.4384 L192.4374,102.4384 L192.4374,103.8784 L190.5543,103.8784" fill="#252327"/><path d="M190.5543,105.0969 L192.4374,105.0969 L192.4374,106.5369 L190.5543,106.5369" fill="#252327"/><path d="M200.6343,99.78 L202.1851,99.78 L202.1851,101.22 L200.6343,101.22" fill="#252327"/><path d="M200.6343,102.4384 L202.1851,102.4384 L202.1851,103.8784 L200.6343,103.8784" fill="#252327"/><path d="M200.6343,105.0969 L202.1851,105.0969 L202.1851,106.5369 L200.6343,106.5369" fill="#252327"/><text fill="#000000" font-family="sans-serif" font-size="12" font-weight="700" lengthAdjust="spacing" textLength="146.0859" x="209.9074" y="109.1899">Architecture Backend</text><text fill="#000000" font-family="sans-serif" font-size="12" font-weight="700" lengthAdjust="spacing" textLength="65.3906" x="239.3047" y="123.1586">&#171;Service&#187;</text></g><!--cluster APP_lmO0mp--><g class="cluster" data-qualified-name="GRPT_1.APP_lmO0mp" data-source-line="84" id="ent0013"><rect fill="#CCF2FF" height="120" rx="2" ry="2" style="stroke:#0078A0;stroke-width:1;" width="250" x="545" y="226.2969"/><path d="M599.121,232.9492 L607.3179,232.9492 L607.3179,241.3676 L599.121,241.3676" fill="#252327" style="stroke:none;stroke-width:1;"/><path d="M597.2379,233.78 L599.121,233.78 L599.121,235.22 L597.2379,235.22" fill="#252327"/><path d="M597.2379,236.4384 L599.121,236.4384 L599.121,237.8784 L597.2379,237.8784" fill="#252327"/><path d="M597.2379,239.0969 L599.121,239.0969 L599.121,240.5369 L597.2379,240.5369" fill="#252327"/><path d="M607.3179,233.78 L608.8687,233.78 L608.8687,235.22 L607.3179,235.22" fill="#252327"/><path d="M607.3179,236.4384 L608.8687,236.4384 L608.8687,237.8784 L607.3179,237.8784" fill="#252327"/><path d="M607.3179,239.0969 L608.8687,239.0969 L608.8687,240.5369 L607.3179,240.5369" fill="#252327"/><text fill="#000000" font-family="sans-serif" font-size="12" font-weight="700" lengthAdjust="spacing" textLength="128.7188" x="616.591" y="243.1899">GUI Authoring Tool</text><text fill="#000000" font-family="sans-serif" font-size="12" font-weight="700" lengthAdjust="spacing" textLength="65.3906" x="637.3047" y="257.1586">&#171;Service&#187;</text></g><!--cluster GRPT_2--><g class="cluster" data-qualified-name="GRPT_2" data-source-line="90" id="ent0016"><rect fill="#E8F8FF" height="86" rx="2" ry="2" style="stroke:#0078A0;stroke-width:1;" width="500" x="851" y="252.2969"/><text fill="#000000" font-family="sans-serif" font-size="12" font-weight="700" lengthAdjust="spacing" textLength="87.1055" x="1057.4473" y="265.4355">Data Objects</text></g><!--entity APP_7RbfkON--><g class="entity" data-qualified-name="GRPT_1.APP_OYEmP1.APP_7RbfkON" data-source-line="74" id="ent0004"><rect fill="#CCF2FF" height="37.7231" rx="2" ry="2" style="stroke:#0078A0;stroke-width:0.5;" width="177.6977" x="259" y="157.2969"/><path d="M273.4308,171.9492 L281.6277,171.9492 L281.6277,180.3676 L273.4308,180.3676" fill="#252327" style="stroke:none;stroke-width:0.5;"/><path d="M271.5477,172.78 L273.4308,172.78 L273.4308,174.22 L271.5477,174.22" fill="#252327"/><path d="M271.5477,175.4384 L273.4308,175.4384 L273.4308,176.8784 L271.5477,176.8784" fill="#252327"/><path d="M271.5477,178.0969 L273.4308,178.0969 L273.4308,179.5369 L271.5477,179.5369" fill="#252327"/><path d="M281.6277,172.78 L283.1785,172.78 L283.1785,174.22 L281.6277,174.22" fill="#252327"/><path d="M281.6277,175.4384 L283.1785,175.4384 L283.1785,176.8784 L281.6277,176.8784" fill="#252327"/><path d="M281.6277,178.0969 L283.1785,178.0969 L283.1785,179.5369 L281.6277,179.5369" fill="#252327"/><text fill="#000000" font-family="sans-serif" font-size="12" lengthAdjust="spacing" textLength="136.1602" x="290.5375" y="182.1899">Scratchpad Repository</text></g><!--entity APP_SpexYvB--><g class="entity" data-qualified-name="GRPT_1.APP_OYEmP1.APP_SpexYvB" data-source-line="75" id="ent0005"><rect fill="#CCF2FF" height="37.7231" rx="2" ry="2" style="stroke:#0078A0;stroke-width:0.5;" width="157.6996" x="263" y="284.2969"/><path d="M277.4308,298.9492 L285.6277,298.9492 L285.6277,307.3676 L277.4308,307.3676" fill="#252327" style="stroke:none;stroke-width:0.5;"/><path d="M275.5477,299.78 L277.4308,299.78 L277.4308,301.22 L275.5477,301.22" fill="#252327"/><path d="M275.5477,302.4384 L277.4308,302.4384 L277.4308,303.8784 L275.5477,303.8784" fill="#252327"/><path d="M275.5477,305.0969 L277.4308,305.0969 L277.4308,306.5369 L275.5477,306.5369" fill="#252327"/><path d="M285.6277,299.78 L287.1785,299.78 L287.1785,301.22 L285.6277,301.22" fill="#252327"/><path d="M285.6277,302.4384 L287.1785,302.4384 L287.1785,303.8784 L285.6277,303.8784" fill="#252327"/><path d="M285.6277,305.0969 L287.1785,305.0969 L287.1785,306.5369 L285.6277,306.5369" fill="#252327"/><text fill="#000000" font-family="sans-serif" font-size="12" lengthAdjust="spacing" textLength="116.1621" x="294.5375" y="309.1899">Scratchpad Service</text></g><!--entity APP__WMG8gv--><g class="entity" data-qualified-name="GRPT_1.APP_OYEmP1.APP__WMG8gv" data-source-line="76" id="ent0006"><rect fill="#CCF2FF" height="37.7231" rx="2" ry="2" style="stroke:#0078A0;stroke-width:0.5;" width="189.3637" x="247.5" y="402.2969"/><path d="M261.9308,416.9492 L270.1277,416.9492 L270.1277,425.3676 L261.9308,425.3676" fill="#252327" style="stroke:none;stroke-width:0.5;"/><path d="M260.0477,417.78 L261.9308,417.78 L261.9308,419.22 L260.0477,419.22" fill="#252327"/><path d="M260.0477,420.4384 L261.9308,420.4384 L261.9308,421.8784 L260.0477,421.8784" fill="#252327"/><path d="M260.0477,423.0969 L261.9308,423.0969 L261.9308,424.5369 L260.0477,424.5369" fill="#252327"/><path d="M270.1277,417.78 L271.6785,417.78 L271.6785,419.22 L270.1277,419.22" fill="#252327"/><path d="M270.1277,420.4384 L271.6785,420.4384 L271.6785,421.8784 L270.1277,421.8784" fill="#252327"/><path d="M270.1277,423.0969 L271.6785,423.0969 L271.6785,424.5369 L270.1277,424.5369" fill="#252327"/><text fill="#000000" font-family="sans-serif" font-size="12" lengthAdjust="spacing" textLength="147.8262" x="279.0375" y="427.1899">Scratchpad Lift Executor</text></g><!--entity APP_q6wT1kq--><g class="entity" data-qualified-name="GRPT_1.APP_OYEmP1.APP_q6wT1kq" data-source-line="77" id="ent0007"><rect fill="#CCF2FF" height="37.7231" rx="2" ry="2" style="stroke:#0078A0;stroke-width:0.5;" width="185.4731" x="93.5" y="520.2969"/><path d="M107.9308,534.9492 L116.1277,534.9492 L116.1277,543.3676 L107.9308,543.3676" fill="#252327" style="stroke:none;stroke-width:0.5;"/><path d="M106.0477,535.78 L107.9308,535.78 L107.9308,537.22 L106.0477,537.22" fill="#252327"/><path d="M106.0477,538.4384 L107.9308,538.4384 L107.9308,539.8784 L106.0477,539.8784" fill="#252327"/><path d="M106.0477,541.0969 L107.9308,541.0969 L107.9308,542.5369 L106.0477,542.5369" fill="#252327"/><path d="M116.1277,535.78 L117.6785,535.78 L117.6785,537.22 L116.1277,537.22" fill="#252327"/><path d="M116.1277,538.4384 L117.6785,538.4384 L117.6785,539.8784 L116.1277,539.8784" fill="#252327"/><path d="M116.1277,541.0969 L117.6785,541.0969 L117.6785,542.5369 L116.1277,542.5369" fill="#252327"/><text fill="#000000" font-family="sans-serif" font-size="12" lengthAdjust="spacing" textLength="143.9355" x="125.0375" y="545.1899">Scratchpad Link Verifier</text></g><!--entity APP_yNhgdh--><g class="entity" data-qualified-name="GRPT_1.APP_OYEmP1.APP_yNhgdh" data-source-line="78" id="ent0008"><rect fill="#CCF2FF" height="51.6918" rx="2" ry="2" style="stroke:#0078A0;stroke-width:0.5;" width="135.0707" x="63.5" y="150.2969"/><path d="M77.9308,164.9492 L86.1277,164.9492 L86.1277,173.3676 L77.9308,173.3676" fill="#252327" style="stroke:none;stroke-width:0.5;"/><path d="M76.0477,165.78 L77.9308,165.78 L77.9308,167.22 L76.0477,167.22" fill="#252327"/><path d="M76.0477,168.4384 L77.9308,168.4384 L77.9308,169.8784 L76.0477,169.8784" fill="#252327"/><path d="M76.0477,171.0969 L77.9308,171.0969 L77.9308,172.5369 L76.0477,172.5369" fill="#252327"/><path d="M86.1277,165.78 L87.6785,165.78 L87.6785,167.22 L86.1277,167.22" fill="#252327"/><path d="M86.1277,168.4384 L87.6785,168.4384 L87.6785,169.8784 L86.1277,169.8784" fill="#252327"/><path d="M86.1277,171.0969 L87.6785,171.0969 L87.6785,172.5369 L86.1277,172.5369" fill="#252327"/><text fill="#000000" font-family="sans-serif" font-size="12" lengthAdjust="spacing" textLength="93.5332" x="95.0375" y="175.1899">Module Catalog</text><text fill="#000000" font-family="sans-serif" font-size="12" lengthAdjust="spacing" textLength="58.3184" x="73.5" y="189.1586">&#171;Module&#187;</text></g><!--entity APP_HgIA072--><g class="entity" data-qualified-name="GRPT_1.APP_lmO0mp.APP_HgIA072" data-source-line="85" id="ent0014"><rect fill="#CCF2FF" height="37.7231" rx="2" ry="2" style="stroke:#0078A0;stroke-width:0.5;" width="157.395" x="613.5" y="284.2969"/><path d="M627.9308,298.9492 L636.1277,298.9492 L636.1277,307.3676 L627.9308,307.3676" fill="#252327" style="stroke:none;stroke-width:0.5;"/><path d="M626.0477,299.78 L627.9308,299.78 L627.9308,301.22 L626.0477,301.22" fill="#252327"/><path d="M626.0477,302.4384 L627.9308,302.4384 L627.9308,303.8784 L626.0477,303.8784" fill="#252327"/><path d="M626.0477,305.0969 L627.9308,305.0969 L627.9308,306.5369 L626.0477,306.5369" fill="#252327"/><path d="M636.1277,299.78 L637.6785,299.78 L637.6785,301.22 L636.1277,301.22" fill="#252327"/><path d="M636.1277,302.4384 L637.6785,302.4384 L637.6785,303.8784 L636.1277,303.8784" fill="#252327"/><path d="M636.1277,305.0969 L637.6785,305.0969 L637.6785,306.5369 L636.1277,306.5369" fill="#252327"/><text fill="#000000" font-family="sans-serif" font-size="12" lengthAdjust="spacing" textLength="115.8574" x="645.0375" y="309.1899">Scratchpad Canvas</text></g><!--entity DOB_cUsQOox--><g class="entity" data-qualified-name="GRPT_2.DOB_cUsQOox" data-source-line="91" id="ent0017"><rect fill="#CCF2FF" height="37.7231" rx="2" ry="2" style="stroke:#0078A0;stroke-width:0.5;" width="200.1684" x="867" y="284.2969"/><path d="M880.3231,298.5061 L891.4,298.5061 L891.4,299.9461 L880.3231,299.9461" fill="#252327"/><path d="M880.3231,306.3707 L891.4,306.3707 L891.4,307.8107 L880.3231,307.8107" fill="#252327"/><path d="M880.3231,299.9461 L880.3231,306.3707 L881.7631,306.3707 L881.7631,299.9461" fill="#252327"/><path d="M889.96,299.9461 L889.96,306.3707 L891.4,306.3707 L891.4,299.9461" fill="#252327"/><path d="M880.3231,299.78 L891.4,299.78 L891.4,301.22 L880.3231,301.22" fill="#252327"/><text fill="#000000" font-family="sans-serif" font-size="12" lengthAdjust="spacing" textLength="158.6309" x="898.5375" y="309.1899">Scratchpad Layout Record</text></g><!--entity DOB_luoCiQt--><g class="entity" data-qualified-name="GRPT_2.DOB_luoCiQt" data-source-line="92" id="ent0018"><rect fill="#CCF2FF" height="37.7231" rx="2" ry="2" style="stroke:#0078A0;stroke-width:0.5;" width="207.1" x="1127.5" y="284.2969"/><path d="M1140.8231,298.5061 L1151.9,298.5061 L1151.9,299.9461 L1140.8231,299.9461" fill="#252327"/><path d="M1140.8231,306.3707 L1151.9,306.3707 L1151.9,307.8107 L1140.8231,307.8107" fill="#252327"/><path d="M1140.8231,299.9461 L1140.8231,306.3707 L1142.2631,306.3707 L1142.2631,299.9461" fill="#252327"/><path d="M1150.46,299.9461 L1150.46,306.3707 L1151.9,306.3707 L1151.9,299.9461" fill="#252327"/><path d="M1140.8231,299.78 L1151.9,299.78 L1151.9,301.22 L1140.8231,301.22" fill="#252327"/><text fill="#000000" font-family="sans-serif" font-size="12" lengthAdjust="spacing" textLength="165.5625" x="1159.0375" y="309.1899">Scratchpad Content Record</text></g><!--link APP_7RbfkON to APP_SpexYvB--><!--link APP_7RbfkON to APP_SpexYvB--><g class="link" data-entity-1="ent0004" data-entity-2="ent0005" data-link-type="dependency" data-source-line="100" id="lnk23"><path d="M368.33,195.3069 C368.33,219.2569 368.33,254.1469 368.33,278.1569" fill="none" id="APP_7RbfkON-to-APP_SpexYvB" style="stroke:#181818;stroke-width:1;"/><polygon fill="#181818" points="368.33,284.1569,372.33,275.1569,368.33,279.1569,364.33,275.1569,368.33,284.1569" style="stroke:#181818;stroke-width:1;"/></g><!--link APP_SpexYvB to APP__WMG8gv--><!--link APP__WMG8gv to APP_SpexYvB--><g class="link" data-entity-1="ent0006" data-entity-2="ent0005" data-link-type="dependency" data-source-line="103" id="lnk26"><path d="M368.33,402.0769 C368.33,380.1369 368.33,350.4469 368.33,328.5069" fill="none" id="APP__WMG8gv-to-APP_SpexYvB" style="stroke:#181818;stroke-width:1;"/><polygon fill="#181818" points="368.33,322.5069,364.33,331.5069,368.33,327.5069,372.33,331.5069,368.33,322.5069" style="stroke:#181818;stroke-width:1;"/></g><!--link APP__WMG8gv to APP_q6wT1kq--><!--link APP_7RbfkON to APP_yNhgdh--><!--link APP_OYEmP1 to APP_lmO0mp--><!--link APP_OYEmP1 to APP_lmO0mp--><g class="link" data-entity-1="ent0003" data-entity-2="ent0013" data-link-type="dependency" data-source-line="99" id="lnk22"><path d="M505.0087,303.2969 C505.0831,303.2969 505.1579,303.2969 505.2331,303.2969 C505.3834,303.2969 505.5353,303.2969 505.6887,303.2969 C505.9956,303.2969 506.3084,303.2969 506.6269,303.2969 C507.264,303.2969 507.9238,303.2969 508.6035,303.2969 C509.9628,303.2969 511.4018,303.2969 512.8978,303.2969 C515.8899,303.2969 519.1103,303.2969 522.3788,303.2969 C528.9156,303.2969 535.6447,303.2969 541.1239,303.2969 C542.4937,303.2969 537.7854,303.2969 538.9764,303.2969" fill="none" id="APP_OYEmP1-to-APP_lmO0mp" style="stroke:#181818;stroke-width:1;"/><polygon fill="#181818" points="544.9764,303.2969,535.9764,299.2969,539.9764,303.2969,535.9764,307.2969,544.9764,303.2969" style="stroke:#181818;stroke-width:1;"/></g><!--link DOB_cUsQOox to DOB_luoCiQt--><!--link APP_yNhgdh to APP_SpexYvB--><g class="link" data-entity-1="ent0008" data-entity-2="ent0005" data-link-type="dependency" data-source-line="97" id="lnk20"><path d="M163.5,202.5569 C163.5,238.1369 163.5,297.2969 163.5,297.2969 C163.5,297.2969 209.18,297.2969 256.93,297.2969" fill="none" id="APP_yNhgdh-to-APP_SpexYvB" style="stroke:#181818;stroke-width:1;"/><polygon fill="#181818" points="262.93,297.2969,253.93,293.2969,257.93,297.2969,253.93,301.2969,262.93,297.2969" style="stroke:#181818;stroke-width:1;"/></g><!--link APP_yNhgdh to APP_q6wT1kq--><g class="link" data-entity-1="ent0008" data-entity-2="ent0007" data-link-type="dependency" data-source-line="98" id="lnk21"><path d="M128.5,202.4069 C128.5,271.8169 128.5,453.7669 128.5,514.2669" fill="none" id="APP_yNhgdh-to-APP_q6wT1kq" style="stroke:#181818;stroke-width:1;"/><polygon fill="#181818" points="128.5,520.2669,132.5,511.2669,128.5,515.2669,124.5,511.2669,128.5,520.2669" style="stroke:#181818;stroke-width:1;"/></g><!--link APP_7RbfkON to DOB_cUsQOox--><g class="link" data-entity-1="ent0004" data-entity-2="ent0017" data-link-type="dependency" data-source-line="101" id="lnk24"><path d="M437.02,189.2969 C608.31,189.2969 967,189.2969 967,189.2969 C967,189.2969 967,245.7669 967,278.2169" fill="none" id="APP_7RbfkON-to-DOB_cUsQOox" style="stroke:#181818;stroke-width:1;"/><polygon fill="#181818" points="967,284.2169,971,275.2169,967,279.2169,963,275.2169,967,284.2169" style="stroke:#181818;stroke-width:1;"/></g><!--link APP_7RbfkON to DOB_luoCiQt--><g class="link" data-entity-1="ent0004" data-entity-2="ent0018" data-link-type="dependency" data-source-line="102" id="lnk25"><path d="M437.12,183.2969 C661.32,183.2969 1231,183.2969 1231,183.2969 C1231,183.2969 1231,244.4469 1231,278.2869" fill="none" id="APP_7RbfkON-to-DOB_luoCiQt" style="stroke:#181818;stroke-width:1;"/><polygon fill="#181818" points="1231,284.2869,1235,275.2869,1231,279.2869,1227,275.2869,1231,284.2869" style="stroke:#181818;stroke-width:1;"/></g><!--link APP_q6wT1kq to APP_SpexYvB--><g class="link" data-entity-1="ent0007" data-entity-2="ent0005" data-link-type="dependency" data-source-line="104" id="lnk27"><path d="M223,520.1669 C223,465.1269 223,310.2969 223,310.2969 C223,310.2969 234.98,310.2969 256.96,310.2969" fill="none" id="APP_q6wT1kq-to-APP_SpexYvB" style="stroke:#181818;stroke-width:1;"/><polygon fill="#181818" points="262.96,310.2969,253.96,306.2969,257.96,310.2969,253.96,314.2969,262.96,310.2969" style="stroke:#181818;stroke-width:1;"/></g><?plantuml-src xLVTRjis5BxtKvof0zO1jIp9JkGCjW77ZPC0JPmwJejY6mn6eYNECgcAz5-w07s8liKUONTzb3t9IDbfwLd-Itmr1F55U0u_VXyFppcaGk9Zu08dc8bfZ7CvtYSqHWaQW8zxQ1Y99gFY4WqmN2FAht52UjbphiaT1jlHd3n4FXiJ6a0FHHnhdeGDgU-nXE84Ifhz5ddz87KsMCGIUD6igpzTLKGeLag19I9aceCo7tCSmw6b4o7QLyQobVj1QfLOQEEesqb84CYjqE1bBs63Lo3OAuZGBOv-1cM0VBucRGkODaOHkKE2CBe2P9f_haDrR-8TW3BIevtqrJbd7bcdBvzVW-c-mJtnA62R1E4EIC_3dAyCnDAspcal6cBguVKGxSYn9n0D8bofrECu8bwgybHcLIpZMQl1fnp0yNyJxQJSB3URoiCI7oTpgsMvvRgLkyzU7drVlkknGSmefc8LGQFHT7Oby950NNRxXxGySjdmkRoVo_kvlF-lvStZX0WCFwB42ya02TpD50qLFWfWCeWehngX4F4lXS9uF3R7HPCbGS6nBAiWPnWm8dXyp2PLmm8Bx4FvCsgL68aG_AfnKOAIwOIkMHgvvk5PwSu0w94egXeld0EdwBY6x3G9w-EgGIMjKT2WZbcq9Fhe8BHDrnhPSdYcR7ADnIMMGAvPt1rqPBexWMpRB7tJLvgZKkCMiBd2NM5pZHjXwcHg6IUjPS-UphTeMXOKpR8LsfRyTwPB6TVk9aL9mD4ZO0UcROqEKaO9UgU6coBdxevAgMQ7krdWBDmvmMBPT-2M2I6xa4zKsSgQaWuY8dbPUWaINXWZ7_xv_0KQ3vN60L4VteT8G2V4Kr1jNjwwtueU3ArfQJ03LhKpnE6qVTNfscc3q1QgRAhwJzn34QxQfdDVWxgQAoHwcE2qpM3g_qQ__fNUGnx--hTIiAhZIGtrgwjkwyF9u6gcumbAjD2rSSmu4IoPRi7kjczx_TRbtiZdEz-2-Jh6am-Zuxqnlo4z0ISJx0tbrhVWxxw_E2q7eptoqpwyKqyzWhVX_tWuxjZzZq_Zls3-KA8Qicj5B52fDxDibNdJop3mmrI0bWgG_rM-RtrCVvVlK9fVEYjjd3LL3wispfggHo1JGA8UIVb5hVTFgTVJctEe3-KJMBrYeSDOj6krHeEMDOZtMAqDH4U8Ry5y5fpNBTT9Gt2Vqpf7LhXcCXTQv6kP8z1ARxOj6gEphZ5gb-JAQa1JDXIo5yaF5b_HBJxB9Cthrd7Nk-5lMspo9AQ6_8nIhx4DLD6GDSXR8KEd4I_5Jf-P-qcjJMTN5CzzpyBqGq8lYmpNGsxhvpHtpSzc8UCp5jHzUgooV0-I5mekOysvgYNVlm00?></g></svg>