<svg xmlns="http://www.w3.org/2000/svg" xmlns:xlink="http://www.w3.org/1999/xlink" contentStyleType="text/css" data-diagram-type="SEQUENCE" height="483px" preserveAspectRatio="none" style="width:1508px;height:483px;background:#FFFFFF;" version="1.1" viewBox="0 0 1508 483" width="1508px" zoomAndPan="magnify"><?plantuml 1.2026.3?><defs/><g><g class="title" data-source-line="1"><text fill="#000000" font-family="sans-serif" font-size="14" font-weight="700" lengthAdjust="spacing" textLength="364.6631" x="568.3352" y="27.9951">From a Write to a Consistent, Broadcast State</text></g><g class="participant-lifeline" data-entity-uid="part1" data-qualified-name="author" data-source-line="3" id="part1-lifeline"><g><title>Author or AI Agent</title><rect fill="#000000" fill-opacity="0.00000" height="282.1953" width="8" x="68.9756" y="118.5938"/><line style="stroke:#181818;stroke-width:0.5;stroke-dasharray:5,5;" x1="72" x2="72" y1="118.5938" y2="400.7891"/></g></g><g class="participant-lifeline" data-entity-uid="part2" data-qualified-name="mcp" data-source-line="4" id="part2-lifeline"><g><title>MCP . REST Write Surface</title><rect fill="#000000" fill-opacity="0.00000" height="282.1953" width="8" x="239.8267" y="118.5938"/><line style="stroke:#181818;stroke-width:0.5;stroke-dasharray:5,5;" x1="242.9512" x2="242.9512" y1="118.5938" y2="400.7891"/></g></g><g class="participant-lifeline" data-entity-uid="part3" data-qualified-name="queue" data-source-line="5" id="part3-lifeline"><g><title>Write Request Queue</title><rect fill="#000000" fill-opacity="0.00000" height="282.1953" width="8" x="516.2793" y="118.5938"/><line style="stroke:#181818;stroke-width:0.5;stroke-dasharray:5,5;" x1="519.2891" x2="519.2891" y1="118.5938" y2="400.7891"/></g></g><g class="participant-lifeline" data-entity-uid="part4" data-qualified-name="verifier" data-source-line="6" id="part4-lifeline"><g><title>Model Verifier</title><rect fill="#000000" fill-opacity="0.00000" height="282.1953" width="8" x="824.0957" y="118.5938"/><line style="stroke:#181818;stroke-width:0.5;stroke-dasharray:5,5;" x1="827.3418" x2="827.3418" y1="118.5938" y2="400.7891"/></g></g><g class="participant-lifeline" data-entity-uid="part5" data-qualified-name="publisher" data-source-line="7" id="part5-lifeline"><g><title>Staged Write Transaction Manager</title><rect fill="#000000" fill-opacity="0.00000" height="282.1953" width="8" x="1010.748" y="118.5938"/><line style="stroke:#181818;stroke-width:0.5;stroke-dasharray:5,5;" x1="1013.8496" x2="1013.8496" y1="118.5938" y2="400.7891"/></g></g><g class="participant-lifeline" data-entity-uid="part6" data-qualified-name="git" data-source-line="8" id="part6-lifeline"><g><title>Git Repository</title><rect fill="#000000" fill-opacity="0.00000" height="282.1953" width="8" x="1357.2407" y="118.5938"/><line style="stroke:#181818;stroke-width:0.5;stroke-dasharray:5,5;" x1="1360.3657" x2="1360.3657" y1="118.5938" y2="400.7891"/></g></g><g class="participant-lifeline" data-entity-uid="part7" data-qualified-name="gui" data-source-line="9" id="part7-lifeline"><g><title>GUI .SSE.</title><rect fill="#000000" fill-opacity="0.00000" height="282.1953" width="8" x="1456.7246" y="118.5938"/><line style="stroke:#181818;stroke-width:0.5;stroke-dasharray:5,5;" x1="1460.1157" x2="1460.1157" y1="118.5938" y2="400.7891"/></g></g><g class="participant participant-head" data-entity-uid="part1" data-qualified-name="author" data-source-line="3" id="part1-head"><text fill="#000000" font-family="sans-serif" font-size="14" lengthAdjust="spacing" textLength="129.9512" x="5" y="115.292">Author or AI Agent</text><ellipse cx="72.9756" cy="50.7969" fill="#E2E2F0" rx="8" ry="8" style="stroke:#181818;stroke-width:0.5;"/><path d="M72.9756,58.7969 L72.9756,85.7969 M59.9756,66.7969 L85.9756,66.7969 M72.9756,85.7969 L59.9756,100.7969 M72.9756,85.7969 L85.9756,100.7969" fill="none" style="stroke:#181818;stroke-width:0.5;"/></g><g class="participant participant-tail" data-entity-uid="part1" data-qualified-name="author" data-source-line="3" id="part1-tail"><text fill="#000000" font-family="sans-serif" font-size="14" lengthAdjust="spacing" textLength="129.9512" x="5" y="412.7842">Author or AI Agent</text><ellipse cx="72.9756" cy="424.5859" fill="#E2E2F0" rx="8" ry="8" style="stroke:#181818;stroke-width:0.5;"/><path d="M72.9756,432.5859 L72.9756,459.5859 M59.9756,440.5859 L85.9756,440.5859 M72.9756,459.5859 L59.9756,474.5859 M72.9756,459.5859 L85.9756,474.5859" fill="none" style="stroke:#181818;stroke-width:0.5;"/></g><g class="participant participant-head" data-entity-uid="part2" data-qualified-name="mcp" data-source-line="4" id="part2-head"><text fill="#000000" font-family="sans-serif" font-size="14" lengthAdjust="spacing" textLength="179.751" x="150.9512" y="115.292">MCP / REST Write Surface</text><path d="M223.3267,74.2969 L223.3267,98.2969 M223.3267,86.2969 L240.3267,86.2969" fill="none" style="stroke:#181818;stroke-width:0.5;"/><ellipse cx="252.3267" cy="86.2969" fill="#E2E2F0" rx="12" ry="12" style="stroke:#181818;stroke-width:0.5;"/></g><g class="participant participant-tail" data-entity-uid="part2" data-qualified-name="mcp" data-source-line="4" id="part2-tail"><text fill="#000000" font-family="sans-serif" font-size="14" lengthAdjust="spacing" textLength="179.751" x="150.9512" y="412.7842">MCP / REST Write Surface</text><path d="M223.3267,420.0859 L223.3267,444.0859 M223.3267,432.0859 L240.3267,432.0859" fill="none" style="stroke:#181818;stroke-width:0.5;"/><ellipse cx="252.3267" cy="432.0859" fill="#E2E2F0" rx="12" ry="12" style="stroke:#181818;stroke-width:0.5;"/></g><g class="participant participant-head" data-entity-uid="part3" data-qualified-name="queue" data-source-line="5" id="part3-head"><path d="M440.2891,92.2969 L600.2695,92.2969 C605.2695,92.2969 605.2695,105.4453 605.2695,105.4453 C605.2695,105.4453 605.2695,118.5938 600.2695,118.5938 L440.2891,118.5938 C435.2891,118.5938 435.2891,105.4453 435.2891,105.4453 C435.2891,105.4453 435.2891,92.2969 440.2891,92.2969" fill="#E2E2F0" style="stroke:#181818;stroke-width:0.5;"/><path d="M600.2695,92.2969 C595.2695,92.2969 595.2695,105.4453 595.2695,105.4453 C595.2695,118.5938 600.2695,118.5938 600.2695,118.5938" fill="none" style="stroke:#181818;stroke-width:0.5;"/><text fill="#000000" font-family="sans-serif" font-size="14" lengthAdjust="spacing" textLength="149.9805" x="440.2891" y="110.292">Write Request Queue</text></g><g class="participant participant-tail" data-entity-uid="part3" data-qualified-name="queue" data-source-line="5" id="part3-tail"><path d="M440.2891,399.7891 L600.2695,399.7891 C605.2695,399.7891 605.2695,412.9375 605.2695,412.9375 C605.2695,412.9375 605.2695,426.0859 600.2695,426.0859 L440.2891,426.0859 C435.2891,426.0859 435.2891,412.9375 435.2891,412.9375 C435.2891,412.9375 435.2891,399.7891 440.2891,399.7891" fill="#E2E2F0" style="stroke:#181818;stroke-width:0.5;"/><path d="M600.2695,399.7891 C595.2695,399.7891 595.2695,412.9375 595.2695,412.9375 C595.2695,426.0859 600.2695,426.0859 600.2695,426.0859" fill="none" style="stroke:#181818;stroke-width:0.5;"/><text fill="#000000" font-family="sans-serif" font-size="14" lengthAdjust="spacing" textLength="149.9805" x="440.2891" y="417.7842">Write Request Queue</text></g><g class="participant participant-head" data-entity-uid="part4" data-qualified-name="verifier" data-source-line="6" id="part4-head"><text fill="#000000" font-family="sans-serif" font-size="14" lengthAdjust="spacing" textLength="97.5078" x="776.3418" y="115.292">Model Verifier</text><ellipse cx="828.0957" cy="86.2969" fill="#E2E2F0" rx="12" ry="12" style="stroke:#181818;stroke-width:0.5;"/><polygon fill="#181818" points="824.0957,74.2969,830.0957,69.2969,828.0957,74.2969,830.0957,79.2969,824.0957,74.2969" style="stroke:#181818;stroke-width:1;"/></g><g class="participant participant-tail" data-entity-uid="part4" data-qualified-name="verifier" data-source-line="6" id="part4-tail"><text fill="#000000" font-family="sans-serif" font-size="14" lengthAdjust="spacing" textLength="97.5078" x="776.3418" y="412.7842">Model Verifier</text><ellipse cx="828.0957" cy="432.0859" fill="#E2E2F0" rx="12" ry="12" style="stroke:#181818;stroke-width:0.5;"/><polygon fill="#181818" points="824.0957,420.0859,830.0957,415.0859,828.0957,420.0859,830.0957,425.0859,824.0957,420.0859" style="stroke:#181818;stroke-width:1;"/></g><g class="participant participant-head" data-entity-uid="part5" data-qualified-name="publisher" data-source-line="7" id="part5-head"><text fill="#000000" font-family="sans-serif" font-size="14" lengthAdjust="spacing" textLength="243.7969" x="889.8496" y="115.292">Staged Write Transaction Manager</text><ellipse cx="1014.748" cy="86.2969" fill="#E2E2F0" rx="12" ry="12" style="stroke:#181818;stroke-width:0.5;"/><polygon fill="#181818" points="1010.748,74.2969,1016.748,69.2969,1014.748,74.2969,1016.748,79.2969,1010.748,74.2969" style="stroke:#181818;stroke-width:1;"/></g><g class="participant participant-tail" data-entity-uid="part5" data-qualified-name="publisher" data-source-line="7" id="part5-tail"><text fill="#000000" font-family="sans-serif" font-size="14" lengthAdjust="spacing" textLength="243.7969" x="889.8496" y="412.7842">Staged Write Transaction Manager</text><ellipse cx="1014.748" cy="432.0859" fill="#E2E2F0" rx="12" ry="12" style="stroke:#181818;stroke-width:0.5;"/><polygon fill="#181818" points="1010.748,420.0859,1016.748,415.0859,1014.748,420.0859,1016.748,425.0859,1010.748,420.0859" style="stroke:#181818;stroke-width:1;"/></g><g class="participant participant-head" data-entity-uid="part6" data-qualified-name="git" data-source-line="8" id="part6-head"><text fill="#000000" font-family="sans-serif" font-size="14" lengthAdjust="spacing" textLength="99.75" x="1308.3657" y="115.292">Git Repository</text><path d="M1343.2407,66.2969 C1343.2407,56.2969 1361.2407,56.2969 1361.2407,56.2969 C1361.2407,56.2969 1379.2407,56.2969 1379.2407,66.2969 L1379.2407,92.2969 C1379.2407,102.2969 1361.2407,102.2969 1361.2407,102.2969 C1361.2407,102.2969 1343.2407,102.2969 1343.2407,92.2969 L1343.2407,66.2969" fill="#E2E2F0" style="stroke:#181818;stroke-width:0.5;"/><path d="M1343.2407,66.2969 C1343.2407,76.2969 1361.2407,76.2969 1361.2407,76.2969 C1361.2407,76.2969 1379.2407,76.2969 1379.2407,66.2969" fill="none" style="stroke:#181818;stroke-width:0.5;"/></g><g class="participant participant-tail" data-entity-uid="part6" data-qualified-name="git" data-source-line="8" id="part6-tail"><text fill="#000000" font-family="sans-serif" font-size="14" lengthAdjust="spacing" textLength="99.75" x="1308.3657" y="412.7842">Git Repository</text><path d="M1343.2407,426.0859 C1343.2407,416.0859 1361.2407,416.0859 1361.2407,416.0859 C1361.2407,416.0859 1379.2407,416.0859 1379.2407,426.0859 L1379.2407,452.0859 C1379.2407,462.0859 1361.2407,462.0859 1361.2407,462.0859 C1361.2407,462.0859 1343.2407,462.0859 1343.2407,452.0859 L1343.2407,426.0859" fill="#E2E2F0" style="stroke:#181818;stroke-width:0.5;"/><path d="M1343.2407,426.0859 C1343.2407,436.0859 1361.2407,436.0859 1361.2407,436.0859 C1361.2407,436.0859 1379.2407,436.0859 1379.2407,426.0859" fill="none" style="stroke:#181818;stroke-width:0.5;"/></g><g class="participant participant-head" data-entity-uid="part7" data-qualified-name="gui" data-source-line="9" id="part7-head"><text fill="#000000" font-family="sans-serif" font-size="14" lengthAdjust="spacing" textLength="67.2178" x="1424.1157" y="115.292">GUI (SSE)</text><path d="M1440.2246,74.2969 L1440.2246,98.2969 M1440.2246,86.2969 L1457.2246,86.2969" fill="none" style="stroke:#181818;stroke-width:0.5;"/><ellipse cx="1469.2246" cy="86.2969" fill="#E2E2F0" rx="12" ry="12" style="stroke:#181818;stroke-width:0.5;"/></g><g class="participant participant-tail" data-entity-uid="part7" data-qualified-name="gui" data-source-line="9" id="part7-tail"><text fill="#000000" font-family="sans-serif" font-size="14" lengthAdjust="spacing" textLength="67.2178" x="1424.1157" y="412.7842">GUI (SSE)</text><path d="M1440.2246,420.0859 L1440.2246,444.0859 M1440.2246,432.0859 L1457.2246,432.0859" fill="none" style="stroke:#181818;stroke-width:0.5;"/><ellipse cx="1469.2246" cy="432.0859" fill="#E2E2F0" rx="12" ry="12" style="stroke:#181818;stroke-width:0.5;"/></g><g class="message" data-entity-1="part1" data-entity-2="part2" data-source-line="11" id="msg1"><polygon fill="#181818" points="231.8267,145.7266,241.8267,149.7266,231.8267,153.7266,235.8267,149.7266" style="stroke:#181818;stroke-width:1;"/><line style="stroke:#181818;stroke-width:1;" x1="72.9756" x2="237.8267" y1="149.7266" y2="149.7266"/><text fill="#000000" font-family="sans-serif" font-size="13" lengthAdjust="spacing" textLength="130.0952" x="79.9756" y="144.6606">create / edit artifact</text></g><g class="message" data-entity-1="part2" data-entity-2="part3" data-source-line="12" id="msg2"><polygon fill="#181818" points="508.2793,174.8594,518.2793,178.8594,508.2793,182.8594,512.2793,178.8594" style="stroke:#181818;stroke-width:1;"/><line style="stroke:#181818;stroke-width:1;" x1="243.8267" x2="514.2793" y1="178.8594" y2="178.8594"/><text fill="#000000" font-family="sans-serif" font-size="13" lengthAdjust="spacing" textLength="252.4526" x="250.8267" y="173.7935">enqueue write (all surfaces, serialized)</text></g><g class="message" data-entity-1="part3" data-entity-2="part4" data-source-line="13" id="msg3"><polygon fill="#181818" points="816.0957,203.9922,826.0957,207.9922,816.0957,211.9922,820.0957,207.9922" style="stroke:#181818;stroke-width:1;"/><line style="stroke:#181818;stroke-width:1;" x1="520.2793" x2="822.0957" y1="207.9922" y2="207.9922"/><text fill="#000000" font-family="sans-serif" font-size="13" lengthAdjust="spacing" textLength="283.8164" x="527.2793" y="202.9263">verify: schema, references, diagram syntax</text></g><g class="message" data-entity-1="part4" data-entity-2="part3" data-source-line="14" id="msg4"><polygon fill="#181818" points="531.2793,233.125,521.2793,237.125,531.2793,241.125,527.2793,237.125" style="stroke:#181818;stroke-width:1;"/><line style="stroke:#181818;stroke-width:1;stroke-dasharray:2,2;" x1="525.2793" x2="827.0957" y1="237.125" y2="237.125"/><text fill="#000000" font-family="sans-serif" font-size="13" lengthAdjust="spacing" textLength="31.1353" x="537.2793" y="232.0591">valid</text></g><g class="message" data-entity-1="part3" data-entity-2="part5" data-source-line="15" id="msg5"><polygon fill="#181818" points="1002.748,262.2578,1012.748,266.2578,1002.748,270.2578,1006.748,266.2578" style="stroke:#181818;stroke-width:1;"/><line style="stroke:#181818;stroke-width:1;" x1="520.2793" x2="1008.748" y1="266.2578" y2="266.2578"/><text fill="#000000" font-family="sans-serif" font-size="13" lengthAdjust="spacing" textLength="152.1724" x="527.2793" y="261.1919">publish verified change</text></g><g class="message" data-entity-1="part5" data-entity-2="part6" data-source-line="16" id="msg6"><polygon fill="#181818" points="1349.2407,291.3906,1359.2407,295.3906,1349.2407,299.3906,1353.2407,295.3906" style="stroke:#181818;stroke-width:1;"/><line style="stroke:#181818;stroke-width:1;" x1="1014.748" x2="1355.2407" y1="295.3906" y2="295.3906"/><text fill="#000000" font-family="sans-serif" font-size="13" lengthAdjust="spacing" textLength="322.4927" x="1021.748" y="290.3247">one file: atomic replace / many files: M4 manifest</text></g><g class="message" data-entity-1="part5" data-entity-2="part3" data-source-line="17" id="msg7"><polygon fill="#181818" points="531.2793,320.5234,521.2793,324.5234,531.2793,328.5234,527.2793,324.5234" style="stroke:#181818;stroke-width:1;"/><line style="stroke:#181818;stroke-width:1;stroke-dasharray:2,2;" x1="525.2793" x2="1013.748" y1="324.5234" y2="324.5234"/><text fill="#000000" font-family="sans-serif" font-size="13" lengthAdjust="spacing" textLength="192.0928" x="537.2793" y="319.4575">committed + index refreshed</text></g><g class="message" data-entity-1="part3" data-entity-2="part7" data-source-line="18" id="msg8"><line style="stroke:#181818;stroke-width:1;" x1="1458.7246" x2="1448.7246" y1="353.6563" y2="349.6563"/><line style="stroke:#181818;stroke-width:1;" x1="1458.7246" x2="1448.7246" y1="353.6563" y2="357.6563"/><line style="stroke:#181818;stroke-width:1;" x1="520.2793" x2="1459.7246" y1="353.6563" y2="353.6563"/><text fill="#000000" font-family="sans-serif" font-size="13" lengthAdjust="spacing" textLength="159.3008" x="527.2793" y="348.5903">broadcast model update</text></g><g class="message" data-entity-1="part2" data-entity-2="part1" data-source-line="19" id="msg9"><polygon fill="#181818" points="83.9756,378.7891,73.9756,382.7891,83.9756,386.7891,79.9756,382.7891" style="stroke:#181818;stroke-width:1;"/><line style="stroke:#181818;stroke-width:1;stroke-dasharray:2,2;" x1="77.9756" x2="242.8267" y1="382.7891" y2="382.7891"/><text fill="#000000" font-family="sans-serif" font-size="13" lengthAdjust="spacing" textLength="125.7979" x="89.9756" y="377.7231">artifact ids + result</text></g><?plantuml-src JLB1Rjim3BthAuYSMYp5BZtvK20hkgA706lTRcT6eXq2ikH9L5VlwqlBILp0W2NnyV6z9mcB9_YPuW08Vn8BWKHTtiUGEGi5sSAF5D5Pp0Aje90nQ2KcsEoA7FMlt-u9ThrYDu0Pi1wRGop1OPfWix__1T_XvQ5zFKreI-hGKaKFTZH_2nM2pL9y8TtghEVvi49gsTWO94MlTD6HXz-Kk6DA5V5-sgmWLTgJEyrxJHYoYkOOO8z1AqlRM0wUyr7x70eUCAk8HnQLCCRCwd6gi9xbYvl7joUuQjk7wwLMMFDOWhYvczqqO1DfJ6gPd99X4bQtOhGsGwgR1YWihlzLXLVeFUGbbho5h7xGytzorwTmjF5iibbMKmFP7cd0BIJgA56ehOwnJpX0deBWXpatmSqw-bsftSfxIQ4vBy-Z7DWZXfxC1JBZDOu6OY3es2iRIXpOgeRHgtXrFM2OQYqtiB-TjzpfXNubMRNOE0miegE-0GT77xEPH0fR5TxDAJTmk3p3eRw0ChhvDTPObN2vXEQIDx3BIgfSnOlv1000?></g></svg>